<?xml version="1.0" encoding="utf-8"?>
<!-- Generator: Adobe Illustrator 25.0.0, SVG Export Plug-In . SVG Version: 6.00 Build 0)  -->
<svg version="1.1" xmlns="http://www.w3.org/2000/svg" xmlns:xlink="http://www.w3.org/1999/xlink" x="0px" y="0px"
	 viewBox="0 0 500 500" style="enable-background:new 0 0 500 500;" xml:space="preserve">
<style type="text/css">
	.st0{fill:#EBEBEB;}
	.st1{opacity:0.7;fill:#FFFFFF;}
	.st2{opacity:0.15;}
	.st3{fill:#D1D1D1;stroke:#263238;stroke-linecap:round;stroke-linejoin:round;stroke-miterlimit:10;}
	.st4{fill:#FFFFFF;stroke:#263238;stroke-linecap:round;stroke-linejoin:round;stroke-miterlimit:10;}
	.st5{fill:#A8A8A8;stroke:#263238;stroke-linecap:round;stroke-linejoin:round;stroke-miterlimit:10;}
	.st6{fill:#FFFFFF;}
	.st7{fill:none;stroke:#FFFFFF;stroke-miterlimit:10;}
	.st8{fill:#4096DF;stroke:#263238;stroke-linecap:round;stroke-linejoin:round;stroke-miterlimit:10;}
	.st9{fill:none;stroke:#263238;stroke-linecap:round;stroke-linejoin:round;stroke-miterlimit:10;}
	.st10{clip-path:url(#SVGID_10_);}
	.st11{clip-path:url(#SVGID_11_);}
	.st12{clip-path:url(#SVGID_12_);}
	.st13{clip-path:url(#SVGID_13_);}
	.st14{clip-path:url(#SVGID_14_);}
	.st15{clip-path:url(#SVGID_15_);}
	.st16{clip-path:url(#SVGID_16_);}
	.st17{clip-path:url(#SVGID_17_);}
	.st18{fill:#263238;stroke:#263238;stroke-miterlimit:10;}
	.st19{fill:#FFFFFF;stroke:#263238;stroke-miterlimit:10;}
	.st20{fill:none;stroke:#263238;stroke-miterlimit:10;}
	.st21{fill:#4096DF;stroke:#263238;stroke-miterlimit:10;}
</style>
<g id="Background_Simple">
	<g>
		<path class="st0" d="M451.69,276.52c-4.33,36.7-21.09,79.37-54.55,98.97c-50.56,29.62-46.33,75.18-145.02,94.99
			c-15.39,3.09-29.99,4.39-43.76,4.13c-7.4-0.14-14.57-0.73-21.48-1.75c-62.73-9.16-104.94-52.76-120.42-105.39
			c-20.38-69.22,20.31-114.53,47.29-141.84c26.97-27.3,46.73-112.38,143.6-132.61c14.77-3.08,29.87-4.65,44.97-4.27
			c34.47,0.85,72.06,12.16,98.07,35.78c1.95,1.77,3.85,3.62,5.7,5.51C442.24,167.15,457.6,226.49,451.69,276.52z"/>
		<path class="st1" d="M451.69,276.52c-4.33,36.7-21.09,79.37-54.55,98.97c-50.56,29.62-46.33,75.18-145.02,94.99
			c-15.39,3.09-29.99,4.39-43.76,4.13c-7.4-0.14-14.57-0.73-21.48-1.75c-62.73-9.16-104.94-52.76-120.42-105.39
			c-20.38-69.22,20.31-114.53,47.29-141.84c26.97-27.3,46.73-112.38,143.6-132.61c14.77-3.08,29.87-4.65,44.97-4.27
			c34.47,0.85,72.06,12.16,98.07,35.78c1.95,1.77,3.85,3.62,5.7,5.51C442.24,167.15,457.6,226.49,451.69,276.52z"/>
	</g>
</g>
<g id="Plants">
	<g class="st2">
		<path d="M322.09,97.97c-4.74,3.29-17.48,5.5-17.49,5.51c-0.13,0.02,1.09-8.84,1.23-9.39c1.63-6.37,8.54-17.72,15.9-18.17
			c5.3-0.32,9.19,4.28,8.98,9.37C330.49,90.48,326.13,95.17,322.09,97.97z"/>
		<path d="M286.96,258.31c0.01,0.3,0.02,0.58,0.02,0.88l-4.37,2.83c-0.01-1.2-0.01-2.41-0.01-3.66c0-3.54,0.06-7.33,0.17-11.22
			c-0.91-0.17-6.09-1.16-10.8-2.7c-2.91,4.74-11.46,11.29-12.57,12.13c1.91,2.92,3.81,5.74,5.63,8.37c1.25,1.82,2.47,3.55,3.66,5.21
			l-4.8,0.95c-0.81-1.21-1.64-2.43-2.48-3.71c-1.96-2.95-3.99-6.15-6.05-9.45c-1.3,0.55-11.98,5-17.4,4.86
			c-4.91-0.14-11.13-1.67-14.15-5.91c-2.96-4.14-2.22-10.12,2.39-12.75c6.4-3.65,18.39,2.07,23.24,6.51
			c0.29,0.26,3.08,3.45,4.81,5.49c-0.83-1.35-1.66-2.66-2.5-4.06c-1.68-2.76-3.28-5.57-5.01-8.59c-0.78-1.49-1.58-2.99-2.38-4.5
			c-0.82-1.49-1.51-3.16-2.27-4.75c-1.7-3.73-3.25-7.59-4.72-11.51c-2.42,1.47-11.11,6.55-16.01,7.16
			c-4.88,0.61-11.26,0.03-14.88-3.69c-3.55-3.65-3.73-9.67,0.43-12.97c5.77-4.58,18.49-0.74,23.96,2.91
			c0.34,0.23,3.97,3.29,5.94,5.01c-0.86-2.37-1.74-4.72-2.54-7.14c-2.3-6.99-4.41-14.14-6.55-21.26c-0.65-2.18-1.33-4.35-2-6.52
			c-0.86,0.53-11.05,6.8-16.54,7.48c-4.87,0.61-11.26,0.03-14.88-3.69c-3.55-3.65-3.73-9.67,0.43-12.97
			c5.77-4.58,18.49-0.74,23.96,2.91c0.41,0.27,5.63,4.69,6.91,5.87c-1.48-4.78-3-9.53-4.68-14.15c-2.32-6.38-4.95-12.51-7.93-18.27
			c-0.4,0.25-11.01,6.83-16.63,7.54c-4.88,0.61-11.26,0.03-14.88-3.69c-3.55-3.65-3.73-9.67,0.43-12.97
			c5.77-4.58,18.49-0.74,23.96,2.91c0.43,0.29,6.04,5.04,7,5.97c-0.18-0.34-0.33-0.72-0.51-1.05c-3.26-6.1-7.19-11.6-11.12-16.57
			c-2.28-2.89-4.62-5.53-6.95-8.04c-1.85,1.43-10.38,7.87-15.36,9.06c-4.78,1.14-11.18,1.27-15.2-2.04c-3.93-3.24-4.77-9.2-1-12.94
			c5.23-5.19,18.3-2.77,24.14,0.26c0.32,0.16,3.36,2.2,5.56,3.71c-1.07-1.12-2.15-2.29-3.2-3.34c-3.92-3.96-7.76-7.34-11.18-10.31
			c-1.96-1.67-3.76-3.14-5.47-4.51c-2.55,0.46-12.83,2.16-17.72,0.94c-4.77-1.19-10.51-4.03-12.55-8.81
			c-2-4.69,0.01-10.36,5.08-11.94c7.03-2.19,17.52,5.97,21.3,11.35c0.33,0.47,4.61,8.32,4.48,8.35c0,0-0.12,0.02-0.15,0.03
			c1.67,1.28,3.43,2.66,5.34,4.22c3.49,2.9,7.41,6.21,11.43,10.09c4.03,3.87,8.3,8.2,12.39,13.16c4.1,4.97,8.16,10.4,11.62,16.54
			c0.04,0.07,0.07,0.15,0.11,0.22c-0.46-2.11-1.53-8.05-1.56-8.52c-0.43-6.56,2.59-19.5,9.44-22.22c4.93-1.95,10.06,1.2,11.45,6.1
			c1.42,5-1.26,10.82-4.23,14.74c-3.34,4.42-13.9,10.15-14.75,10.6c3.24,5.88,6.09,12.17,8.63,18.7c1.45,3.73,2.8,7.53,4.1,11.36
			c-0.33-1.84-0.62-3.48-0.63-3.72c-0.43-6.57,2.59-19.5,9.44-22.22c4.93-1.96,10.06,1.2,11.45,6.1c1.42,5-1.26,10.82-4.23,14.74
			c-3.01,3.98-11.91,9.04-14.29,10.35c0.48,1.47,0.98,2.94,1.46,4.42c2.3,7.08,4.56,14.16,6.99,21.03c0.85,2.42,1.79,4.78,2.71,7.14
			c-0.3-1.63-0.53-3.01-0.54-3.22c-0.43-6.57,2.59-19.5,9.44-22.22c4.94-1.96,10.06,1.2,11.45,6.1c1.42,5-1.27,10.82-4.23,14.74
			c-2.87,3.8-11.05,8.54-13.86,10.11c1.02,2.39,2.03,4.78,3.13,7.05c0.78,1.53,1.43,3.06,2.3,4.56c0.83,1.5,1.65,2.98,2.47,4.45
			c1.68,2.77,3.38,5.64,5.09,8.3c1.17,1.86,2.32,3.61,3.47,5.38c-0.88-2.4-2.5-7.14-2.59-7.55c-0.94-4.27-0.8-11.54,1.27-17.04
			c-0.14-0.63-0.23-1.27-0.25-1.91c-0.18-5.09,3.73-9.67,9.03-9.32c7.35,0.48,14.2,11.87,15.8,18.25c0.09,0.38,0.66,4.57,0.98,7.23
			c0.05-1.59,0.08-3.13,0.16-4.77c0.12-3.23,0.34-6.46,0.56-9.93c0.17-1.67,0.33-3.36,0.5-5.06c0.13-1.69,0.49-3.47,0.72-5.22
			c0.64-4.05,1.48-8.12,2.42-12.21c-2.83-0.11-12.88-0.67-17.3-2.86c-4.4-2.18-9.41-6.18-10.38-11.29c-0.95-5,2.22-10.12,7.51-10.58
			c7.34-0.64,15.83,9.58,18.38,15.65c0.16,0.38,1.5,4.93,2.19,7.45c0.58-2.45,1.15-4.9,1.83-7.36c1.94-7.1,4.12-14.23,6.26-21.35
			c0.66-2.18,1.29-4.36,1.93-6.54c-1.01-0.03-12.97-0.43-17.92-2.88c-4.4-2.18-9.41-6.18-10.38-11.29c-0.95-5,2.22-10.12,7.51-10.58
			c7.34-0.64,15.83,9.58,18.38,15.64c0.19,0.46,2.11,7.02,2.52,8.71c1.4-4.8,2.76-9.6,3.9-14.39c1.59-6.6,2.78-13.16,3.46-19.61
			c-0.47-0.01-12.95-0.37-18.03-2.89c-4.4-2.18-9.41-6.18-10.38-11.29c-0.95-5,2.22-10.12,7.51-10.58
			c7.34-0.64,15.83,9.58,18.38,15.65c0.2,0.48,2.26,7.54,2.54,8.84c0.04-0.38,0.12-0.78,0.16-1.16c0.64-6.89,0.4-13.65-0.14-19.96
			c-0.3-3.67-0.8-7.16-1.36-10.54c-2.33,0.17-13,0.84-17.81-0.92c-4.62-1.68-10.03-5.11-11.55-10.08c-1.49-4.87,1.1-10.3,6.3-11.34
			c7.23-1.44,16.79,7.78,19.99,13.53c0.17,0.31,1.59,3.69,2.59,6.16c-0.28-1.52-0.53-3.1-0.82-4.56c-1.09-5.46-2.42-10.4-3.64-14.76
			c-0.71-2.48-1.4-4.7-2.07-6.77c-2.37-1.03-11.9-5.28-15.3-8.99c-3.32-3.62-6.54-9.16-5.61-14.27c0.92-5.01,5.72-8.64,10.82-7.16
			c7.08,2.05,11.31,14.65,11.51,21.22c0.01,0.57-0.75,9.48-0.87,9.43c0,0-0.12-0.05-0.14-0.06c0.68,1.98,1.39,4.12,2.12,6.46
			c1.31,4.34,2.76,9.26,3.97,14.73c1.22,5.45,2.4,11.42,3.07,17.81c0.68,6.4,1.07,13.18,0.57,20.21c-0.01,0.08-0.02,0.16-0.03,0.24
			c0.79-2.01,3.17-7.56,3.4-7.97c3.26-5.71,12.92-14.84,20.13-13.32c5.19,1.09,7.73,6.55,6.19,11.41
			c-1.58,4.96-7.02,8.33-11.66,9.96c-5.23,1.85-17.2,0.79-18.15,0.71c-0.54,6.69-1.63,13.51-3.12,20.35
			c-0.85,3.91-1.82,7.83-2.85,11.74c0.73-1.72,1.4-3.25,1.52-3.45c3.26-5.71,12.92-14.84,20.13-13.32c5.2,1.09,7.73,6.55,6.19,11.4
			c-1.57,4.96-7.02,8.33-11.66,9.96c-4.7,1.66-14.92,0.97-17.63,0.75c-0.41,1.5-0.8,3-1.22,4.49c-1.99,7.18-4.01,14.33-5.77,21.4
			c-0.62,2.49-1.14,4.97-1.68,7.45c0.65-1.52,1.22-2.8,1.32-2.99c3.26-5.71,12.92-14.84,20.13-13.32c5.19,1.09,7.73,6.55,6.19,11.4
			c-1.58,4.96-7.02,8.33-11.66,9.96c-4.49,1.58-13.93,1.03-17.14,0.79c-0.47,2.55-0.94,5.11-1.28,7.61
			c-0.19,1.71-0.5,3.34-0.59,5.07c-0.13,1.71-0.26,3.4-0.39,5.07c-0.13,3.23-0.29,6.57-0.34,9.73c-0.05,2.2-0.06,4.29-0.07,6.4
			c0.59-2.49,1.85-7.34,2-7.73c2.36-6.14,10.52-16.62,17.88-16.22c5.3,0.29,8.63,5.31,7.84,10.34c-0.81,5.14-5.68,9.3-10.01,11.61
			c-4.77,2.55-16.29,3.35-17.73,3.44C286.86,251.71,286.88,255.11,286.96,258.31z"/>
		<path d="M194.32,126.06c-0.1,0.09-3.97-7.98-4.16-8.51c-2.15-6.22-2.65-19.49,3.24-23.92c4.24-3.19,10.02-1.5,12.65,2.86
			c2.69,4.45,1.64,10.77-0.18,15.33C203.73,117.17,194.33,126.05,194.32,126.06z"/>
	</g>
	<g class="st2">
		<path d="M127.93,283.27c-0.82,2.86-5.17,7.91-5.18,7.91c-0.05,0.05-2.46-3.88-2.58-4.15c-1.43-3.08-2.39-9.86,0.4-12.44
			c2.01-1.86,5.06-1.3,6.64,0.8C128.83,277.54,128.62,280.83,127.93,283.27z"/>
		<path d="M166.33,358.71c0.1,0.12,0.2,0.23,0.3,0.34l-0.82,2.56c-0.39-0.47-0.79-0.96-1.2-1.46c-1.16-1.41-2.37-2.95-3.6-4.53
			c-0.42,0.23-2.81,1.53-5.19,2.45c0.39,2.84-0.88,8.25-1.05,8.95c1.72,0.54,3.39,1.04,4.98,1.5c1.09,0.31,2.15,0.61,3.16,0.88
			l-1.6,1.95c-0.72-0.21-1.45-0.43-2.2-0.67c-1.75-0.54-3.6-1.15-5.5-1.79c-0.34,0.65-3.14,5.91-5.35,7.62
			c-2,1.55-4.99,2.97-7.58,2.27c-2.53-0.69-4.19-3.31-3.21-5.87c1.36-3.55,8.01-5.19,11.4-5c0.2,0.01,2.35,0.37,3.71,0.62
			c-0.77-0.27-1.53-0.52-2.32-0.8c-1.57-0.55-3.13-1.15-4.8-1.79c-0.8-0.34-1.6-0.68-2.42-1.02c-0.81-0.32-1.63-0.77-2.46-1.15
			c-1.9-0.93-3.78-1.97-5.64-3.05c-0.49,1.38-2.29,6.24-4.04,8.09c-1.75,1.84-4.48,3.69-7.14,3.39c-2.61-0.29-4.65-2.64-4.07-5.31
			c0.81-3.71,7.13-6.34,10.51-6.67c0.21-0.02,2.66,0.01,4,0.06c-1.12-0.66-2.24-1.32-3.35-2.02c-3.2-2.04-6.38-4.2-9.56-6.34
			c-0.97-0.66-1.95-1.3-2.93-1.95c-0.17,0.49-2.19,6.32-4.15,8.39c-1.74,1.84-4.48,3.69-7.14,3.39c-2.61-0.29-4.65-2.64-4.07-5.31
			c0.8-3.71,7.13-6.34,10.51-6.67c0.25-0.02,3.78,0.03,4.67,0.09c-2.15-1.42-4.31-2.82-6.49-4.11c-3.01-1.79-6.06-3.37-9.13-4.69
			c-0.08,0.23-2.16,6.32-4.17,8.44c-1.75,1.84-4.48,3.69-7.14,3.39c-2.61-0.29-4.65-2.64-4.07-5.31c0.8-3.71,7.13-6.34,10.51-6.67
			c0.26-0.03,4.06,0.03,4.74,0.09c-0.18-0.08-0.36-0.18-0.55-0.25c-3.3-1.37-6.66-2.28-9.85-2.97c-1.85-0.41-3.65-0.7-5.4-0.94
			c-0.27,1.18-1.57,6.53-3.17,8.64c-1.53,2.02-4.05,4.16-6.73,4.16c-2.63-0.01-4.91-2.11-4.63-4.83c0.39-3.78,6.39-7.08,9.71-7.79
			c0.18-0.04,2.06-0.22,3.43-0.34c-0.79-0.1-1.61-0.21-2.37-0.29c-2.86-0.3-5.49-0.39-7.83-0.46c-1.33-0.03-2.53-0.02-3.65-0.01
			c-0.87,1.01-4.41,5.06-6.76,6.17c-2.29,1.08-5.51,1.83-7.89,0.59c-2.33-1.22-3.38-4.14-1.88-6.42c2.09-3.17,8.94-3.34,12.21-2.44
			c0.28,0.08,4.56,1.81,4.51,1.87c0,0-0.04,0.05-0.05,0.06c1.08-0.04,2.24-0.06,3.51-0.06c2.34,0.01,4.98,0.05,7.86,0.29
			c2.87,0.23,5.99,0.56,9.24,1.2c3.26,0.64,6.65,1.48,10.04,2.8c0.04,0.01,0.08,0.04,0.11,0.05c-0.87-0.69-3.24-2.71-3.41-2.89
			c-2.32-2.48-5.34-8.62-3.5-11.95c1.33-2.39,4.41-2.81,6.56-1.31c2.2,1.53,3.03,4.73,3.13,7.26c0.11,2.86-2.23,8.59-2.42,9.05
			c3.21,1.28,6.41,2.86,9.55,4.64c1.8,1.01,3.58,2.09,5.35,3.19c-0.73-0.62-1.39-1.19-1.47-1.27c-2.32-2.48-5.34-8.62-3.5-11.95
			c1.33-2.39,4.41-2.81,6.56-1.31c2.2,1.53,3.03,4.73,3.13,7.26c0.1,2.57-1.8,7.5-2.32,8.8c0.67,0.43,1.35,0.85,2.03,1.28
			c3.23,2.07,6.45,4.16,9.66,6.11c1.13,0.69,2.27,1.32,3.41,1.96c-0.65-0.55-1.19-1.03-1.27-1.11c-2.32-2.48-5.34-8.63-3.5-11.95
			c1.33-2.39,4.41-2.81,6.56-1.31c2.2,1.53,3.03,4.73,3.13,7.26c0.1,2.45-1.61,7.02-2.22,8.56c1.19,0.62,2.37,1.24,3.55,1.79
			c0.81,0.35,1.57,0.75,2.41,1.06c0.82,0.33,1.63,0.65,2.44,0.97c1.57,0.56,3.19,1.14,4.74,1.65c1.07,0.36,2.11,0.68,3.14,1.01
			c-1.14-0.67-3.33-2.03-3.5-2.16c-1.77-1.39-4.09-4.34-5.06-7.21c-0.26-0.2-0.51-0.43-0.73-0.68c-1.74-1.97-1.67-5.08,0.56-6.67
			c3.09-2.21,9.54,0.09,12.27,2.11c0.16,0.12,1.76,1.61,2.75,2.56c-0.5-0.65-0.99-1.28-1.49-1.95c-1.01-1.33-1.97-2.69-3.02-4.14
			c-0.48-0.72-0.96-1.45-1.45-2.18c-0.5-0.72-0.94-1.54-1.42-2.32c-1.07-1.82-2.07-3.72-3.03-5.66c-1.17,0.88-5.36,3.94-7.84,4.52
			c-2.47,0.57-5.77,0.61-7.83-1.11c-2.01-1.69-2.42-4.76-0.46-6.67c2.72-2.65,9.45-1.35,12.45,0.23c0.19,0.1,2.21,1.48,3.31,2.26
			c-0.57-1.17-1.14-2.33-1.68-3.53c-1.55-3.47-3.01-7.02-4.48-10.56c-0.45-1.08-0.91-2.16-1.37-3.24c-0.41,0.32-5.31,4.07-8.09,4.71
			c-2.47,0.57-5.77,0.61-7.83-1.11c-2.01-1.68-2.42-4.76-0.46-6.67c2.72-2.65,9.45-1.35,12.45,0.23c0.23,0.12,3.14,2.11,3.85,2.65
			c-1.01-2.37-2.04-4.73-3.15-7.01c-1.52-3.15-3.19-6.16-5.03-8.95c-0.19,0.15-5.29,4.08-8.13,4.74c-2.47,0.57-5.77,0.61-7.83-1.11
			c-2.01-1.68-2.42-4.76-0.46-6.67c2.72-2.65,9.45-1.35,12.45,0.23c0.24,0.12,3.37,2.27,3.9,2.69c-0.11-0.17-0.2-0.35-0.31-0.51
			c-2-2.96-4.3-5.57-6.58-7.92c-1.32-1.36-2.66-2.59-3.99-3.76c-0.87,0.83-4.91,4.58-7.41,5.46c-2.39,0.84-5.67,1.24-7.9-0.25
			c-2.19-1.45-2.93-4.47-1.19-6.58c2.41-2.94,9.24-2.38,12.4-1.14c0.17,0.07,1.84,0.95,3.05,1.61c-0.61-0.52-1.23-1.06-1.82-1.55
			c-2.22-1.82-4.36-3.36-6.28-4.7c-1.09-0.76-2.1-1.42-3.04-2.02c-1.28,0.37-6.47,1.78-9.04,1.42c-2.51-0.36-5.6-1.51-6.9-3.86
			c-1.27-2.3-0.54-5.32,1.98-6.39c3.49-1.49,9.3,2.14,11.53,4.7c0.19,0.22,2.8,4.03,2.74,4.05c0,0-0.06,0.02-0.08,0.02
			c0.92,0.57,1.9,1.19,2.96,1.88c1.94,1.3,4.13,2.79,6.4,4.58c2.27,1.78,4.69,3.77,7.05,6.1c2.36,2.33,4.73,4.9,6.83,7.87
			c0.02,0.03,0.04,0.07,0.07,0.11c-0.34-1.06-1.21-4.05-1.25-4.29c-0.57-3.34,0.3-10.14,3.67-11.89c2.43-1.26,5.23,0.09,6.2,2.53
			c0.99,2.49-0.08,5.62-1.39,7.78c-1.48,2.44-6.6,5.94-7.01,6.21c1.97,2.84,3.77,5.92,5.41,9.14c0.94,1.84,1.83,3.72,2.7,5.61
			c-0.27-0.92-0.5-1.75-0.52-1.87c-0.57-3.35,0.3-10.14,3.67-11.89c2.43-1.26,5.22,0.09,6.19,2.53c0.99,2.49-0.08,5.62-1.39,7.78
			c-1.33,2.2-5.64,5.26-6.79,6.06c0.33,0.73,0.66,1.46,0.98,2.19c1.55,3.51,3.08,7.02,4.69,10.42c0.57,1.2,1.17,2.36,1.77,3.52
			c-0.24-0.82-0.43-1.52-0.45-1.62c-0.57-3.34,0.3-10.14,3.67-11.89c2.43-1.26,5.22,0.09,6.19,2.53c0.99,2.49-0.08,5.62-1.39,7.78
			c-1.27,2.1-5.22,4.96-6.58,5.92c0.65,1.17,1.3,2.35,1.98,3.45c0.48,0.74,0.89,1.5,1.42,2.22c0.51,0.73,1.01,1.44,1.5,2.15
			c1,1.33,2.03,2.71,3.05,3.99c0.7,0.89,1.38,1.73,2.06,2.58c-0.58-1.19-1.66-3.53-1.73-3.74c-1.07-3.22-1.24-10.07,1.83-12.31
			c2.21-1.62,5.18-0.71,6.51,1.56c1.36,2.31,0.77,5.56-0.2,7.9c-1.07,2.58-5.4,6.66-5.95,7.17
			C164.13,356.11,165.25,357.46,166.33,358.71z"/>
		<path d="M86.15,336.24c-0.01,0.07-4.19-1.88-4.44-2.04c-2.89-1.78-7.43-6.91-6.53-10.6c0.65-2.66,3.51-3.87,5.98-3
			c2.53,0.9,4.17,3.76,4.94,6.18C87,329.62,86.15,336.23,86.15,336.24z"/>
	</g>
	<g class="st2">
		<path d="M371.91,283.27c0.82,2.86,5.17,7.91,5.18,7.91c0.05,0.05,2.46-3.88,2.58-4.15c1.43-3.08,2.39-9.86-0.4-12.44
			c-2.01-1.86-5.06-1.3-6.64,0.8C371.01,277.54,371.21,280.83,371.91,283.27z"/>
		<path d="M333.51,358.71c-0.1,0.12-0.2,0.23-0.3,0.34l0.82,2.56c0.39-0.47,0.79-0.96,1.2-1.46c1.16-1.41,2.37-2.95,3.6-4.53
			c0.42,0.23,2.81,1.53,5.19,2.45c-0.39,2.84,0.88,8.25,1.05,8.95c-1.72,0.54-3.39,1.04-4.98,1.5c-1.09,0.31-2.15,0.61-3.16,0.88
			l1.6,1.95c0.72-0.21,1.45-0.43,2.2-0.67c1.75-0.54,3.6-1.15,5.5-1.79c0.34,0.65,3.14,5.91,5.35,7.62c2,1.55,4.99,2.97,7.58,2.27
			c2.53-0.69,4.19-3.31,3.21-5.87c-1.36-3.55-8.01-5.19-11.4-5c-0.2,0.01-2.36,0.37-3.71,0.62c0.77-0.27,1.53-0.52,2.32-0.8
			c1.57-0.55,3.13-1.15,4.8-1.79c0.8-0.34,1.6-0.68,2.42-1.02c0.81-0.32,1.63-0.77,2.46-1.15c1.9-0.93,3.78-1.97,5.64-3.05
			c0.49,1.38,2.29,6.24,4.04,8.09c1.75,1.84,4.48,3.69,7.14,3.39c2.61-0.29,4.65-2.64,4.07-5.31c-0.81-3.71-7.13-6.34-10.51-6.67
			c-0.21-0.02-2.66,0.01-4,0.06c1.12-0.66,2.24-1.32,3.35-2.02c3.2-2.04,6.38-4.2,9.56-6.34c0.97-0.66,1.95-1.3,2.93-1.95
			c0.17,0.49,2.19,6.32,4.15,8.39c1.74,1.84,4.48,3.69,7.14,3.39c2.61-0.29,4.65-2.64,4.07-5.31c-0.8-3.71-7.13-6.34-10.51-6.67
			c-0.25-0.02-3.78,0.03-4.67,0.09c2.15-1.42,4.31-2.82,6.49-4.11c3.01-1.79,6.06-3.37,9.13-4.69c0.08,0.23,2.16,6.32,4.17,8.44
			c1.75,1.84,4.48,3.69,7.14,3.39c2.61-0.29,4.65-2.64,4.07-5.31c-0.8-3.71-7.13-6.34-10.51-6.67c-0.26-0.03-4.06,0.03-4.74,0.09
			c0.18-0.08,0.36-0.18,0.55-0.25c3.3-1.37,6.66-2.28,9.85-2.97c1.85-0.41,3.65-0.7,5.4-0.94c0.27,1.18,1.57,6.53,3.17,8.64
			c1.53,2.02,4.05,4.16,6.73,4.16c2.63-0.01,4.91-2.11,4.63-4.83c-0.39-3.78-6.39-7.08-9.71-7.79c-0.18-0.04-2.06-0.22-3.43-0.34
			c0.79-0.1,1.61-0.21,2.37-0.29c2.86-0.3,5.49-0.39,7.83-0.46c1.33-0.03,2.53-0.02,3.65-0.01c0.87,1.01,4.41,5.06,6.76,6.17
			c2.29,1.08,5.51,1.83,7.89,0.59c2.33-1.22,3.38-4.14,1.88-6.42c-2.09-3.17-8.94-3.34-12.21-2.44c-0.28,0.08-4.56,1.81-4.52,1.87
			c0,0,0.04,0.05,0.05,0.06c-1.08-0.04-2.24-0.06-3.51-0.06c-2.34,0.01-4.98,0.05-7.86,0.29c-2.87,0.23-5.99,0.56-9.24,1.2
			c-3.26,0.64-6.65,1.48-10.04,2.8c-0.04,0.01-0.08,0.04-0.11,0.05c0.87-0.69,3.24-2.71,3.41-2.89c2.32-2.48,5.34-8.62,3.5-11.95
			c-1.33-2.39-4.41-2.81-6.56-1.31c-2.2,1.53-3.03,4.73-3.13,7.26c-0.11,2.86,2.23,8.59,2.42,9.05c-3.21,1.28-6.41,2.86-9.55,4.64
			c-1.8,1.01-3.58,2.09-5.35,3.19c0.73-0.62,1.39-1.19,1.47-1.27c2.32-2.48,5.34-8.62,3.5-11.95c-1.33-2.39-4.41-2.81-6.56-1.31
			c-2.2,1.53-3.03,4.73-3.13,7.26c-0.1,2.57,1.8,7.5,2.32,8.8c-0.67,0.43-1.35,0.85-2.03,1.28c-3.23,2.07-6.45,4.16-9.66,6.11
			c-1.13,0.69-2.27,1.32-3.41,1.96c0.65-0.55,1.19-1.03,1.27-1.11c2.32-2.48,5.34-8.63,3.5-11.95c-1.33-2.39-4.41-2.81-6.56-1.31
			c-2.2,1.53-3.03,4.73-3.13,7.26c-0.1,2.45,1.61,7.02,2.22,8.56c-1.19,0.62-2.37,1.24-3.55,1.79c-0.81,0.35-1.57,0.75-2.41,1.06
			c-0.82,0.33-1.63,0.65-2.44,0.97c-1.57,0.56-3.19,1.14-4.74,1.65c-1.07,0.36-2.11,0.68-3.14,1.01c1.14-0.67,3.33-2.03,3.5-2.16
			c1.77-1.39,4.09-4.34,5.06-7.21c0.26-0.2,0.51-0.43,0.73-0.68c1.74-1.97,1.67-5.08-0.56-6.67c-3.09-2.21-9.54,0.09-12.27,2.11
			c-0.16,0.12-1.76,1.61-2.75,2.56c0.5-0.65,0.99-1.28,1.49-1.95c1.01-1.33,1.97-2.69,3.02-4.14c0.48-0.72,0.96-1.45,1.45-2.18
			c0.5-0.72,0.94-1.54,1.42-2.32c1.07-1.82,2.07-3.72,3.02-5.66c1.17,0.88,5.36,3.94,7.84,4.52c2.47,0.57,5.77,0.61,7.83-1.11
			c2.01-1.69,2.42-4.76,0.46-6.67c-2.72-2.65-9.45-1.35-12.45,0.23c-0.19,0.1-2.21,1.48-3.31,2.26c0.57-1.17,1.14-2.33,1.68-3.53
			c1.55-3.47,3.01-7.02,4.48-10.56c0.45-1.08,0.91-2.16,1.37-3.24c0.41,0.32,5.31,4.07,8.09,4.71c2.47,0.57,5.77,0.61,7.83-1.11
			c2.01-1.68,2.42-4.76,0.46-6.67c-2.72-2.65-9.45-1.35-12.45,0.23c-0.23,0.12-3.14,2.11-3.85,2.65c1.01-2.37,2.04-4.73,3.15-7.01
			c1.52-3.15,3.19-6.16,5.03-8.95c0.19,0.15,5.29,4.08,8.13,4.74c2.47,0.57,5.77,0.61,7.83-1.11c2.01-1.68,2.42-4.76,0.46-6.67
			c-2.72-2.65-9.45-1.35-12.45,0.23c-0.24,0.12-3.37,2.27-3.9,2.69c0.11-0.17,0.2-0.35,0.31-0.51c2-2.96,4.3-5.57,6.58-7.92
			c1.32-1.36,2.66-2.59,3.99-3.76c0.87,0.83,4.91,4.58,7.41,5.46c2.39,0.84,5.67,1.24,7.9-0.25c2.19-1.45,2.93-4.47,1.19-6.58
			c-2.41-2.94-9.24-2.38-12.4-1.14c-0.17,0.07-1.84,0.95-3.05,1.61c0.61-0.52,1.23-1.06,1.82-1.55c2.22-1.82,4.36-3.36,6.28-4.7
			c1.09-0.76,2.1-1.42,3.04-2.02c1.28,0.37,6.47,1.78,9.04,1.42c2.51-0.36,5.6-1.51,6.9-3.86c1.27-2.3,0.54-5.32-1.98-6.39
			c-3.49-1.49-9.3,2.14-11.53,4.7c-0.19,0.22-2.8,4.03-2.74,4.05c0,0,0.06,0.02,0.08,0.02c-0.92,0.57-1.9,1.19-2.96,1.88
			c-1.94,1.3-4.13,2.79-6.4,4.58c-2.27,1.78-4.69,3.77-7.05,6.1c-2.36,2.33-4.73,4.9-6.83,7.87c-0.02,0.03-0.04,0.07-0.07,0.11
			c0.34-1.06,1.21-4.05,1.25-4.29c0.57-3.34-0.3-10.14-3.67-11.89c-2.43-1.26-5.23,0.09-6.2,2.53c-0.99,2.49,0.08,5.62,1.39,7.78
			c1.48,2.44,6.6,5.94,7.01,6.21c-1.97,2.84-3.77,5.92-5.41,9.14c-0.94,1.84-1.83,3.72-2.7,5.61c0.27-0.92,0.5-1.75,0.52-1.87
			c0.57-3.35-0.3-10.14-3.67-11.89c-2.43-1.26-5.22,0.09-6.19,2.53c-0.99,2.49,0.08,5.62,1.39,7.78c1.33,2.2,5.64,5.26,6.79,6.06
			c-0.33,0.73-0.66,1.46-0.98,2.19c-1.55,3.51-3.08,7.02-4.69,10.42c-0.57,1.2-1.17,2.36-1.77,3.52c0.24-0.82,0.43-1.52,0.45-1.62
			c0.57-3.34-0.3-10.14-3.67-11.89c-2.43-1.26-5.22,0.09-6.2,2.53c-0.99,2.49,0.08,5.62,1.39,7.78c1.27,2.1,5.22,4.96,6.58,5.92
			c-0.65,1.17-1.3,2.35-1.98,3.45c-0.48,0.74-0.89,1.5-1.42,2.22c-0.51,0.73-1.01,1.44-1.5,2.15c-1,1.33-2.03,2.71-3.05,3.99
			c-0.7,0.89-1.38,1.73-2.06,2.58c0.58-1.19,1.66-3.53,1.73-3.74c1.07-3.22,1.24-10.07-1.83-12.31c-2.21-1.62-5.18-0.71-6.51,1.56
			c-1.36,2.31-0.77,5.56,0.2,7.9c1.07,2.58,5.4,6.66,5.95,7.17C335.71,356.11,334.59,357.46,333.51,358.71z"/>
		<path d="M413.69,336.24c0.01,0.07,4.19-1.88,4.44-2.04c2.89-1.78,7.43-6.91,6.53-10.6c-0.65-2.66-3.51-3.87-5.98-3
			c-2.53,0.9-4.17,3.76-4.94,6.18C412.84,329.62,413.69,336.23,413.69,336.24z"/>
	</g>
</g>
<g id="Money">
	<g>
		<g>
			<g>
				<polygon class="st3" points="327.3,301.02 261.05,273.25 316.94,138.97 383.19,166.74 				"/>
				<path class="st4" d="M369.89,180.45c-4.41-1.85-6.49-6.93-4.64-11.34c0.14-0.34,0.31-0.65,0.48-0.96l-38.04-15.94
					c-0.1,0.34-0.21,0.68-0.35,1.02c-1.85,4.41-6.93,6.49-11.34,4.64c-0.17-0.07-0.32-0.15-0.48-0.23l-42.16,101.54
					c0.17,0.06,0.34,0.11,0.5,0.18c4.41,1.85,6.49,6.93,4.64,11.34c-0.14,0.34-0.31,0.65-0.48,0.96l38.04,15.94
					c0.1-0.34,0.21-0.68,0.35-1.02c1.85-4.41,6.93-6.49,11.34-4.64c0.34,0.14,0.65,0.31,0.96,0.48l42.2-101.62
					C370.56,180.7,370.22,180.59,369.89,180.45z M316.03,233.19c-7.24-3.03-10.64-11.36-7.61-18.59
					c3.03-7.24,11.36-10.64,18.59-7.61c7.24,3.03,10.64,11.36,7.61,18.59C331.59,232.82,323.26,236.22,316.03,233.19z"/>
			</g>
		</g>
		<g>
			<g>
				<polygon class="st3" points="326.43,301.36 263.57,266.59 333.67,139.14 396.53,173.92 				"/>
				<path class="st4" d="M381.82,186.1c-4.19-2.32-5.7-7.59-3.39-11.78c0.18-0.32,0.37-0.62,0.58-0.9l-36.09-19.97
					c-0.13,0.33-0.28,0.66-0.46,0.97c-2.32,4.19-7.59,5.71-11.78,3.39c-0.16-0.09-0.31-0.19-0.46-0.28l-52.91,96.38
					c0.16,0.08,0.32,0.15,0.48,0.24c4.19,2.32,5.71,7.59,3.39,11.78c-0.18,0.32-0.37,0.62-0.58,0.9l36.09,19.97
					c0.13-0.33,0.28-0.66,0.46-0.97c2.32-4.19,7.59-5.7,11.78-3.39c0.32,0.18,0.62,0.37,0.9,0.58l52.95-96.46
					C382.46,186.43,382.14,186.28,381.82,186.1z M322.56,232.71c-6.87-3.8-9.35-12.44-5.55-19.31s12.44-9.35,19.31-5.55
					c6.87,3.8,9.35,12.44,5.55,19.31C338.07,234.02,329.43,236.51,322.56,232.71z"/>
			</g>
		</g>
		<g>
			<g>
				<polygon class="st3" points="325.27,301.66 267.83,258.52 354.89,142 412.33,185.14 				"/>
				<path class="st4" d="M396.08,195.17c-3.83-2.87-4.6-8.31-1.72-12.13c0.22-0.29,0.46-0.56,0.7-0.81l-32.98-24.77
					c-0.18,0.31-0.37,0.61-0.59,0.9c-2.87,3.83-8.31,4.6-12.14,1.72c-0.14-0.11-0.28-0.23-0.41-0.34l-65.74,88.13
					c0.15,0.1,0.3,0.19,0.44,0.3c3.83,2.87,4.6,8.31,1.72,12.13c-0.22,0.29-0.46,0.56-0.7,0.81l32.98,24.77
					c0.18-0.31,0.37-0.61,0.59-0.9c2.87-3.83,8.31-4.6,12.13-1.72c0.29,0.22,0.56,0.46,0.81,0.7l65.79-88.2
					C396.67,195.58,396.37,195.39,396.08,195.17z M330.94,233.13c-6.27-4.71-7.54-13.62-2.83-19.89c4.71-6.27,13.62-7.54,19.89-2.83
					c6.27,4.71,7.54,13.62,2.83,19.89C346.12,236.57,337.22,237.84,330.94,233.13z"/>
			</g>
		</g>
		<g>
			<g>
				<polygon class="st3" points="324.12,301.79 272.96,251.35 374.82,147.52 425.98,197.96 				"/>
				<path class="st4" d="M408.53,205.73c-3.41-3.36-3.45-8.85-0.09-12.26c0.26-0.26,0.53-0.49,0.8-0.71l-29.37-28.96
					c-0.22,0.28-0.45,0.56-0.7,0.81c-3.36,3.41-8.85,3.45-12.26,0.09c-0.13-0.13-0.24-0.26-0.36-0.4l-76.93,78.55
					c0.13,0.12,0.27,0.23,0.4,0.36c3.41,3.36,3.45,8.85,0.09,12.26c-0.26,0.26-0.53,0.49-0.8,0.71l29.37,28.96
					c0.22-0.28,0.45-0.56,0.7-0.81c3.36-3.41,8.85-3.45,12.26-0.09c0.26,0.26,0.49,0.53,0.71,0.8l76.99-78.61
					C409.06,206.21,408.79,205.98,408.53,205.73z M338.91,234.63c-5.59-5.51-5.65-14.5-0.14-20.09c5.51-5.59,14.5-5.65,20.09-0.14
					c5.59,5.51,5.65,14.5,0.14,20.09C353.49,240.08,344.49,240.14,338.91,234.63z"/>
			</g>
		</g>
	</g>
</g>
<g id="Passport">
	<g>
		<path class="st5" d="M259.07,290.54L167.11,349L69.24,194.48l91.96-58.46c3.35-2.13,7.79-1.14,9.92,2.21l90.15,142.39
			C263.41,283.97,262.42,288.41,259.07,290.54z"/>
		<path class="st4" d="M256.48,290.64l-91.96,58.46L66.66,194.58l91.96-58.46c3.35-2.13,7.79-1.14,9.92,2.21l90.15,142.39
			C260.82,284.07,259.83,288.51,256.48,290.64z"/>
		<path class="st5" d="M253.48,292.68l-91.96,58.46L63.65,196.62l91.96-58.46c3.35-2.13,7.79-1.14,9.92,2.21l90.15,142.39
			C257.82,286.11,256.83,290.55,253.48,292.68z"/>
		<g>
			<path class="st6" d="M112.81,215.83l-7.07-11.12l2.76-1.75c0.67-0.42,1.28-0.64,1.83-0.65c0.55-0.01,1.06,0.16,1.54,0.5
				c0.47,0.34,0.92,0.84,1.33,1.49c0.37,0.59,0.59,1.16,0.66,1.72c0.07,0.56-0.03,1.09-0.28,1.58c-0.25,0.49-0.68,0.93-1.29,1.31
				l-1.22,0.78l3.29,5.18L112.81,215.83z M110.37,208.55l0.71-0.45c0.45-0.28,0.77-0.56,0.96-0.82c0.19-0.26,0.26-0.56,0.21-0.88
				c-0.05-0.32-0.22-0.71-0.51-1.17c-0.34-0.53-0.64-0.91-0.89-1.15c-0.26-0.23-0.55-0.33-0.86-0.28c-0.32,0.05-0.74,0.24-1.26,0.57
				l-0.73,0.46L110.37,208.55z"/>
			<path class="st6" d="M118.28,212.35l-4.71-12.62l1.5-0.95l9.44,9.61l-1.47,0.93l-2.29-2.48l-2.27,1.44l1.25,3.14L118.28,212.35z
				 M117.99,207.04l1.85-1.18l-4.12-4.42L117.99,207.04z"/>
			<path class="st6" d="M128.34,206.13c-0.64,0.41-1.26,0.61-1.86,0.6c-0.6,0-1.16-0.18-1.69-0.52c-0.53-0.35-1.01-0.83-1.46-1.44
				l1.14-1.24c0.28,0.38,0.58,0.72,0.91,1.02c0.33,0.3,0.68,0.5,1.05,0.6c0.37,0.09,0.75,0.02,1.14-0.23
				c0.4-0.26,0.64-0.56,0.7-0.92c0.06-0.36-0.04-0.74-0.31-1.16c-0.32-0.5-0.69-0.84-1.12-1c-0.42-0.16-0.91-0.29-1.45-0.38
				l-2.91-0.46c-0.57-0.09-1.06-0.27-1.48-0.54c-0.41-0.27-0.8-0.68-1.15-1.24c-0.52-0.81-0.69-1.59-0.5-2.34
				c0.18-0.75,0.68-1.37,1.48-1.89c0.44-0.28,0.86-0.47,1.27-0.57c0.41-0.1,0.8-0.1,1.17,0c0.38,0.1,0.74,0.28,1.11,0.56
				c0.36,0.28,0.72,0.64,1.07,1.1l-1.09,1.19c-0.26-0.35-0.53-0.65-0.81-0.9c-0.28-0.25-0.58-0.41-0.9-0.47
				c-0.33-0.06-0.68,0.04-1.06,0.28c-0.38,0.24-0.62,0.54-0.7,0.88s0,0.72,0.26,1.12c0.22,0.34,0.45,0.58,0.7,0.73
				c0.25,0.15,0.58,0.25,0.98,0.32l2.93,0.45c0.65,0.1,1.3,0.3,1.95,0.6c0.64,0.3,1.19,0.8,1.63,1.5c0.35,0.55,0.54,1.1,0.56,1.64
				c0.02,0.54-0.1,1.05-0.36,1.51C129.25,205.4,128.86,205.8,128.34,206.13z"/>
			<path class="st6" d="M134.83,202c-0.64,0.41-1.26,0.61-1.86,0.6c-0.6,0-1.16-0.18-1.69-0.52s-1.01-0.83-1.46-1.44l1.14-1.24
				c0.28,0.38,0.58,0.72,0.91,1.02c0.33,0.3,0.68,0.5,1.05,0.6c0.37,0.09,0.75,0.02,1.14-0.23c0.4-0.26,0.64-0.56,0.7-0.92
				c0.06-0.36-0.04-0.74-0.31-1.16c-0.32-0.5-0.69-0.84-1.12-1c-0.42-0.16-0.91-0.29-1.45-0.38l-2.91-0.46
				c-0.57-0.09-1.06-0.27-1.48-0.54c-0.41-0.27-0.8-0.68-1.15-1.24c-0.52-0.81-0.69-1.59-0.5-2.34c0.18-0.75,0.68-1.37,1.48-1.89
				c0.44-0.28,0.86-0.47,1.27-0.57c0.41-0.1,0.8-0.1,1.17,0c0.38,0.1,0.74,0.28,1.11,0.56c0.36,0.28,0.72,0.64,1.07,1.1l-1.09,1.19
				c-0.26-0.35-0.53-0.65-0.81-0.9c-0.28-0.25-0.58-0.41-0.9-0.47c-0.33-0.06-0.68,0.04-1.06,0.28c-0.38,0.24-0.62,0.54-0.7,0.88
				c-0.08,0.34,0,0.72,0.26,1.12c0.22,0.34,0.45,0.58,0.7,0.73c0.25,0.15,0.58,0.25,0.98,0.32l2.93,0.45c0.65,0.1,1.3,0.3,1.95,0.6
				c0.64,0.3,1.19,0.8,1.63,1.5c0.35,0.55,0.54,1.1,0.56,1.64c0.02,0.54-0.1,1.05-0.36,1.51C135.74,201.28,135.35,201.67,134.83,202
				z"/>
			<path class="st6" d="M138.62,199.42l-7.07-11.12l2.76-1.75c0.67-0.42,1.28-0.64,1.83-0.65c0.55-0.01,1.06,0.16,1.54,0.5
				c0.47,0.34,0.92,0.84,1.33,1.49c0.37,0.59,0.59,1.16,0.66,1.72c0.07,0.56-0.03,1.09-0.28,1.58c-0.25,0.49-0.68,0.93-1.29,1.31
				l-1.22,0.78l3.29,5.18L138.62,199.42z M136.18,192.15l0.71-0.45c0.45-0.28,0.77-0.56,0.96-0.82c0.19-0.26,0.26-0.56,0.21-0.88
				c-0.05-0.32-0.22-0.71-0.51-1.17c-0.34-0.53-0.64-0.91-0.89-1.15c-0.26-0.23-0.55-0.33-0.86-0.28c-0.32,0.05-0.74,0.24-1.26,0.57
				l-0.73,0.46L136.18,192.15z"/>
			<path class="st6" d="M148.13,193.55c-0.75,0.48-1.44,0.71-2.08,0.7c-0.63-0.01-1.22-0.22-1.76-0.64c-0.54-0.42-1.04-1-1.51-1.73
				l-2.68-4.21c-0.47-0.73-0.77-1.42-0.9-2.08c-0.14-0.65-0.07-1.26,0.19-1.82c0.27-0.56,0.78-1.08,1.53-1.56
				c0.75-0.48,1.44-0.71,2.06-0.71c0.62,0,1.19,0.21,1.72,0.6c0.53,0.4,1.02,0.96,1.49,1.69l2.69,4.23
				c0.46,0.72,0.76,1.42,0.91,2.08c0.15,0.67,0.09,1.29-0.16,1.86C149.38,192.54,148.88,193.07,148.13,193.55z M147.36,192.33
				c0.41-0.26,0.67-0.54,0.77-0.85c0.1-0.3,0.09-0.63-0.03-0.98c-0.12-0.35-0.31-0.74-0.58-1.15l-3.1-4.87
				c-0.26-0.41-0.52-0.74-0.79-0.99c-0.26-0.25-0.55-0.39-0.86-0.42c-0.31-0.03-0.67,0.09-1.09,0.35c-0.41,0.26-0.67,0.54-0.79,0.84
				c-0.11,0.3-0.11,0.62,0,0.96c0.12,0.34,0.3,0.72,0.57,1.13l3.1,4.87c0.26,0.41,0.53,0.75,0.8,1.01c0.27,0.26,0.56,0.41,0.89,0.44
				C146.58,192.7,146.94,192.59,147.36,192.33z"/>
			<path class="st6" d="M152.61,190.53l-7.07-11.12l2.24-1.42c0.74-0.47,1.42-0.76,2.03-0.87c0.61-0.11,1.17-0.02,1.68,0.26
				c0.51,0.29,0.99,0.78,1.44,1.49c0.27,0.43,0.48,0.85,0.61,1.26c0.13,0.41,0.17,0.8,0.13,1.17c-0.05,0.37-0.2,0.72-0.46,1.03
				l5.12,4.57l-1.5,0.95l-4.77-4.29l-1.21,0.77l3.32,5.22L152.61,190.53z M150.14,183.21l0.59-0.38c0.44-0.28,0.76-0.56,0.97-0.85
				c0.21-0.28,0.29-0.6,0.25-0.95c-0.04-0.35-0.21-0.76-0.51-1.23c-0.41-0.65-0.83-1.04-1.25-1.18c-0.42-0.14-0.98,0.02-1.69,0.47
				l-0.69,0.44L150.14,183.21z"/>
			<path class="st6" d="M160.96,185.22l-6.34-9.97l-1.88,1.2l-0.73-1.15l5.26-3.34l0.73,1.15l-1.83,1.16l6.34,9.97L160.96,185.22z"
				/>
		</g>
		<g>
			
				<ellipse transform="matrix(0.2271 -0.9739 0.9739 0.2271 -111.0613 353.0168)" class="st7" cx="166.88" cy="246.48" rx="34.85" ry="34.85"/>
			
				<ellipse transform="matrix(0.8439 -0.5365 0.5365 0.8439 -106.1829 127.9999)" class="st7" cx="166.88" cy="246.48" rx="14.94" ry="34.85"/>
			<line class="st7" x1="135.72" y1="231.33" x2="166.57" y2="211.72"/>
			<line class="st7" x1="132.25" y1="251.21" x2="186.04" y2="217.01"/>
			<line class="st7" x1="147.89" y1="275.83" x2="201.69" y2="241.63"/>
			<line class="st7" x1="137.4" y1="265.22" x2="196.55" y2="227.63"/>
			<line class="st7" x1="167.65" y1="281.56" x2="198.5" y2="261.95"/>
		</g>
	</g>
</g>
<g id="Earth_Globe">
	<g>
		<g>
			
				<ellipse transform="matrix(0.7071 -0.7071 0.7071 0.7071 -180.709 282.22)" class="st8" cx="250.32" cy="359.25" rx="111.68" ry="111.68"/>
			<g>
				<path class="st9" d="M227.89,462.57c5.94,1.29,12.02,2.08,18.2,2.32"/>
				<path class="st9" d="M214.2,458.6c3.03,1.1,6.11,2.07,9.24,2.9"/>
				<path class="st9" d="M148.63,330.32c-4.67,16.36-5.45,34.07-1.5,51.84c7.81,35.15,32.27,62.29,63.25,74.96"/>
				<path class="st9" d="M162.84,299.91c-3.81,5.62-7.09,11.61-9.76,17.87"/>
			</g>
			<g>
				<defs>
					<polygon id="SVGID_1_" points="235.19,309.64 246.57,312 250.45,316.03 255.51,316.81 257.12,321.61 255.94,324.86 
						252.49,326.44 244.04,325.06 243.81,324.02 247.81,321.23 245.05,316.14 237.49,315.11 233.46,311.66 					"/>
				</defs>
				<defs>
					<path id="SVGID_2_" d="M326.94,414.7l-9.03-1.53l-10.9-1.38l-8.02,1.78l-7.85,0.11l-7.88,3.65l-4.6,1.29l-2.85,0.63l-4.74,4.31
						l-4.72,3.22l-7.96-2.85l0.2-7.65l-4.8-0.83l-5.17,1.15l-1.29-2.16l-0.52-4.77l-2.39-2.19l-3.51,1.32l-0.46,2.82l-4.34,1.24
						l-4.92-3.8l-2.93-5.87l2.27-8.11l7.62-1.15l2.47,1.35l3.11-0.69l3.36-3.19l3.59,0.29l6.44,6.99l1.75-0.66l-1.84-5.84
						l-2.24-2.76l-0.57-5.03l8.65-6.27l-0.83-9.86l3.39-4.28l2.04-6.7l2.47-1.09l5.09-5.2l-0.2-2.13l-4.08,1.18l-1.24-1.9
						l-2.85,0.63l-4.17,2.01l1.32-3.82l8.48-4.6l1.55-2.79l4.89,4.89l2.85,1.81l3.39-1.84l-2.3-3.02l-6.3-2.67l-7.76-5.61
						l-7.45-2.96l-6.44,0.34l-3.79-2.42l-4.37-0.12l-0.29,1.15l1.15,7.62l1.61,2.36l-0.49,8.8l-6.09-2.99l-0.03-3.79l-6.01-1.38
						l-2.96-2.33l-0.14-6.76l6.3-7.1l-0.86-6.32l-2.79,0.89l-2.33-1.93l-1.64-3.71l-1.87,0.14l-0.12,4.37l-2.73,1.15l-3.3-8.77
						l-2.36-0.83l-3.97-0.75l-3.68,2.99l6.27,3.77l2.01,4.17l-10.87-4.92l-8.02-5.55l-2.07-6.87l-7.19-0.58l-4.43,4.51
						c0,0-2.24,2.13-3.42,2.93c-1.18,0.8-5.98,2.41-5.98,2.41l-0.06,4.63l-5.89,1.58l1.15,2.73l9.92-0.57l6.12,4.34l2.01,9.06
						l-1.06,8.65l2.41,8.42l-4.43,14.29l2.64,19.23l4.74,10.35l5.2,7.53l4-0.34l-2.21-3.85l-2.76-2.65l-2.56-5.4l2.21-1.03
						l5.69,8.51l4.43,7.71l1.49,6.73l6.24,4.86l10.23,4.52l14.26,0.63l5,2.96l4.02,3.45l5.29,1.81l6.04,0.29l5.63-1.52
						c0,0,0.32,2.64,0.6,3.94c0.29,1.29-2.36,6.5-2.36,6.5l-1.7,5.81l3.33,5.23l6.21,1.06l9.86,6.5l3.97,0.75l0.86,3.88l0.85,1.71
						c19.85-7.89,36.49-21.12,48.59-37.6l-0.28-1.91l4.17-14.23l-3.88-1.58L326.94,414.7z"/>
				</defs>
				<defs>
					<path id="SVGID_3_" d="M331.15,306.52l-3.94-4.28l-4.89-4.89l-2.76-7.53l4.83-0.26l-0.32-2.64l-3.42,0.49l2.56-1.93l2.7-2.5
						l-0.57-2.59l-4.02-3.45l-1.9-5.42c-25.42-20-59.28-28.85-93.32-21.3c-15.47,3.44-29.47,9.94-41.52,18.71l6.91,2.9l-2.59,5.46
						l-4.69,2.13l1.03,7.1l-1.9,1.24l-1.96,3.42l1.29,4.6l4.51-0.46l-0.83,4.8l4.4-0.98l5.38-11.24l-0.14-4.31l7.13-2.13l1.12-3.51
						l7.33-2.44l-0.2-4.57l5.38-1.47c0,0,3.42-2.93,4.2-3.1c0.78-0.17,4.69,0.32,4.69,0.32l4.57,2.24l5.43-1.21l4.03-3.88l6.07-0.8
						c0,0,1.78,0.69,3.08,0.4c1.29-0.29,4.77-2.96,4.77-2.96l8.54,2.99l3.62,1.64l0.86,3.88l4-0.34l0.78-2.62l3.71,0.81l0.2,2.13
						l-7.3,3.79l5.66,4.72l10.46,3.11l5.03,4.31l5.81-0.75l0.72-2.87l1.96-0.98l-7.88-3.68l-4.25,0.4l3.13-1.78l-4.08-3.71
						l4.34-1.24l6.38,1.84l2.67,5.92l3.59,2.73l3.99,6.99l6.61,2.88l1.9,8.54l6.81,2.56l0.37,2.9l-0.03,3.54l2.59,4.31l1.03,2.21
						l4.57-0.2l1.09-4.86L331.15,306.52z"/>
				</defs>
				<defs>
					<path id="SVGID_4_" d="M328.72,279.71l0.33,1.49l-0.37,4.43l1.58,3.45l3.08,0.4l1.09,4.92l-3.39-0.6l2.33,14.14l-1.84,6.38
						l3.68,6.79l4.05,2.36l3.1,13.97l5.78,10.12l5.46,7.48l6.3,0.23l0.92-5.63l0.7-0.85c-0.44-4.56-1.15-9.15-2.17-13.74
						C354.49,313.21,343.56,294.31,328.72,279.71z"/>
				</defs>
				<defs>
					<polygon id="SVGID_5_" points="268.59,291.37 249.85,287.65 242.4,289.58 241.69,294.9 237.83,292.22 232.43,294.78 
						233.81,303.43 239.21,305.76 241.48,300.1 246.23,303.12 255.8,308.33 259.02,315.48 267.64,322.53 278.11,318.3 
						276.99,314.48 273.68,310.6 270.86,300.36 272.48,295.39 					"/>
				</defs>
				<defs>
					<polygon id="SVGID_6_" points="283.83,293.96 279.72,293.78 276.99,297.38 280.47,304.48 283.83,303.73 					"/>
				</defs>
				<defs>
					<polygon id="SVGID_7_" points="308.99,293.53 299.15,290.82 296.65,288.12 294.76,289.36 297.72,294.13 300.76,300.51 
						304.99,301.2 305.53,300 302.34,296.63 309.65,297.72 					"/>
				</defs>
				<defs>
					<polygon id="SVGID_8_" points="254.18,403.71 253.37,404.98 261.65,405.58 265.56,408.51 270.59,407.94 271.77,404.69 
						265.59,404.98 					"/>
				</defs>
				<defs>
					<polygon id="SVGID_9_" points="278.3,403.51 273.21,406.27 274.44,408.17 281.17,406.68 282,404.32 279.73,405.1 					"/>
				</defs>
				<use xlink:href="#SVGID_1_"  style="overflow:visible;fill:#FFFFFF;"/>
				<use xlink:href="#SVGID_2_"  style="overflow:visible;fill:#FFFFFF;"/>
				<use xlink:href="#SVGID_3_"  style="overflow:visible;fill:#FFFFFF;"/>
				<use xlink:href="#SVGID_4_"  style="overflow:visible;fill:#FFFFFF;"/>
				<use xlink:href="#SVGID_5_"  style="overflow:visible;fill:#FFFFFF;"/>
				<use xlink:href="#SVGID_6_"  style="overflow:visible;fill:#FFFFFF;"/>
				<use xlink:href="#SVGID_7_"  style="overflow:visible;fill:#FFFFFF;"/>
				<use xlink:href="#SVGID_8_"  style="overflow:visible;fill:#FFFFFF;"/>
				<use xlink:href="#SVGID_9_"  style="overflow:visible;fill:#FFFFFF;"/>
				<clipPath id="SVGID_10_">
					<use xlink:href="#SVGID_1_"  style="overflow:visible;"/>
				</clipPath>
				<clipPath id="SVGID_11_" class="st10">
					<use xlink:href="#SVGID_2_"  style="overflow:visible;"/>
				</clipPath>
				<clipPath id="SVGID_12_" class="st11">
					<use xlink:href="#SVGID_3_"  style="overflow:visible;"/>
				</clipPath>
				<clipPath id="SVGID_13_" class="st12">
					<use xlink:href="#SVGID_4_"  style="overflow:visible;"/>
				</clipPath>
				<clipPath id="SVGID_14_" class="st13">
					<use xlink:href="#SVGID_5_"  style="overflow:visible;"/>
				</clipPath>
				<clipPath id="SVGID_15_" class="st14">
					<use xlink:href="#SVGID_6_"  style="overflow:visible;"/>
				</clipPath>
				<clipPath id="SVGID_16_" class="st15">
					<use xlink:href="#SVGID_7_"  style="overflow:visible;"/>
				</clipPath>
				<clipPath id="SVGID_17_" class="st16">
					<use xlink:href="#SVGID_8_"  style="overflow:visible;"/>
				</clipPath>
				<clipPath id="SVGID_18_" class="st17">
					<use xlink:href="#SVGID_9_"  style="overflow:visible;"/>
				</clipPath>
				
					<use xlink:href="#SVGID_1_"  style="overflow:visible;fill:none;stroke:#263238;stroke-linecap:round;stroke-linejoin:round;stroke-miterlimit:10;"/>
				
					<use xlink:href="#SVGID_2_"  style="overflow:visible;fill:none;stroke:#263238;stroke-linecap:round;stroke-linejoin:round;stroke-miterlimit:10;"/>
				
					<use xlink:href="#SVGID_3_"  style="overflow:visible;fill:none;stroke:#263238;stroke-linecap:round;stroke-linejoin:round;stroke-miterlimit:10;"/>
				
					<use xlink:href="#SVGID_4_"  style="overflow:visible;fill:none;stroke:#263238;stroke-linecap:round;stroke-linejoin:round;stroke-miterlimit:10;"/>
				
					<use xlink:href="#SVGID_5_"  style="overflow:visible;fill:none;stroke:#263238;stroke-linecap:round;stroke-linejoin:round;stroke-miterlimit:10;"/>
				
					<use xlink:href="#SVGID_6_"  style="overflow:visible;fill:none;stroke:#263238;stroke-linecap:round;stroke-linejoin:round;stroke-miterlimit:10;"/>
				
					<use xlink:href="#SVGID_7_"  style="overflow:visible;fill:none;stroke:#263238;stroke-linecap:round;stroke-linejoin:round;stroke-miterlimit:10;"/>
				
					<use xlink:href="#SVGID_8_"  style="overflow:visible;fill:none;stroke:#263238;stroke-linecap:round;stroke-linejoin:round;stroke-miterlimit:10;"/>
				
					<use xlink:href="#SVGID_9_"  style="overflow:visible;fill:none;stroke:#263238;stroke-linecap:round;stroke-linejoin:round;stroke-miterlimit:10;"/>
			</g>
		</g>
	</g>
</g>
<g id="Ubication_Icons">
	<g>
		<path class="st18" d="M354.22,283.51c-8.54,0-15.46,6.92-15.46,15.46c0,8.54,15.46,25.77,15.46,25.77s15.46-17.23,15.46-25.77
			C369.69,290.43,362.76,283.51,354.22,283.51z M354.22,305.78c-3.76,0-6.81-3.05-6.81-6.81c0-3.76,3.05-6.81,6.81-6.81
			s6.81,3.05,6.81,6.81C361.03,302.73,357.98,305.78,354.22,305.78z"/>
		<path class="st18" d="M234.25,323.2c-7.45,0-13.49,6.04-13.49,13.49c0,7.45,13.49,22.48,13.49,22.48s13.49-15.03,13.49-22.48
			C247.74,329.24,241.7,323.2,234.25,323.2z M234.25,342.63c-3.28,0-5.94-2.66-5.94-5.94c0-3.28,2.66-5.94,5.94-5.94
			c3.28,0,5.94,2.66,5.94,5.94C240.19,339.97,237.53,342.63,234.25,342.63z"/>
		<path class="st18" d="M285.26,428.4c-3.75,0-6.79,3.04-6.79,6.79s6.79,11.31,6.79,11.31s6.79-7.56,6.79-11.31
			S289,428.4,285.26,428.4z M285.26,438.17c-1.65,0-2.99-1.34-2.99-2.99c0-1.65,1.34-2.99,2.99-2.99c1.65,0,2.99,1.34,2.99,2.99
			C288.24,436.83,286.91,438.17,285.26,438.17z"/>
		<path class="st18" d="M200.88,365.75c-3.75,0-6.79,3.04-6.79,6.79c0,3.75,6.79,11.31,6.79,11.31s6.79-7.56,6.79-11.31
			C207.67,368.79,204.63,365.75,200.88,365.75z M200.88,375.53c-1.65,0-2.99-1.34-2.99-2.99c0-1.65,1.34-2.99,2.99-2.99
			c1.65,0,2.99,1.34,2.99,2.99C203.87,374.19,202.53,375.53,200.88,375.53z"/>
		<path class="st18" d="M224.88,394.31c-3.75,0-6.79,3.04-6.79,6.79c0,3.75,6.79,11.31,6.79,11.31s6.79-7.56,6.79-11.31
			C231.67,397.35,228.63,394.31,224.88,394.31z M224.88,404.09c-1.65,0-2.99-1.34-2.99-2.99c0-1.65,1.34-2.99,2.99-2.99
			c1.65,0,2.99,1.34,2.99,2.99C227.87,402.75,226.53,404.09,224.88,404.09z"/>
		<path class="st18" d="M309.17,407.13c-4.44,0-8.05,3.6-8.05,8.05c0,4.44,8.05,13.41,8.05,13.41s8.04-8.97,8.04-13.41
			C317.21,410.73,313.61,407.13,309.17,407.13z M309.17,418.72c-1.96,0-3.54-1.59-3.54-3.54c0-1.96,1.59-3.54,3.54-3.54
			c1.96,0,3.54,1.59,3.54,3.54C312.71,417.13,311.12,418.72,309.17,418.72z"/>
		<path class="st18" d="M308.58,253.32c-3.95,0-7.15,3.2-7.15,7.15c0,3.95,7.15,11.91,7.15,11.91s7.15-7.96,7.15-11.91
			C315.73,256.52,312.53,253.32,308.58,253.32z M308.58,263.61c-1.74,0-3.15-1.41-3.15-3.15c0-1.74,1.41-3.15,3.15-3.15
			c1.74,0,3.15,1.41,3.15,3.15C311.73,262.2,310.32,263.61,308.58,263.61z"/>
		<path class="st18" d="M186.29,298c-3.95,0-7.15,3.2-7.15,7.15c0,3.95,7.15,11.91,7.15,11.91s7.15-7.96,7.15-11.91
			C193.43,301.19,190.23,298,186.29,298z M186.29,308.29c-1.74,0-3.15-1.41-3.15-3.15s1.41-3.15,3.15-3.15
			c1.74,0,3.15,1.41,3.15,3.15S188.02,308.29,186.29,308.29z"/>
	</g>
</g>
<g id="Character">
	<g>
		<path class="st18" d="M271.06,144.13c0,0-0.62,56.29-0.62,65.6s-0.78,18.3-0.78,18.3s2.79,2.02,2.33,4.34
			c-0.47,2.33-2.17,5.74-2.17,5.74s-2.17-0.47-3.26-0.16c-1.09,0.31-7.6,3.26-8.68,3.26c-1.09,0-1.55,0.93-1.86-2.02
			c-0.31-2.95-0.47-4.96-0.31-7.91s1.09-6.98,1.09-6.98l-6.51-71.18l-1.55,69.32c0,0,0.31,4.19,0.78,4.96
			c0.47,0.78,1.24,2.79,1.24,3.57c0,0.78-1.4,8.06-2.02,8.37c-0.62,0.31-2.48,1.4-2.48,1.4s-1.24-0.31-2.95-2.48
			c-1.71-2.17-5.74-2.02-6.51-1.71c-0.78,0.31-0.78,0.31-0.78,0.31s-2.33-2.79-2.79-4.81c-0.47-2.02,2.64-2.17,2.48-7.6
			c-0.16-5.43-4.81-51.49-4.81-51.49l-1.09-31.02l41.56-1.24L271.06,144.13z"/>
		<path class="st19" d="M254.78,72.17l-16.59,1.09l-0.62,70.87c0,0,1.24,1.09,11.48,1.24c10.24,0.15,12.41-1.09,12.41-1.09
			L254.78,72.17z"/>
		<path class="st19" d="M253.76,37.27c0,0,4.06,5.73,3.99,6.6c-0.07,0.87-0.51,2.54-0.51,2.54s4.42,4.57,3.99,4.93
			c-0.43,0.36-2.46,2.1-2.46,2.1s0.07,4.28,0.07,4.93c0,0.65,0.94,2.32,0.65,2.97c-0.29,0.65-0.87,1.59-1.38,2.03
			c-0.51,0.43-4.2,0.36-4.2,0.36l-0.07,5.87c0,0,0.65,3.7,0.07,5c-0.58,1.3-2.25,2.32-6.45,2.54c-4.2,0.22-6.25-1.21-7.48-2.23
			c-1.23-1.01-1.07-10.39-1.14-11.84c-0.07-1.45-0.14-4.2-0.94-5.44c-0.8-1.23-6.02-10-6.89-12.18c-0.87-2.17-0.94-4.42,0.72-6.38
			c1.67-1.96,3.77-2.83,3.99-3.91c0.22-1.09,0-2.17,1.59-2.68c1.59-0.51,3.55-0.22,3.55-0.22s3.04-3.7,4.64-3.26
			c1.59,0.43,1.59,0.43,1.59,0.43s4.42-1.23,6.74,0.72C256.15,32.13,256.66,35.24,253.76,37.27z"/>
		<path class="st18" d="M254.59,47.52c0,0.93,0.29,1.68,0.64,1.68s0.64-0.75,0.64-1.68s-0.29-1.68-0.64-1.68
			S254.59,46.59,254.59,47.52z"/>
		<path class="st18" d="M235.71,35.17c0.22-1.09,0-2.17,1.59-2.68c1.59-0.51,3.55-0.22,3.55-0.22s3.04-3.7,4.64-3.26
			c1.59,0.43,1.59,0.43,1.59,0.43s4.42-1.23,6.74,0.72c2.32,1.96,2.83,5.07-0.07,7.1c0,0-7.97,0.87-7.03,2.32
			c0.94,1.45,1.45,2.61,0.65,3.04c-0.8,0.43-4.42,2.25-4.06,3.12c0.36,0.87,0.72,3.19,0.22,3.33c-0.51,0.15-0.43-0.14-1.96-1.3
			c-1.52-1.16-3.33-0.29-3.55,2.03c-0.22,2.32,1.67,3.77,2.46,3.91c0.8,0.15,0.36,2.97-1.16,4.06c-0.3,0.22-0.69,0.41-1.12,0.57
			c-0.09-0.27-0.2-0.51-0.33-0.71c-0.8-1.23-6.02-10-6.89-12.18c-0.87-2.17-0.94-4.42,0.72-6.38
			C233.39,37.13,235.49,36.26,235.71,35.17z"/>
		<path class="st20" d="M258.03,55.68c0,0-3.26,0.58-5.15-1.74"/>
		<polygon class="st18" points="253.9,63.73 247.23,61.63 253.76,68.22 		"/>
		<path class="st20" d="M256.15,43.83c0,0-2.35-1.3-3.73,0.65"/>
		<path class="st18" d="M271.61,99.17c0,0,9.05,15.16,9.29,18.1c0.24,2.93-4.77,12.96-6.24,13.33c-1.47,0.37-5.62-4.4-6.11-6.36
			c-0.49-1.96-1.22-24.09-0.37-26.05C269.04,96.23,271.61,99.17,271.61,99.17z"/>
		<path class="st21" d="M256.6,71.97l8.67,0.67c0,0,4.78-1.11,6.23-0.67c1.45,0.44,21.91,8.34,24.13,9.9
			c2.22,1.56,1.89,7.23,1.33,9.56c-0.56,2.34-2.56,2.89-3.56,3c-1,0.11-21.69-1.22-21.69-1.22l5.34,54.16l-11.12,3.67l-7.9,1
			l-3.89-67.51L256.6,71.97z"/>
		<path class="st21" d="M253.76,68.22l2.84,3.74c0,0,0.33,5.67-0.44,8.01c-0.78,2.34-2,4.56-2,4.56l-3.56-8.23
			C250.59,76.3,253.25,72.05,253.76,68.22z"/>
		<path class="st21" d="M240.03,86.65l1.01,65.59c0,0-9.78-1.1-12.96-2.45c-3.18-1.35-5.38-2.57-5.38-2.57s3.18-23.97,3.3-25.92
			c0.12-1.96,0.12-3.55,0.12-3.55s-7.21,2.57-9.9,1.71c-2.69-0.86-3.06-3.67-2.81-7.21c0.24-3.55,0.07-5.29,0.07-5.9
			c0-0.61,0.73-10.75,3.67-18.33c2.93-7.58,1.16-7.81,3.24-9.16c2.08-1.35,17.24-6.73,17.24-6.73l1.71,3.55L240.03,86.65z"/>
		<path class="st18" d="M228.45,75.81c0,0,2.2,25.92-0.37,34.48l-4.04,0.12c0.26,2.96,2.08-2.32,2.57-18.59
			c0.21-6.97-2.93-14.43-2.93-14.43S226.61,76.18,228.45,75.81z"/>
		<path class="st21" d="M239.14,68.63c0,0,1.45,3.67,2.34,5.56c0.89,1.89,1.56,3.11,1.56,3.11l-3,9.34c0,0-2.34-6.45-2.78-10.68
			c-0.44-4.23-0.85-3.58-0.85-3.58S238.36,67.85,239.14,68.63z"/>
		<path class="st19" d="M269.28,56.4c0,0-1.89-0.67-2.56-1.22s-2-2.67-2.45-3.11c-0.44-0.44-2.66,0.33-3.05-0.72
			c-0.4-1.06-0.61-2.13,0.72-1.81c1.33,0.31,3.95,0.42,3.95,0.42l-2.09-6.83l9.59,0.06c0,0,2.78,9.45,2.78,10.23
			c0,0.78-0.44,2.56-0.44,2.56s13.12,14.68,15.9,18.35c2.78,3.67,6.23,8.67,6.56,10.57c0.33,1.89-0.67,7.9-3,8.67
			c-2.34,0.78-4.45-0.11-6.9-2.45c-2.45-2.34-9.79-17.35-10.12-17.91c-0.33-0.56-6.01-14.57-6.34-15.01
			C271.5,57.73,269.28,56.4,269.28,56.4z"/>
		<path class="st18" d="M264.4,72.75c0,0,2.81,18.34,5.87,27.39s5.62,14.8,5.62,14.8l-1.35,7.95c0,0-5.01-8.68-9.17-20.42
			c-4.16-11.74-6.48-30.08-6.48-30.08L264.4,72.75z"/>
		<polygon class="st19" points="239.92,90.33 243.22,119.62 224.4,117.39 219.49,88.2 		"/>
		<polygon class="st19" points="237.5,90.49 243.49,119.34 224.53,118.85 216.95,90.24 		"/>
		<path class="st19" d="M219.15,107.12c0,0,4.04,2.2,6.36,3.06c2.32,0.86,4.28,0.61,6.11-0.24c1.83-0.86,2.81-2.08,2.81-2.08
			s0.61-3.3,1.35-3.79c0.73-0.49,2.45-0.86,3.18-1.96c0.73-1.1,1.1-0.98,1.35,0.12c0.24,1.1,0.49,2.32-0.24,2.81
			s-0.86,1.22-0.86,1.22s0.12,0.86,1.1,0.49c0.98-0.37,1.59-1.59,2.57-1.22c0.98,0.37,1.35,1.1,0.98,1.96
			c-0.37,0.86-0.98,1.71-0.98,1.71s1.22,2.81,0.61,4.65c-0.61,1.83-3.67,2.93-5.14,3.06c-1.47,0.12-5.62,0.24-5.62,0.24
			s-5.99,1.96-9.66,3.06c-3.67,1.1-4.77,0.86-6.85-0.73c-2.08-1.59-3.06-4.28-2.2-7.21C214.87,109.32,215.85,107.73,219.15,107.12z"
			/>
		<g>
			<path class="st19" d="M268.89,235.79c0,0,2.02,4.81,2.48,5.74c0.47,0.93,1.86,2.64,4.19,4.03c2.33,1.4,5.12,2.33,4.5,3.57
				c-0.62,1.24-3.41,1.55-5.74,1.86c-2.33,0.31-7.75-0.62-9.93-0.62c-2.17,0-6.98-0.78-7.44-1.86c-0.47-1.09,0.15-8.84,0.15-8.84
				S260.67,235.63,268.89,235.79z"/>
			<path class="st19" d="M256.95,248.5c-0.15-0.34-0.18-1.33-0.17-2.54l5.59,1.66c0,0,5.85,1.49,10.43,1.7
				c3.37,0.16,5.98-0.67,7.13-1.11c0.23,0.29,0.3,0.59,0.14,0.91c-0.62,1.24-3.41,1.55-5.74,1.86s-7.75-0.62-9.93-0.62
				C262.22,250.36,257.42,249.59,256.95,248.5z"/>
		</g>
		<g>
			<path class="st19" d="M246.73,240.04c0,0-0.45,8.03-0.57,8.58c-0.11,0.54-0.68,0.98-2.26,1.19c-1.58,0.22-2.26,0.11-3.17,0.54
				c-0.91,0.43-2.83,1.41-8.26,1.41c-5.43,0-7.13-0.98-6.45-2.93s5.88-5.75,7.13-7.27c1.24-1.52,2.64-4.78,2.64-4.78
				s1.55-1.3,4.6-0.65c3.06,0.65,3.85,1.85,4.19,2.39C244.92,239.07,246.73,240.04,246.73,240.04z"/>
			<path class="st19" d="M226.02,248.84c0.04-0.12,0.1-0.24,0.17-0.37c0.4,0.43,0.99,0.93,1.87,1.35
				c2.04,0.98,10.07,0.43,11.88-0.54c1.54-0.83,5.28-1.97,6.37-2.3c-0.06,0.87-0.11,1.51-0.14,1.65c-0.11,0.54-0.68,0.98-2.26,1.19
				c-1.58,0.22-2.26,0.11-3.17,0.54c-0.91,0.43-2.83,1.41-8.26,1.41C227.03,251.77,225.34,250.79,226.02,248.84z"/>
		</g>
		<g>
			<path class="st19" d="M261.3,44.64l7.4-0.49v5.79l-7.4-0.49c-0.35,0-0.64-1.08-0.64-2.41C260.66,45.72,260.95,44.64,261.3,44.64z
				"/>
			<path class="st19" d="M259.27,44.06h2.33c0.27,0,0.45,0.26,0.35,0.51c-0.21,0.54-0.35,1.44-0.35,2.47c0,1.03,0.14,1.94,0.35,2.47
				c0.1,0.25-0.08,0.51-0.35,0.51h-2.33c-0.44,0-0.79-1.34-0.79-2.98C258.47,45.4,258.83,44.06,259.27,44.06z"/>
			<path class="st19" d="M266.61,43.11l16.07-0.8v9.48l-16.07-0.8c-0.58,0-1.05-1.76-1.05-3.94
				C265.57,44.87,266.04,43.11,266.61,43.11z"/>
			<path class="st19" d="M281.42,47.05c0,2.62,0.56,4.74,1.26,4.74c0.69,0,1.26-2.12,1.26-4.74s-0.56-4.74-1.26-4.74
				C281.99,42.31,281.42,44.43,281.42,47.05z"/>
		</g>
		<g>
			<path class="st18" d="M258.49,44.64l7.4-0.49v5.79l-7.4-0.49c-0.35,0-0.64-1.08-0.64-2.41
				C257.85,45.72,258.14,44.64,258.49,44.64z"/>
			<path class="st19" d="M256.46,44.06h2.33c0.26,0,0.45,0.26,0.35,0.51c-0.21,0.54-0.35,1.44-0.35,2.47c0,1.03,0.14,1.94,0.35,2.47
				c0.1,0.25-0.08,0.51-0.35,0.51h-2.33c-0.44,0-0.79-1.34-0.79-2.98C255.66,45.4,256.02,44.06,256.46,44.06z"/>
			<path class="st18" d="M263.8,43.11l16.07-0.8v9.48l-16.07-0.8c-0.58,0-1.05-1.76-1.05-3.94
				C262.76,44.87,263.23,43.11,263.8,43.11z"/>
			<path class="st19" d="M278.61,47.05c0,2.62,0.56,4.74,1.26,4.74c0.69,0,1.26-2.12,1.26-4.74s-0.56-4.74-1.26-4.74
				C279.18,42.31,278.61,44.43,278.61,47.05z"/>
		</g>
		<g>
			<path class="st19" d="M273.12,42.54c0,0-2.07-2.22-2.84-2.22c-0.77,0-1.99,1.99-2.22,2.22c-0.23,0.23-0.08,0.61,0.77,0.69
				c0.84,0.08,1.76-0.61,1.76-0.61L273.12,42.54z"/>
			<path class="st19" d="M270.28,40.31c0,0-2.61-0.61-3.22-0.46c-0.61,0.15-1.76,2.76-1.53,3.15c0.23,0.38,2.53-0.46,2.53-0.46
				S269.59,40.23,270.28,40.31z"/>
			<path class="st19" d="M266.52,40.08c0,0-1.23-0.77-1.84-0.23c-0.61,0.54-1.92,2.38-1.61,3.07c0.31,0.69,2.45,0.08,2.45,0.08
				S265.98,40.31,266.52,40.08z"/>
			<path class="st19" d="M264.07,40.31c0,0-1.53-0.61-2.07,0c-0.54,0.61-1.92,2.53-1,2.99s1.84-0.92,1.84-0.92L264.07,40.31z"/>
		</g>
	</g>
</g>
</svg>
