<?xml version="1.0" encoding="utf-8"?>
<!-- Generator: Adobe Illustrator 25.0.0, SVG Export Plug-In . SVG Version: 6.00 Build 0)  -->
<svg version="1.1" xmlns="http://www.w3.org/2000/svg" xmlns:xlink="http://www.w3.org/1999/xlink" x="0px" y="0px"
	 viewBox="0 0 500 500" style="enable-background:new 0 0 500 500;" xml:space="preserve">
<style type="text/css">
	.st0{fill:#E0E0E0;}
	.st1{fill:#F5F5F5;}
	.st2{fill:#EBEBEB;}
	.st3{display:none;}
	.st4{display:inline;}
	.st5{fill:#263238;}
	.st6{fill:#FAFAFA;}
	.st7{opacity:0.6;}
	.st8{fill:#455A64;}
	.st9{fill:#4096DF;}
	.st10{fill:#FFFFFF;}
	.st11{opacity:0.1;}
	.st12{fill:#4893D1;}
	.st13{fill:#717D88;}
	.st14{display:none;opacity:0.7;}
	.st15{opacity:0.3;}
	.st16{fill:#4A93D0;}
	.st17{fill:#4993D1;}
	.st18{fill:#114E60;}
	.st19{fill:#8CA1A5;}
	.st20{fill:#FFBF9D;}
	.st21{fill:#FF9A6C;}
</style>
<g id="Background_Complete">
	<g>
		<g>
			<g>
				<g>
					<g>
						<g>
							<path class="st0" d="M65.71,281.13c23.55-12.7,46.95-5.55,46.95-5.55C95.91,290.82,65.71,281.13,65.71,281.13z"/>
						</g>
					</g>
				</g>
			</g>
		</g>
		<g>
			<g>
				<g>
					<g>
						<g>
							<path class="st0" d="M140.18,258.12c4.63,15.75-2.75,29.76-2.75,29.76C130.38,276.16,140.18,258.12,140.18,258.12z"/>
						</g>
					</g>
				</g>
			</g>
		</g>
		<g>
			<g>
				<g>
					<g>
						<g>
							<path class="st0" d="M137.58,295.3c-17.5,9.09-35.68,3.72-35.68,3.72C114.1,288.03,137.58,295.3,137.58,295.3z"/>
						</g>
					</g>
				</g>
			</g>
		</g>
		<g>
			<g>
				<g>
					<g>
						<g>
							<g>
								<path class="st0" d="M100.85,261.42c0.23-0.29,11.56,8.38,25.31,19.36c13.76,10.98,24.72,20.11,24.49,20.39
									c-0.23,0.29-11.56-8.38-25.32-19.36C111.59,270.84,100.62,261.7,100.85,261.42z"/>
							</g>
						</g>
					</g>
				</g>
			</g>
		</g>
		<g>
			<g>
				<g>
					<g>
						<g>
							<path class="st0" d="M64.43,239.58c0,0,30.48,1.63,41.6,26.53C106.03,266.11,80.01,265.07,64.43,239.58z"/>
						</g>
					</g>
				</g>
			</g>
		</g>
		<g>
			<g>
				<g>
					<g>
						<g>
							<path class="st0" d="M106.88,230.39c0,0,23.49,19.48,17.59,46.1C124.47,276.49,104.2,260.15,106.88,230.39z"/>
						</g>
					</g>
				</g>
			</g>
		</g>
	</g>
	<g>
		<g>
			<g>
				<g>
					<g>
						<g>
							<path class="st0" d="M458.88,211.69c-27.67-5.53-49.05,8.91-49.05,8.91C431.41,230.78,458.88,211.69,458.88,211.69z"/>
						</g>
					</g>
				</g>
			</g>
		</g>
		<g>
			<g>
				<g>
					<g>
						<g>
							<path class="st0" d="M376.68,211.48c0.19,17.31,11.96,29.16,11.96,29.16C392.13,226.64,376.68,211.48,376.68,211.48z"/>
						</g>
					</g>
				</g>
			</g>
		</g>
		<g>
			<g>
				<g>
					<g>
						<g>
							<path class="st0" d="M390.78,248.17c20.45,3.76,37.12-7.27,37.12-7.27C412.21,233.59,390.78,248.17,390.78,248.17z"/>
						</g>
					</g>
				</g>
			</g>
		</g>
		<g>
			<g>
				<g>
					<g>
						<g>
							<g>
								<path class="st0" d="M417.35,202.66c-0.32-0.22-9.07,12.02-19.55,27.33c-10.48,15.32-18.71,27.91-18.4,28.13
									c0.32,0.22,9.07-12.02,19.55-27.34C409.43,215.47,417.67,202.88,417.35,202.66z"/>
							</g>
						</g>
					</g>
				</g>
			</g>
		</g>
		<g>
			<g>
				<g>
					<g>
						<g>
							<path class="st0" d="M447.33,169.39c0,0-30.22,11.06-33.76,39.6C413.57,208.99,439.49,199.91,447.33,169.39z"/>
						</g>
					</g>
				</g>
			</g>
		</g>
		<g>
			<g>
				<g>
					<g>
						<g>
							<path class="st0" d="M401.69,173.24c0,0-17.67,26.9-3.5,51.92C398.18,225.15,413.58,202.41,401.69,173.24z"/>
						</g>
					</g>
				</g>
			</g>
		</g>
	</g>
	<g>
		<g>
			<g>
				<g>
					<g>
						<g>
							<path class="st0" d="M390.39,76.02c-19.41-3.88-34.42,6.25-34.42,6.25C371.12,89.42,390.39,76.02,390.39,76.02z"/>
						</g>
					</g>
				</g>
			</g>
		</g>
		<g>
			<g>
				<g>
					<g>
						<g>
							<path class="st0" d="M332.72,75.87c0.14,12.15,8.39,20.46,8.39,20.46C343.56,86.51,332.72,75.87,332.72,75.87z"/>
						</g>
					</g>
				</g>
			</g>
		</g>
		<g>
			<g>
				<g>
					<g>
						<g>
							<path class="st0" d="M342.61,101.61c14.35,2.64,26.05-5.1,26.05-5.1C357.65,91.38,342.61,101.61,342.61,101.61z"/>
						</g>
					</g>
				</g>
			</g>
		</g>
		<g>
			<g>
				<g>
					<g>
						<g>
							<g>
								<path class="st0" d="M361.26,69.68c-0.22-0.15-6.36,8.43-13.72,19.18c-7.35,10.75-13.13,19.58-12.91,19.73
									c0.22,0.15,6.36-8.43,13.72-19.18C355.7,78.67,361.48,69.84,361.26,69.68z"/>
							</g>
						</g>
					</g>
				</g>
			</g>
		</g>
		<g>
			<g>
				<g>
					<g>
						<g>
							<path class="st0" d="M382.29,46.34c0,0-21.21,7.76-23.69,27.78C358.61,74.12,376.79,67.75,382.29,46.34z"/>
						</g>
					</g>
				</g>
			</g>
		</g>
		<g>
			<g>
				<g>
					<g>
						<g>
							<path class="st0" d="M350.27,49.04c0,0-12.4,18.87-2.46,36.43C347.81,85.47,358.61,69.51,350.27,49.04z"/>
						</g>
					</g>
				</g>
			</g>
		</g>
	</g>
	<g>
		<g>
			<g>
				<g>
					<g>
						<g>
							<g>
								<g>
									<g>
										
											<rect x="58.37" y="171.23" transform="matrix(0.1028 -0.9947 0.9947 0.1028 -125.2471 256.2155)" class="st1" width="42.07" height="52.62"/>
									</g>
								</g>
							</g>
						</g>
					</g>
				</g>
			</g>
		</g>
		<g>
			<g>
				<g>
					<g>
						<g>
							
								<rect x="60.99" y="173.07" transform="matrix(0.1028 -0.9947 0.9947 0.1028 -125.2743 256.1781)" class="st2" width="36.77" height="48.92"/>
						</g>
					</g>
				</g>
			</g>
		</g>
		<g>
			<g>
				<g>
					<g>
						<g>
							<polygon class="st0" points="53.15,213.31 72.5,192.33 81.56,207.64 89.48,200.77 101.81,218.34 							"/>
						</g>
					</g>
				</g>
			</g>
		</g>
		<g>
			<g>
				<g>
					<g>
						<g>
							<g>
								<g>
									<path class="st0" d="M87.78,191.09c-0.22,2.12-2.11,3.65-4.23,3.44c-2.12-0.22-3.65-2.11-3.44-4.23
										c0.22-2.12,2.11-3.65,4.23-3.44C86.46,187.08,88,188.98,87.78,191.09z"/>
								</g>
							</g>
						</g>
					</g>
				</g>
			</g>
		</g>
	</g>
	<g>
		<g>
			<g>
				<g>
					<g>
						<g>
							<g>
								<g>
									<g>
										<g>
											
												<rect x="379.79" y="380.35" transform="matrix(0.1453 -0.9894 0.9894 0.1453 -57.5228 732.111)" class="st1" width="30.38" height="38"/>
										</g>
									</g>
								</g>
							</g>
						</g>
					</g>
				</g>
			</g>
			<g>
				<g>
					<g>
						<g>
							<g>
								
									<rect x="381.68" y="381.68" transform="matrix(0.1453 -0.9894 0.9894 0.1453 -57.5419 732.0815)" class="st2" width="26.55" height="35.33"/>
							</g>
						</g>
					</g>
				</g>
			</g>
			<g>
				<g>
					<g>
						<g>
							<g>
								<polygon class="st0" points="375.55,409.92 390.15,395.38 396.22,406.71 402.15,402 410.5,415.05 								"/>
							</g>
						</g>
					</g>
				</g>
			</g>
			<g>
				<g>
					<g>
						<g>
							<g>
								<g>
									<g>
										<path class="st0" d="M401.22,394.96c-0.22,1.52-1.64,2.57-3.16,2.35c-1.52-0.22-2.57-1.64-2.35-3.16
											c0.22-1.52,1.64-2.57,3.16-2.35C400.39,392.03,401.44,393.44,401.22,394.96z"/>
									</g>
								</g>
							</g>
						</g>
					</g>
				</g>
			</g>
		</g>
	</g>
	<g>
		<g>
			<g>
				<g>
					<g>
						<g>
							<g>
								<g>
									<g>
										<g>
											
												<rect x="70.74" y="342.47" transform="matrix(0.8827 -0.47 0.47 0.8827 -157.5653 84.1393)" class="st1" width="38" height="30.38"/>
										</g>
									</g>
								</g>
							</g>
						</g>
					</g>
				</g>
			</g>
			<g>
				<g>
					<g>
						<g>
							<g>
								
									<rect x="72.06" y="344.4" transform="matrix(0.8827 -0.47 0.47 0.8827 -157.5718 84.1289)" class="st2" width="35.33" height="26.55"/>
							</g>
						</g>
					</g>
				</g>
			</g>
			<g>
				<g>
					<g>
						<g>
							<g>
								<polygon class="st0" points="80.37,377.7 83.5,357.33 95.1,362.85 97.09,355.54 111.55,361.09 								"/>
							</g>
						</g>
					</g>
				</g>
			</g>
			<g>
				<g>
					<g>
						<g>
							<g>
								<g>
									<g>
										<path class="st0" d="M92.16,350.43c0.72,1.36,0.21,3.04-1.15,3.76c-1.36,0.72-3.04,0.21-3.76-1.15
											c-0.72-1.36-0.21-3.04,1.15-3.76C89.76,348.56,91.44,349.07,92.16,350.43z"/>
									</g>
								</g>
							</g>
						</g>
					</g>
				</g>
			</g>
		</g>
	</g>
</g>
<g id="Background_Simple" class="st3">
	<g class="st4">
		<path class="st1" d="M400.4,39.37l-1.47,0.52c-12.41,4.42-21.56,15.15-23.38,28.08c-0.23,1.66-0.35,3.34-0.34,5.02
			c0.09,12.11,6.78,24.02,17.16,30.52c6.1,3.82,13.57,6.08,17.85,11.83c5.57,7.49,3.66,17.85,1.51,26.86
			c-2.15,9.01-4.04,19.39,1.56,26.85c3.51,4.67,9.37,7.14,15.18,8.02c15.38,2.33,31.18-5.47,40.72-17.56
			c9.54-12.09,13.42-27.84,13.49-43.22c0.1-21.54-7.3-43.56-22.54-59.02C444.9,41.81,421.43,33.85,400.4,39.37z"/>
	</g>
	<g class="st4">
		<path class="st1" d="M86.13,382.29l1.54-0.25c13.01-2.08,23.96-10.96,28.12-23.33c0.53-1.59,0.95-3.22,1.25-4.88
			c2.12-11.93-2.28-24.85-11.29-33.14c-5.3-4.87-12.23-8.46-15.39-14.89c-4.11-8.38-0.34-18.22,3.43-26.68
			c3.76-8.47,7.52-18.32,3.37-26.68c-2.6-5.24-7.9-8.73-13.46-10.65c-14.7-5.1-31.65-0.32-43.24,9.82
			c-11.59,10.14-18.29,24.92-21.16,40.02c-4.03,21.16-0.79,44.16,11.37,62.15C42.82,371.76,64.44,383.87,86.13,382.29z"/>
	</g>
	<g class="st4">
		<circle class="st1" cx="433.86" cy="401.5" r="27.73"/>
	</g>
	<g class="st4">
		<circle class="st1" cx="71.21" cy="80.68" r="27.73"/>
	</g>
</g>
<g id="Desk">
	<g>
		<g>
			<path class="st5" d="M458.74,484.12c0,0.14-93.46,0.26-208.73,0.26c-115.31,0-208.75-0.12-208.75-0.26s93.44-0.26,208.75-0.26
				C365.28,483.86,458.74,483.97,458.74,484.12z"/>
		</g>
	</g>
</g>
<g id="World">
	<g>
		<g>
			<g>
				<g>
					<g>
						<g>
							<path class="st6" d="M375.36,185.82c-1.31-2.96-1.61-6.23-2.47-9.34c-0.46-1.67-1.25-3.44-2.81-4.18
								c-1.04-0.49-2.26-0.42-3.36-0.76c-3.95-1.18-5.03-6.7-8.77-8.41c-1.18-0.53-2.49-0.63-3.76-0.78
								c-5.01-0.59-10.18-2.32-13.33-6.25c-1.04-1.27-1.82-2.77-3.08-3.8c-1.29-1.04-3.27-1.48-4.52-0.42
								c1.06,2.11,2.09,4.23,3.13,6.32c0.95,1.9,1.92,3.87,3.51,5.26c1.61,1.42,3.97,2.15,5.89,1.27c0.63-0.3,1.27-0.78,1.99-0.7
								c0.51,0.06,0.95,0.42,1.29,0.82c2.72,3.02,1.84,8.03-0.82,11.11c-2.64,3.06-6.57,4.67-10.35,6.17
								c-1.35,0.53-2.79,1.08-4.23,0.82c-2.62-0.49-4.01-3.34-4.77-5.89c-1.71-5.66-2.54-11.81-6.04-16.58
								c-1.12-1.5-2.51-2.87-3.19-4.63c-0.72-1.9-0.55-4.12-1.69-5.79c-1.18-1.75-3.7-2.77-3.87-4.88
								c-0.11-1.48,1.12-2.79,2.47-3.42c1.35-0.65,2.87-0.84,4.27-1.42c0.55-0.23,1.16-0.63,1.18-1.23c0-0.89-1.23-1.25-1.54-2.07
								c-0.34-0.93,0.61-1.8,1.01-2.7c0.87-2.07-1.29-4.16-3.38-5.01c-2.07-0.85-4.58-1.46-5.56-3.49
								c-0.44-0.93-0.49-2.01-0.68-3.02c-0.49-2.56-2.37-5.03-4.94-5.45c-2.6-0.42-5.47,1.88-5.05,4.46
								c0.25,1.42,1.31,2.51,1.88,3.82c0.59,1.31,0.42,3.25-0.93,3.68c-2.22,0.68-4.35-3.38-6.21-1.99c0.76,2.6,1.5,5.2,2.26,7.82
								c-2.92,1.48-6.4-1.2-7.65-4.25c-1.25-3.02-1.29-6.49-2.77-9.4c-1.48-2.94-5.47-5.11-8.01-3.04
								c-0.13,3.76,4.84,5.28,7.04,8.32c1.58,2.2,1.35,5.77-0.99,7.16c-2.32,1.39-6.02-1.04-5.13-3.59
								c0.32-0.89,1.06-1.63,1.14-2.58c0.08-1.18-0.91-2.13-1.82-2.89c-1.42-1.2-2.83-2.39-4.25-3.57c-0.91-0.76-1.88-1.56-3.02-1.9
								c-2.92-0.84-5.83,1.52-7.37,4.12c-1.54,2.62-2.41,5.68-4.54,7.86c-3.06,3.17-8.87,3.36-11.75,0.04
								c-2.89-3.32-1.42-9.53,2.83-10.73c1.61-0.44,3.63-0.4,4.48-1.82c1.48-2.51-2.75-5.73-1.29-8.26
								c1.12-1.94,4.08-1.06,6.23-1.71c2.13-0.65,3.34-2.81,4.61-4.67c1.25-1.84,3.21-3.7,5.41-3.21c-0.17-1.29-0.34-2.68,0.23-3.84
								c0.57-1.18,2.18-1.94,3.23-1.18c-1.08,1.77,0.21,4.25,2.09,5.13c1.88,0.89,4.08,0.68,6.15,0.44
								c2.07-0.25,4.67-1.01,4.84-3.08c0.06-0.68-0.19-1.39,0.06-2.03c0.91-2.47,5.47,0.93,7.23-1.06c1.01-1.04-0.11-2.87-1.52-3.21
								c-1.39-0.36-2.85,0.17-4.29,0.21c-1.44,0.06-3.19-0.7-3.25-2.13c-0.06-1.42,1.52-2.43,1.69-3.82
								c0.27-2.37-3.74-2.98-5.16-1.06c-1.39,1.92-0.91,4.56-0.49,6.91c0.44,2.35,0.65,5.11-1.08,6.76
								c-0.74,1.12-2.66,0.53-3.3-0.65c-0.66-1.18-0.51-2.62-0.61-3.95c-0.11-1.35-0.7-2.87-2.01-3.23
								c-0.91-0.25-1.88,0.19-2.81,0.32c-3.68,0.44-6.23-4.31-5.07-7.82c1.14-3.53,4.48-5.79,7.71-7.58c2.37-1.31,5.3-2.54,7.65-1.2
								c1.1,0.61,1.86,1.67,2.94,2.3c1.86,1.1,4.16,0.7,6.3,0.74c3.36,0.08,6.68,1.37,9.19,3.57c0.95,0.87,1.84,2.3,1.1,3.34
								c-0.8,1.1-3.11,1.33-2.7,2.62c2.49,0.82,5.47-1.1,5.75-3.7c1.23,0.55,2.11,1.8,2.22,3.13c2.68-2.73,7.84-2.32,10.04,0.82
								c0.59,0.82,1.01,1.82,1.86,2.39c0.85,0.55,2.32,0.27,2.43-0.72c0.04-0.32-0.06-0.63-0.17-0.93
								c-0.51-1.44-1.04-2.85-1.54-4.27c1.96-1.06,4.29,0.59,5.62,2.37c4.94,6.61,8.47,2.64,15.44,3.72
								c4.71,0.72,6.78,3.74,9.44,7.39c8.15,11.24,18.93,20.45,26.35,32.2c0.78,1.23,1.5,2.47,2.18,3.74
								c-0.13-0.32-0.23-0.63-0.36-0.95c-2.92-7.67-6.53-15-10.77-21.91c-0.91-1.48-1.84-2.94-2.79-4.37
								c-0.59-0.89-1.2-1.8-1.82-2.66c-0.78-1.14-1.61-2.24-2.43-3.34c-0.66-0.89-1.31-1.75-1.99-2.6
								c-0.46-0.59-0.95-1.18-1.44-1.77c-0.51-0.68-1.06-1.33-1.65-1.99l-1.77-2.05c-0.17-0.21-0.36-0.42-0.57-0.63
								c-0.61-0.72-1.27-1.42-1.92-2.11c-0.04-0.08-0.11-0.15-0.19-0.21c-0.17-0.19-0.36-0.38-0.55-0.57
								c-0.53-0.59-1.1-1.16-1.65-1.73c-0.91-0.93-1.84-1.86-2.79-2.75c-0.78-0.78-1.58-1.52-2.41-2.26
								c-0.72-0.65-1.44-1.31-2.18-1.94c-0.72-0.63-1.44-1.25-2.18-1.86c-0.89-0.76-1.8-1.5-2.73-2.24h-0.02
								c-2.56-2.05-5.2-3.99-7.9-5.81c-0.68-0.46-1.33-0.91-2.01-1.35c-0.68-0.47-1.37-0.89-2.05-1.31
								c-0.7-0.42-1.37-0.87-2.07-1.27c-0.7-0.44-1.39-0.85-2.09-1.25c-0.57-0.34-1.12-0.65-1.69-0.95
								c-0.3-0.19-0.57-0.34-0.87-0.49c-1.2-0.68-2.43-1.33-3.65-1.94c-0.61-0.32-1.23-0.63-1.86-0.93
								c-0.78-0.4-1.58-0.78-2.39-1.14c-0.11-0.06-0.23-0.13-0.36-0.17c-0.72-0.34-1.44-0.68-2.18-0.99
								c-1.04-0.44-2.07-0.89-3.11-1.31c-1.18-0.49-2.37-0.97-3.57-1.42c-1.33-0.51-2.66-0.99-4.01-1.44
								c-1.35-0.46-2.73-0.91-4.1-1.33c-1.37-0.42-2.75-0.8-4.14-1.18c-2.75-0.74-5.53-1.39-8.35-1.96
								c-0.04-0.02-0.11-0.02-0.15-0.04c-1.08-0.21-2.15-0.42-3.23-0.59c-0.08-0.02-0.15-0.04-0.21-0.04
								c-0.46-0.08-0.95-0.17-1.44-0.23c-2.01-0.34-4.04-0.61-6.08-0.85c-0.23-0.04-0.49-0.06-0.74-0.08
								c-0.59-0.08-1.18-0.13-1.8-0.19c-1.35-0.13-2.7-0.23-4.08-0.32c-1.42-0.11-2.85-0.17-4.29-0.21c-1.5-0.06-3-0.08-4.5-0.08
								c-3.97,0-7.9,0.17-11.79,0.53c-0.93,0.06-1.84,0.15-2.75,0.25c-0.95,0.11-1.9,0.21-2.85,0.34c-0.95,0.13-1.9,0.25-2.83,0.4
								c-0.95,0.15-1.88,0.3-2.83,0.46c-0.8,0.13-1.63,0.27-2.43,0.44c-1.99,0.38-3.95,0.8-5.89,1.27c-0.91,0.21-1.82,0.44-2.73,0.7
								c-0.91,0.23-1.82,0.49-2.7,0.74c-1.5,0.42-2.96,0.89-4.42,1.35h-0.02c-1.18,0.4-2.39,0.8-3.55,1.2
								c-0.02,0-0.06,0.02-0.08,0.04c-1.2,0.42-2.37,0.87-3.55,1.33c-0.06,0.02-0.13,0.04-0.19,0.06c-1.08,0.42-2.15,0.87-3.21,1.31
								c-1.33,0.55-2.64,1.14-3.93,1.73c-1.1,0.51-2.18,1.01-3.23,1.54c-1.14,0.57-2.28,1.14-3.4,1.73
								c-0.04,0.02-0.08,0.04-0.13,0.06c-1.08,0.57-2.16,1.16-3.21,1.77c-1.1,0.61-2.18,1.25-3.25,1.92h-0.02
								c-1.01,0.61-2.01,1.22-3,1.86c-0.38,0.23-0.74,0.49-1.12,0.74c-1.06,0.68-2.07,1.37-3.11,2.09
								c-1.27,0.87-2.49,1.77-3.72,2.68c-1.08,0.8-2.13,1.63-3.17,2.45c-5.98,4.77-11.56,10.03-16.61,15.74
								c-1.8,1.99-3.49,4.01-5.13,6.08c-1.39,1.77-2.75,3.57-4.04,5.43c-1.16,1.62-2.28,3.26-3.36,4.94
								c1.08-1.67,2.2-3.32,3.36-4.94c0.34-0.04,0.68-0.08,1.01-0.11c1.9-0.15,3.91-0.08,5.62-0.91c1.58-0.78,2.7-2.2,4.14-3.21
								c3.68-2.62,9.7-3.11,10.69-7.5c0.34-1.48-0.06-3.08,0.49-4.5c1.04-2.64,4.56-3.02,7.39-2.98c1.2,0,2.62,0.17,3.17,1.22
								c0.4,0.74,0.17,1.67-0.13,2.45c-1.73,4.94-5.24,9.21-9.7,11.92c-3.68,2.24-8.47,3.97-9.49,8.15c0.51,1.42,3.08,1.31,3.3,2.79
								c0.15,1.18-1.37,1.8-1.92,2.85c-0.8,1.54,1.04,3.42,2.79,3.34c1.75-0.08,3.21-1.35,4.5-2.54c3.84-3.57,7.88-7.42,9.27-12.49
								c0.59-2.09,0.8-4.54,2.49-5.94c2.01-1.65,5.6-0.51,6.27,2.01c1.67-0.93,4.27-1.63,5.13,0.11c0.3,0.61,0.21,1.33,0.36,1.99
								c0.55,2.7,4.25,3.93,4.63,6.65c0.44,3.15-3.59,4.77-6.74,5.26c-2.85,0.44-5.7,0.89-8.56,1.35c-1.25,0.19-2.53,0.4-3.55,1.14
								c-1.01,0.76-1.65,2.2-1.06,3.32c0.34,0.61,0.99,1.01,1.48,1.52c2.37,2.37,0.42,7.25-2.92,7.35c-1.14,0.04-2.26-0.38-3.4-0.42
								c-3.38-0.15-6.06,2.83-7.67,5.81c-1.61,2.98-2.81,6.38-5.51,8.41c-4.35,3.27-11.85,2.51-13.96,7.54
								c-0.85,2.03-0.4,4.31-0.06,6.49c0.34,2.16,0.49,4.56-0.78,6.36c-1.25,1.77-4.5,2.15-5.43,0.17c-0.4-0.87-0.27-1.88-0.13-2.81
								c0.51-3.13,0.99-6.25,1.48-9.38c0.36-2.32,0.68-4.92-0.7-6.82c-1.92-2.66-6.23-2.41-8.73-0.27c-2.47,2.13-3.51,5.47-4.2,8.66
								c-0.51,2.37-1.1,5.7-2.41,8.41c0,0,0,0,0,0c-0.44,2.62-0.8,5.28-1.08,7.96c-0.27,2.75-0.46,5.47-0.57,8.26
								c0.34-0.27,0.7-0.61,1.08-1.01c1.33-1.37,4.01-7.18,6.42-4.33c0.61,0.72,0.63,1.88,0.04,2.64c-0.74,0.95-2.22,1.16-2.79,2.2
								c-0.7,1.23,0.27,2.75,1.42,3.55c1.14,0.82,2.53,1.33,3.34,2.49c1.54,2.22,0.06,5.58,1.56,7.84c1.29,1.94,4.04,2.07,6.38,2.32
								c0.27,0.04,0.53,0.08,0.8,0.13c0.66-4.65,2.83-8.43,9.17-9.87c8.75-1.99,20.24,5.26,25.16,11.85
								c5.49,7.37,8.09,17.81,16.5,21.51c6.02,2.64,14.58,1.69,17.51,7.58c2.62,5.28-1.94,11.22-2.64,17.07
								c-0.44,3.87,0.82,7.71,1.12,11.58c0.27,3.89-0.87,8.41-4.39,10.04c-1.96,0.89-4.44,0.78-6.02,2.26
								c-2.81,2.66-0.51,8.15-3.32,10.82c-0.99,0.93-2.37,1.27-3.57,1.88c-6.32,3.19-6.15,12.49-3.21,18.93
								c0.11,0.23,0.21,0.44,0.32,0.68c9.34,5.6,19.39,10.08,30.02,13.25c12.17,3.7,25.08,5.66,38.45,5.66
								c22.63,0,43.96-5.64,62.64-15.59h0.02c4.06-2.18,8.01-4.54,11.81-7.12c5.89-3.95,11.43-8.37,16.58-13.18
								c3.57-3.34,6.97-6.87,10.14-10.58c2.24-2.58,4.35-5.26,6.38-8.01c1.03-1.42,2.05-2.83,3-4.29c2.92-4.27,5.58-8.73,7.96-13.33
								c3.46-6.63,6.36-13.61,8.64-20.83c2.35-7.29,4.06-14.85,5.09-22.63c0.4-3,0.72-6.04,0.93-9.11
								c-1.46,1.42-3.36,2.43-5.37,2.39C379.29,191.47,376.65,188.78,375.36,185.82z"/>
						</g>
					</g>
					<g>
						<g>
							<path class="st2" d="M222.79,81.77c-2.65,1.58-4.05,4.57-6.09,6.88c-2.04,2.31-5.7,3.96-8.11,2.03
								c-1.16-0.92-1.68-2.45-1.81-3.93c-0.19-2.12,0.32-4.3,1.44-6.12c1.15-1.87,2.9-3.35,3.88-5.32c0.97-1.97,0.77-4.86-1.22-5.78
								c-1.08-0.5-2.44-0.3-3.39-1.01c-1.72-1.27-0.49-4.26,1.51-5.02c2-0.76,4.22-0.17,6.35-0.03c7.74,0.49,13.43-4.57,19.25-8.78
								c4.52-3.27,14.16-7.14,19.4-3.8c2.09,1.33,2.91,4.76,0.94,6.27c-0.88,0.67-2.1,0.82-2.92,1.57c-0.98,0.9-1.12,2.37-1.69,3.57
								c-1.46,3.13-5.69,4.27-7.05,7.45c-0.82,1.91-0.45,4.29-1.71,5.95c-1,1.31-2.74,1.78-4.34,2.16c-3.36,0.8-6.73,1.6-10.09,2.4
								C225.63,80.61,224.11,80.98,222.79,81.77z"/>
						</g>
					</g>
					<g>
						<g>
							<path class="st2" d="M313,246.09c-3.35,5.04-3.96,11.35-4.88,17.33c-0.93,5.98-2.52,12.34-7.12,16.28
								c-4.6,3.94-13.04,3.71-15.57-1.79c-1.37-2.99-0.67-6.51-1.42-9.71c-0.98-4.17-4.29-7.39-5.87-11.37
								c-1.34-3.4-1.35-7.15-1.46-10.8c-0.6-19.95-5.46-40.77-19.05-55.4c-1.67-1.8-3.56-3.55-5.93-4.18
								c-2.82-0.75-6.04,0.36-7.79,2.69c-1.09,1.44-1.65,3.29-2.99,4.51c-2.9,2.65-7.97,0.75-9.91-2.67
								c-1.94-3.42-1.67-7.61-1.35-11.53c0.4-4.86,0.8-9.71,1.21-14.57c0.21-2.54,0.5-5.27,2.16-7.2c2.37-2.74,6.62-2.87,9.52-5.04
								c3.8-2.85,4.31-8.28,6.71-12.39c2.4-4.1,9.91-5.84,11.02-1.22c7.94-16.99,25.49,8.25,35.92,6.35
								c3.03-0.55,5.99-2.01,9.04-1.58c5.39,0.75,8.17,6.69,10,11.81c3.04,8.5,6.08,17,9.13,25.5c1.16,3.24,2.66,6.84,5.86,8.08
								c2.46,0.95,5.31,0.23,7.79,1.13c6.55,2.38,4.42,12.69-0.85,17.24c-5.27,4.56-12.66,7.44-15.17,13.94
								c-1.89,4.9-0.38,10.64-2.41,15.48C318.14,240.46,315.08,242.96,313,246.09z"/>
						</g>
					</g>
					<g>
						<g>
							<path class="st2" d="M337.86,251.63c-2.15,0.3-4.69-0.76-6.33,0.67c-0.95,0.83-1.17,2.2-1.54,3.41
								c-0.53,1.68-1.53,3.27-3.05,4.16c-1.51,0.9-3.57,0.97-4.98-0.09c-1.4-1.06-1.83-3.33-0.68-4.66
								c0.52-0.61,1.27-0.97,1.86-1.52c2.86-2.7,0.9-7.7,3.07-10.91c1.28-1.89,3.3-3.81,4.7-5.73c1.08-1.47,1.48-2.64,3.47-3.03
								C343.08,232.22,347.01,250.35,337.86,251.63z"/>
						</g>
					</g>
					<g class="st7">
						<g>
							<path class="st5" d="M180.36,291.19c1.12,0.76,2.26,1.5,3.41,2.22c0.8,0.51,1.61,0.99,2.43,1.48
								c-0.82-0.49-1.63-0.97-2.43-1.48C182.62,292.68,181.48,291.94,180.36,291.19z"/>
						</g>
					</g>
					<g class="st7">
						<g>
							<path class="st5" d="M121.32,174.75v-0.02l0,0l0,0V174.75c-0.02,0.25-0.04,0.49-0.04,0.74c-0.03,0.79-0.03,1.6-0.04,2.41
								c0.01-0.81,0.01-1.62,0.04-2.41C121.27,175.24,121.3,175.01,121.32,174.75z"/>
						</g>
					</g>
					<g>
						<g>
							<g>
								<path class="st2" d="M138.62,215.4c-0.42-3.82,0.85-7.65,0.91-11.51c0.04-2.66-0.15-5.47-0.19-8.15
									c-2.28-0.11-4.56-0.42-6.78-0.95c-0.47-0.11-0.97-0.25-1.25-0.63c-0.3-0.4-0.25-0.93-0.28-1.42c-0.17-3-3.06-4.99-5.66-6.49
									c-1.33-0.78-2.68-1.54-4.12-2.03c0,0.32,0,0.61,0.02,0.93c0.53,14.85,3.49,29.11,8.49,42.36
									c2.28,6.04,5.01,11.89,8.16,17.49c1.31,2.43,2.75,4.82,4.25,7.16c1.86,2.89,3.8,5.73,5.89,8.45
									c1.94,2.62,4.01,5.18,6.19,7.63c2.98,3.4,6.13,6.63,9.44,9.72c2.94,2.75,6,5.35,9.19,7.82
									c-7.29-19.56-14.16-39.53-26.62-56.18C142.99,225.25,139.23,220.81,138.62,215.4z"/>
							</g>
						</g>
						<g>
							<g>
								<path class="st2" d="M139.57,190.56c-0.27-0.04-0.53-0.08-0.8-0.13c-2.35-0.25-5.09-0.38-6.38-2.32
									c-1.5-2.26-0.02-5.62-1.56-7.84c-0.8-1.16-2.2-1.67-3.34-2.49c-1.14-0.8-2.11-2.32-1.42-3.55c0.57-1.03,2.05-1.25,2.79-2.2
									c0.59-0.76,0.57-1.92-0.04-2.64c-2.41-2.85-5.09,2.96-6.42,4.33c-0.38,0.4-0.74,0.74-1.08,1.01v0.02
									c-0.02,0.25-0.04,0.49-0.04,0.74c-0.03,0.79-0.03,1.6-0.04,2.41c-0.01,0.81-0.04,1.61-0.04,2.41c0,0.65-0.01,0.62,0,1.27
									c0.01,0.65,0.04,1.99,0.06,2.63c1.44,0.49,2.79,1.25,4.12,2.03c2.6,1.5,5.49,3.49,5.66,6.49c0.02,0.49-0.02,1.01,0.28,1.42
									c0.27,0.38,0.78,0.53,1.25,0.63c2.22,0.53,4.5,0.84,6.78,0.95"/>
							</g>
						</g>
						<g>
							<g>
								<path class="st2" d="M139.34,195.73c0.04,2.68,0.23,5.49,0.19,8.15c-0.06,3.87-1.33,7.69-0.91,11.51
									c0.61,5.41,4.37,9.84,7.65,14.2c12.46,16.65,19.33,36.61,26.62,56.18h0.02c1.35,1.08,2.73,2.09,4.12,3.08
									c1.1,0.79,2.21,1.57,3.33,2.33c1.12,0.76,2.26,1.5,3.41,2.22c0.8,0.51,1.61,0.99,2.43,1.48c-0.11-0.23-0.21-0.44-0.32-0.68
									c-2.94-6.44-3.11-15.74,3.21-18.93c1.2-0.61,2.58-0.95,3.57-1.88c2.81-2.66,0.51-8.16,3.32-10.82
									c1.58-1.48,4.06-1.37,6.02-2.26c3.53-1.63,4.67-6.15,4.39-10.04c-0.3-3.87-1.56-7.71-1.12-11.58
									c0.7-5.85,5.26-11.79,2.64-17.07c-2.94-5.89-11.49-4.94-17.51-7.58c-8.41-3.7-11.01-14.13-16.5-21.51
									c-4.92-6.59-16.42-13.84-25.16-11.85c-6.34,1.44-8.51,5.22-9.17,9.87"/>
							</g>
						</g>
						<g>
							<g>
								<path class="st2" d="M129.58,141.44c2.49-2.13,6.8-2.39,8.73,0.27c1.37,1.9,1.06,4.5,0.7,6.82
									c-0.49,3.13-0.97,6.25-1.48,9.38c-0.15,0.93-0.28,1.94,0.13,2.81c0.93,1.99,4.18,1.61,5.43-0.17
									c1.27-1.8,1.12-4.2,0.78-6.36c-0.34-2.18-0.78-4.46,0.06-6.49c2.11-5.03,9.61-4.27,13.96-7.54c2.7-2.03,3.91-5.43,5.51-8.41
									c1.61-2.98,4.29-5.96,7.67-5.81c1.14,0.04,2.26,0.46,3.4,0.42c3.34-0.11,5.28-4.99,2.92-7.35
									c-0.49-0.51-1.14-0.91-1.48-1.52c-0.59-1.12,0.04-2.56,1.06-3.32c1.01-0.74,2.3-0.95,3.55-1.14
									c2.85-0.47,5.7-0.91,8.56-1.35c3.15-0.49,7.18-2.11,6.74-5.26c-0.38-2.73-4.08-3.95-4.63-6.65
									c-0.15-0.66-0.06-1.37-0.36-1.99c-0.87-1.73-3.46-1.04-5.13-0.11c-0.68-2.51-4.27-3.65-6.27-2.01
									c-1.69,1.39-1.9,3.85-2.49,5.94c-1.39,5.07-5.43,8.92-9.27,12.49c-1.29,1.18-2.75,2.45-4.5,2.54
									c-1.75,0.08-3.59-1.8-2.79-3.34c0.55-1.06,2.07-1.67,1.92-2.85c-0.21-1.48-2.79-1.37-3.3-2.79
									c1.01-4.18,5.81-5.92,9.49-8.15c4.46-2.7,7.96-6.97,9.7-11.92c0.3-0.78,0.53-1.71,0.13-2.45c-0.55-1.06-1.96-1.22-3.17-1.22
									c-2.83-0.04-6.36,0.34-7.39,2.98c-0.55,1.42-0.15,3.02-0.49,4.5c-0.99,4.39-7.01,4.88-10.69,7.5
									c-1.44,1.01-2.56,2.43-4.14,3.21c-1.71,0.82-3.72,0.76-5.62,0.91c-0.34,0.02-0.68,0.06-1.01,0.11
									c-1.16,1.62-2.28,3.26-3.36,4.94c-1.08,1.67-2.12,3.38-3.12,5.1c-4.73,8.09-8.62,16.73-11.58,25.82
									c-1.04,3.16-1.95,6.37-2.74,9.63c-0.79,3.26-1.46,6.57-2.01,9.91c1.31-2.7,1.9-6.04,2.41-8.41
									C126.07,146.91,127.11,143.57,129.58,141.44z"/>
							</g>
						</g>
						<g>
							<g>
								<path class="st2" d="M387.87,189.1c0,0-3.36,2.45-5.37,2.41c-3.21-0.04-5.85-2.73-7.14-5.68c-1.31-2.96-1.61-6.23-2.47-9.34
									c-0.46-1.67-1.25-3.44-2.81-4.18c-1.04-0.49-2.26-0.42-3.36-0.76c-3.95-1.18-5.03-6.7-8.77-8.41
									c-1.18-0.53-2.49-0.63-3.76-0.78c-5.01-0.59-10.18-2.32-13.33-6.25c-1.04-1.27-1.82-2.77-3.08-3.8
									c-1.29-1.04-3.27-1.48-4.52-0.42c1.06,2.11,2.09,4.23,3.13,6.32c0.95,1.9,1.92,3.87,3.51,5.26
									c1.61,1.42,3.97,2.15,5.89,1.27c0.63-0.3,1.27-0.78,1.99-0.7c0.51,0.06,0.95,0.42,1.29,0.82c2.72,3.02,1.84,8.03-0.82,11.11
									c-2.64,3.06-6.57,4.67-10.35,6.17c-1.35,0.53-2.79,1.08-4.23,0.82c-2.62-0.49-4.01-3.34-4.77-5.89
									c-1.71-5.66-2.54-11.81-6.04-16.58c-1.12-1.5-2.51-2.87-3.19-4.63c-0.72-1.9-0.55-4.12-1.69-5.79
									c-1.18-1.75-3.7-2.77-3.87-4.88c-0.11-1.48,1.12-2.79,2.47-3.42c1.35-0.65,2.87-0.84,4.27-1.42
									c0.55-0.23,1.16-0.63,1.18-1.23c0-0.89-1.23-1.25-1.54-2.07c-0.34-0.93,0.61-1.8,1.01-2.7c0.87-2.07-1.29-4.16-3.38-5.01
									c-2.07-0.85-4.58-1.46-5.56-3.49c-0.44-0.93-0.49-2.01-0.68-3.02c-0.49-2.56-2.37-5.03-4.94-5.45
									c-2.6-0.42-5.47,1.88-5.05,4.46c0.25,1.42,1.31,2.51,1.88,3.82c0.59,1.31,0.42,3.25-0.93,3.68
									c-2.22,0.68-4.35-3.38-6.21-1.99c0.76,2.6,1.5,5.2,2.26,7.82c-2.92,1.48-6.4-1.2-7.65-4.25c-1.25-3.02-1.29-6.49-2.77-9.4
									c-1.48-2.94-5.47-5.11-8.01-3.04c-0.13,3.76,4.84,5.28,7.04,8.32c1.58,2.2,1.35,5.77-0.99,7.16
									c-2.32,1.39-6.02-1.04-5.13-3.59c0.32-0.89,1.06-1.63,1.14-2.58c0.08-1.18-0.91-2.13-1.82-2.89
									c-1.42-1.2-2.83-2.39-4.25-3.57c-0.91-0.76-1.88-1.56-3.02-1.9c-2.92-0.84-5.83,1.52-7.37,4.12
									c-1.54,2.62-2.41,5.68-4.54,7.86c-3.06,3.17-8.87,3.36-11.75,0.04c-2.89-3.32-1.42-9.53,2.83-10.73
									c1.61-0.44,3.63-0.4,4.48-1.82c1.48-2.51-2.75-5.73-1.29-8.26c1.12-1.94,4.08-1.06,6.23-1.71c2.13-0.65,3.34-2.81,4.61-4.67
									c1.25-1.84,3.21-3.7,5.41-3.21c-0.17-1.29-0.34-2.68,0.23-3.84c0.57-1.18,2.18-1.94,3.23-1.18
									c-1.08,1.77,0.21,4.25,2.09,5.13c1.88,0.89,4.08,0.68,6.15,0.44c2.07-0.25,4.67-1.01,4.84-3.08
									c0.06-0.68-0.19-1.39,0.06-2.03c0.91-2.47,5.47,0.93,7.23-1.06c1.01-1.04-0.11-2.87-1.52-3.21
									c-1.39-0.36-2.85,0.17-4.29,0.21c-1.44,0.06-3.19-0.7-3.25-2.13c-0.06-1.42,1.52-2.43,1.69-3.82
									c0.27-2.37-3.74-2.98-5.16-1.06c-1.39,1.92-0.91,4.56-0.49,6.91c0.44,2.35,0.65,5.11-1.08,6.76
									c-0.74,1.12-2.66,0.53-3.3-0.65c-0.66-1.18-0.51-2.62-0.61-3.95c-0.11-1.35-0.7-2.87-2.01-3.23
									c-0.91-0.25-1.88,0.19-2.81,0.32c-3.68,0.44-6.23-4.31-5.07-7.82c1.14-3.53,4.48-5.79,7.71-7.58
									c2.37-1.31,5.3-2.54,7.65-1.2c1.1,0.61,1.86,1.67,2.94,2.3c1.86,1.1,4.16,0.7,6.3,0.74c3.36,0.08,6.68,1.37,9.19,3.57
									c0.95,0.87,1.84,2.3,1.1,3.34c-0.8,1.1-3.11,1.33-2.7,2.62c2.49,0.82,5.47-1.1,5.75-3.7c1.23,0.55,2.11,1.8,2.22,3.13
									c2.68-2.73,7.84-2.32,10.04,0.82c0.59,0.82,1.01,1.82,1.86,2.39c0.85,0.55,2.32,0.27,2.43-0.72
									c0.04-0.32-0.06-0.63-0.17-0.93c-0.51-1.44-1.04-2.85-1.54-4.27c1.96-1.06,4.29,0.59,5.62,2.37
									c4.94,6.61,8.47,2.64,15.44,3.72c4.71,0.72,6.78,3.74,9.44,7.39c8.15,11.24,18.93,20.45,26.35,32.2
									c0.78,1.23,1.5,2.47,2.18,3.74c0,0,0,0,0,0c0,0.02,0,0.02,0,0.02c0.63,1.69,1.23,3.39,1.79,5.1
									c0.56,1.71,1.09,3.44,1.59,5.18c1.28,4.53,2.41,8.4,3.2,13.1c0,0,0.93,7.55,1.15,10.01c0.17,1.88,0.34,3.77,0.44,5.66
									c0.1,1.9,0.16,3.8,0.17,5.73L387.87,189.1z"/>
							</g>
						</g>
					</g>
				</g>
			</g>
		</g>
		<g>
			<g>
				<path class="st5" d="M388.68,180.31c0,0-0.04-0.74-0.08-2.17c-0.02-0.72-0.05-1.61-0.08-2.68c-0.03-1.06-0.05-2.3-0.19-3.7
					c-0.11-1.4-0.23-2.96-0.37-4.69c-0.18-1.72-0.45-3.59-0.7-5.63c-0.57-4.06-1.46-8.71-2.72-13.88
					c-1.36-5.14-3.02-10.84-5.49-16.83c-2.42-6-5.4-12.4-9.32-18.87c-7.75-12.95-18.86-26.5-34.02-38.06
					c-7.54-5.79-16.12-10.99-25.57-15.29c-9.45-4.29-19.77-7.74-30.78-9.72c-10.99-2.03-22.63-2.83-34.51-1.91
					c-5.95,0.35-11.93,1.32-17.93,2.51c-5.99,1.28-11.97,3-17.89,5.1c-5.88,2.21-11.74,4.73-17.41,7.78
					c-5.65,3.08-11.2,6.52-16.48,10.44c-5.27,3.95-10.32,8.28-15.1,13c-4.72,4.78-9.14,9.93-13.22,15.43
					c-4.09,5.48-7.68,11.41-10.91,17.56c-0.77,1.56-1.64,3.07-2.33,4.68c-0.72,1.59-1.44,3.19-2.16,4.78
					c-1.29,3.26-2.63,6.52-3.69,9.89c-2.19,6.71-4.01,13.61-5.1,20.7c-1.12,7.07-1.7,14.28-1.75,21.53
					c0.05,7.26,0.63,14.46,1.75,21.54c1.09,7.09,2.9,13.99,5.09,20.71l0.85,2.51l0.42,1.25l0.48,1.23c0.65,1.64,1.29,3.27,1.93,4.9
					c0.72,1.6,1.44,3.19,2.16,4.78c0.69,1.61,1.56,3.12,2.33,4.68c3.23,6.15,6.82,12.08,10.91,17.57c4.07,5.5,8.5,10.65,13.22,15.43
					c4.78,4.72,9.83,9.06,15.1,13.01c5.29,3.92,10.84,7.36,16.49,10.44c5.67,3.05,11.53,5.57,17.41,7.79
					c5.93,2.1,11.9,3.82,17.89,5.1c6.01,1.19,11.99,2.15,17.94,2.51c11.88,0.93,23.52,0.12,34.51-1.91
					c11.01-1.99,21.34-5.43,30.78-9.72c9.45-4.3,18.03-9.5,25.57-15.29c15.15-11.56,26.27-25.11,34.01-38.06
					c3.92-6.47,6.9-12.87,9.32-18.87c2.47-5.99,4.13-11.69,5.49-16.83c1.27-5.17,2.15-9.82,2.72-13.88c0.25-2.03,0.53-3.91,0.7-5.63
					c0.14-1.72,0.26-3.29,0.37-4.69c0.14-1.4,0.16-2.63,0.19-3.7c0.03-1.06,0.06-1.96,0.08-2.68
					C388.65,181.05,388.68,180.31,388.68,180.31s0,0.74-0.03,2.17c-0.01,0.72-0.03,1.61-0.05,2.68c-0.02,1.07-0.04,2.3-0.16,3.7
					c-0.1,1.4-0.22,2.96-0.34,4.69c-0.17,1.72-0.44,3.6-0.68,5.64c-0.56,4.06-1.42,8.72-2.68,13.91c-1.35,5.15-3,10.86-5.46,16.87
					c-2.41,6.02-5.38,12.44-9.3,18.93c-7.74,12.99-18.86,26.59-34.04,38.2c-7.56,5.82-16.15,11.05-25.63,15.36
					c-9.47,4.31-19.82,7.78-30.87,9.78c-11.03,2.05-22.7,2.86-34.62,1.94c-5.97-0.35-11.97-1.31-18-2.5
					c-6.01-1.28-12.01-3-17.96-5.11c-5.91-2.22-11.79-4.74-17.48-7.81c-5.67-3.09-11.24-6.54-16.55-10.47
					c-5.29-3.96-10.36-8.31-15.16-13.05c-4.74-4.8-9.18-9.97-13.27-15.49c-4.11-5.5-7.71-11.45-10.96-17.63
					c-0.77-1.57-1.65-3.09-2.34-4.7c-0.72-1.6-1.45-3.2-2.17-4.8c-0.65-1.64-1.29-3.28-1.94-4.92l-0.49-1.23l-0.43-1.26l-0.85-2.52
					c-2.2-6.74-4.02-13.67-5.12-20.79c-1.12-7.1-1.7-14.34-1.75-21.62c0.05-7.28,0.64-14.51,1.76-21.61
					c1.09-7.11,2.91-14.04,5.12-20.78c1.07-3.38,2.41-6.65,3.71-9.92c0.72-1.6,1.45-3.2,2.17-4.8c0.69-1.61,1.57-3.13,2.34-4.7
					c3.25-6.18,6.85-12.12,10.96-17.62c4.09-5.51,8.53-10.68,13.27-15.48c4.8-4.74,9.87-9.09,15.16-13.05
					c5.31-3.93,10.88-7.38,16.55-10.47c5.69-3.06,11.57-5.59,17.48-7.8c5.95-2.11,11.94-3.83,17.96-5.11
					c6.03-1.19,12.03-2.15,18-2.5c11.92-0.92,23.6-0.11,34.62,1.94c11.05,2,21.4,5.47,30.87,9.78c9.48,4.32,18.07,9.54,25.63,15.36
					c15.18,11.61,26.3,25.21,34.04,38.2c3.92,6.49,6.89,12.91,9.3,18.93c2.46,6.01,4.11,11.72,5.46,16.87
					c1.26,5.18,2.13,9.84,2.68,13.91c0.24,2.04,0.51,3.91,0.68,5.64c0.13,1.73,0.24,3.29,0.34,4.69c0.13,1.4,0.15,2.63,0.16,3.7
					c0.02,1.06,0.04,1.96,0.05,2.68C388.68,179.57,388.68,180.31,388.68,180.31z"/>
			</g>
		</g>
	</g>
</g>
<g id="Plane">
	<g>
		<g>
			<polygon class="st5" points="229.01,129.83 228.26,94.33 216.16,100.55 211.04,121.9 			"/>
		</g>
		<g>
			<polygon class="st5" points="215.16,146.05 202.51,152.4 197.73,151.85 206.07,145.27 214.27,143.63 			"/>
		</g>
		<g>
			<polygon class="st0" points="129.07,124.69 81.55,161.59 135.02,127.16 			"/>
		</g>
		<g>
			<path class="st5" d="M158.75,134.65c-0.72,0.36-69.62,27.78-69.62,27.78l-7.58-0.84l52.31-37.16L158.75,134.65z"/>
		</g>
		<g>
			<path class="st8" d="M138.63,140.82l5.77,2.35c1.03,0.42,2.21-0.08,2.63-1.11l0.03-0.08c0.42-1.03-0.07-2.21-1.11-2.63
				l-5.77-2.35c-1.03-0.42-2.21,0.07-2.63,1.11l-0.03,0.08C137.1,139.22,137.59,140.4,138.63,140.82z"/>
		</g>
		<g>
			<path class="st8" d="M105.66,156.54l5.77,2.35c1.03,0.42,2.21-0.08,2.63-1.11l0.03-0.08c0.42-1.03-0.07-2.21-1.11-2.63
				l-5.77-2.35c-1.03-0.42-2.21,0.07-2.63,1.11l-0.03,0.08C104.13,154.94,104.63,156.12,105.66,156.54z"/>
		</g>
		<g>
			<g>
				<path class="st9" d="M114.92,129.08c0,0,20.73,2.86,17.83,13.73c-2.9,10.87-23.36-0.58-23.36-0.58s-3.03-1.74-1.87-7.54
					C108.69,128.9,114.92,129.08,114.92,129.08z"/>
			</g>
			<g>
				<path class="st5" d="M109.28,134.34c0.44-1.36,1.08-2.72,2.21-3.58c1.13-0.87,2.87-1.08,3.95-0.15l0.58,0.36
					c1.5,1.57,1.99,4.04,1.18,6.06c0.07-0.22,0.14-0.44,0.21-0.66c-0.4,2.21-1.67,4.24-3.48,5.57c-0.49,0.36-1.04,0.68-1.65,0.72
					c-0.76,0.06-1.5-0.33-2.05-0.86c-0.96-0.92-1.45-2.24-1.54-3.56C108.59,136.92,108.87,135.6,109.28,134.34z"/>
			</g>
		</g>
		<g>
			<g>
				<path class="st10" d="M239.91,134.67c0,0,8.47,8.47-7.64,10.53c-16.11,2.06-43.98,1.03-75.36-9.7
					c-31.38-10.74-59.32-25.79-64.21-29.73c-3.63-2.93-9.45-7.93-7.37-15.1c1.08-3.71,4-6.59,7.63-7.93
					c4.72-1.74,12.76-3.68,21.63-1.33C128.62,85.11,239.91,134.67,239.91,134.67z"/>
			</g>
			<g>
				<g>
					<path class="st5" d="M239.91,134.67c0,0-0.29-0.11-0.84-0.35c-0.56-0.24-1.38-0.6-2.45-1.06c-2.17-0.95-5.34-2.33-9.42-4.12
						c-8.19-3.58-20.02-8.75-34.64-15.14c-14.64-6.36-32.08-13.92-51.54-22.07c-4.87-2.02-9.87-4.09-15-6.11
						c-2.56-1.05-5.18-1.98-7.81-2.99c-1.34-0.42-2.66-0.9-4.02-1.28c-1.37-0.34-2.77-0.6-4.18-0.77
						c-5.66-0.65-11.57,0.17-17.08,2.23c-2.71,1.03-5.11,3.02-6.48,5.62c-1.39,2.59-1.68,5.79-0.59,8.56
						c1.07,2.8,3.18,5.06,5.41,7.01c2.22,2.02,4.79,3.5,7.34,5.02c5.13,2.96,10.32,5.64,15.47,8.16
						c10.31,5.04,20.48,9.45,30.31,13.26c9.83,3.82,19.34,7.02,28.43,9.32c9.08,2.35,17.71,3.82,25.62,4.76
						c7.92,0.94,15.14,1.25,21.47,1.14c3.17-0.02,6.11-0.22,8.81-0.43c2.7-0.26,5.17-0.5,7.32-1.06c2.13-0.57,4.04-1.35,5.13-2.67
						c0.54-0.65,0.83-1.41,0.88-2.12c0.04-0.71-0.1-1.36-0.29-1.91c-0.4-1.1-0.93-1.84-1.29-2.32
						C240.12,134.9,239.91,134.67,239.91,134.67s0.24,0.2,0.61,0.67c0.37,0.47,0.92,1.2,1.34,2.31c0.2,0.55,0.36,1.21,0.32,1.95
						c-0.05,0.74-0.34,1.53-0.89,2.21c-1.12,1.38-3.06,2.18-5.2,2.77c-2.17,0.58-4.65,0.84-7.35,1.12
						c-2.71,0.23-5.66,0.44-8.83,0.47c-6.34,0.13-13.58-0.15-21.52-1.07c-7.93-0.91-16.58-2.37-25.69-4.7
						c-9.11-2.29-18.65-5.48-28.5-9.29c-9.85-3.81-20.04-8.21-30.36-13.25c-5.16-2.53-10.36-5.21-15.51-8.17
						c-2.54-1.5-5.18-3.03-7.42-5.07c-2.27-1.98-4.44-4.29-5.56-7.22c-1.14-2.91-0.84-6.29,0.62-8.99c1.44-2.73,3.94-4.79,6.76-5.86
						c5.59-2.09,11.57-2.91,17.33-2.25c1.44,0.17,2.86,0.43,4.25,0.78c1.38,0.39,2.72,0.87,4.07,1.29c2.63,1.01,5.27,1.95,7.82,3
						c5.14,2.03,10.13,4.11,15.01,6.13c19.46,8.17,36.88,15.77,51.51,22.17c14.59,6.45,26.4,11.67,34.58,15.29
						c4.06,1.82,7.22,3.24,9.38,4.21c1.06,0.48,1.87,0.85,2.43,1.11C239.64,134.53,239.91,134.67,239.91,134.67z"/>
				</g>
			</g>
		</g>
		<g>
			<g>
				<polygon class="st5" points="213.51,125.77 213.51,129.08 190.75,119.27 194.24,117.37 				"/>
			</g>
			<g>
				<polygon class="st10" points="211.74,123.92 211.74,129.56 209.66,128.65 209.66,122.88 				"/>
			</g>
			<g>
				<polygon class="st10" points="207.36,121.53 207.36,127.16 205.29,126.26 205.29,120.49 				"/>
			</g>
			<g>
				<polygon class="st10" points="202.99,119.85 202.99,125.49 200.91,124.59 200.91,118.81 				"/>
			</g>
			<g>
				<polygon class="st10" points="194.38,116.38 194.38,122.02 192.31,121.11 192.31,115.34 				"/>
			</g>
		</g>
		<g>
			<polygon class="st5" points="283.02,69.05 185.46,122.15 163.52,111.62 271.31,68.12 			"/>
		</g>
		<g>
			<g>
				<polyline class="st10" points="167.64,102.99 271.31,68.12 163.52,111.62 				"/>
			</g>
			<g>
				<g>
					<path class="st5" d="M163.52,111.62c0,0,0.18-0.09,0.53-0.24c0.37-0.16,0.9-0.38,1.58-0.66c1.41-0.58,3.45-1.42,6.08-2.51
						c5.3-2.16,12.95-5.28,22.39-9.13c18.94-7.67,45.07-18.24,73.93-29.92c1.09-0.44,2.18-0.88,3.19-1.29l0.18,0.49
						c-28.8,9.66-54.72,18.35-73.46,24.63c-9.36,3.11-16.92,5.63-22.16,7.37c-2.6,0.85-4.63,1.52-6.02,1.98
						c-0.68,0.22-1.2,0.38-1.57,0.5c-0.35,0.11-0.54,0.15-0.54,0.15s0.17-0.08,0.52-0.2c0.37-0.13,0.88-0.31,1.55-0.55
						c1.39-0.48,3.4-1.17,5.99-2.07c5.23-1.78,12.78-4.35,22.11-7.52c18.73-6.32,44.63-15.06,73.41-24.78l0.18,0.49
						c-1.01,0.41-2.1,0.85-3.19,1.29c-28.89,11.63-55.04,22.15-73.99,29.78c-9.46,3.78-17.13,6.85-22.45,8.97
						c-2.64,1.04-4.7,1.86-6.11,2.42c-0.69,0.27-1.22,0.47-1.59,0.62C163.71,111.57,163.52,111.62,163.52,111.62z"/>
				</g>
			</g>
		</g>
		<g>
			<path class="st8" d="M231.57,94.28l5.02,3.7c0.9,0.66,2.16,0.47,2.83-0.43l0.05-0.07c0.66-0.9,0.47-2.16-0.43-2.83l-5.02-3.7
				c-0.9-0.66-2.16-0.47-2.83,0.43l-0.05,0.07C230.48,92.35,230.67,93.61,231.57,94.28z"/>
		</g>
		<g>
			<path class="st5" d="M271.9,119.87c-0.33,0.22-31.02,16.01-31.02,16.01l-6.7-3.75l29.39-12.7L271.9,119.87z"/>
		</g>
		<g>
			<polygon class="st10" points="263.02,119.42 260.91,119.42 230.58,130.53 234.18,132.12 			"/>
		</g>
		<g>
			<polygon class="st5" points="164.16,104.38 161.31,106.53 115.73,87.06 116.25,83.85 			"/>
		</g>
		<g>
			<polygon class="st10" points="161.63,101.83 161.63,107.47 159.56,106.56 159.56,100.79 			"/>
		</g>
		<g>
			<polygon class="st10" points="156.98,99.72 156.98,105.36 154.9,104.46 154.9,98.68 			"/>
		</g>
		<g>
			<polygon class="st10" points="152.33,97.61 152.33,103.25 150.25,102.35 150.25,96.58 			"/>
		</g>
		<g>
			<polygon class="st10" points="147.67,95.5 147.67,101.14 145.6,100.24 145.6,94.47 			"/>
		</g>
		<g>
			<polygon class="st10" points="143.02,93.39 143.02,99.03 140.95,98.13 140.95,92.36 			"/>
		</g>
		<g>
			<polygon class="st10" points="138.37,91.29 138.37,96.92 136.3,96.02 136.3,90.25 			"/>
		</g>
		<g>
			<polygon class="st10" points="133.72,89.55 133.72,95.19 131.64,94.29 131.64,88.52 			"/>
		</g>
		<g>
			<polygon class="st10" points="198.77,118.11 198.77,123.75 196.69,122.85 196.69,117.07 			"/>
		</g>
		<g>
			<polygon class="st10" points="129.07,87.57 129.07,93.21 126.99,92.31 126.99,86.53 			"/>
		</g>
		<g>
			<polygon class="st10" points="124.35,85.71 124.35,91.35 122.28,90.44 122.28,84.67 			"/>
		</g>
		<g>
			<polygon class="st10" points="119.64,83.85 119.64,89.49 117.56,88.58 117.56,82.81 			"/>
		</g>
		<g>
			<path class="st5" d="M105.48,84.27c0,0-7.8-2.3-12.53-1.54c1.53-0.65,3.03-1.14,4.46-1.36c0,0,2.94-1.06,8.79,0.51L105.48,84.27z
				"/>
		</g>
		<g>
			<polygon class="st0" points="197.73,151.85 203.54,145.45 206.33,145.67 			"/>
			<path class="st5" d="M197.55,152l0.16-0.18l5.82-6.4l0.01,0l2.85,0.22l-0.06,0.04L197.55,152z M203.55,145.48l-5.64,6.21l8.35-6
				L203.55,145.48z"/>
		</g>
		<g>
			<path class="st8" d="M211.17,105.17l5.02,3.7c0.9,0.66,2.16,0.47,2.83-0.43l0.05-0.07c0.66-0.9,0.47-2.16-0.43-2.83l-5.02-3.7
				c-0.9-0.66-2.16-0.47-2.83,0.43l-0.05,0.07C210.09,103.24,210.28,104.5,211.17,105.17z"/>
		</g>
		<g>
			<path class="st8" d="M253.17,82.68l5.02,3.7c0.9,0.66,2.16,0.47,2.83-0.43l0.05-0.07c0.66-0.9,0.47-2.16-0.43-2.83l-5.02-3.7
				c-0.9-0.66-2.16-0.47-2.83,0.43l-0.05,0.07C252.08,80.75,252.27,82.01,253.17,82.68z"/>
		</g>
		<g>
			<g>
				<path class="st9" d="M193.09,92.06c0,0,19.96,6.31,15.27,16.54c-4.69,10.23-22.93-4.5-22.93-4.5s-2.69-2.22-0.57-7.75
					C186.98,90.83,193.09,92.06,193.09,92.06z"/>
			</g>
			<g>
				<path class="st5" d="M186.64,96.29c0.66-1.26,1.52-2.5,2.78-3.16c1.26-0.66,3.01-0.58,3.92,0.52l0.51,0.46
					c1.22,1.8,1.28,4.32,0.14,6.18c0.11-0.2,0.21-0.41,0.32-0.61c-0.77,2.11-2.36,3.9-4.37,4.9c-0.54,0.27-1.14,0.49-1.75,0.44
					c-0.76-0.07-1.42-0.58-1.88-1.2c-0.79-1.06-1.05-2.45-0.92-3.77C185.53,98.72,186.03,97.47,186.64,96.29z"/>
			</g>
		</g>
		<g class="st11">
			<g>
				<path d="M99.63,96.49c2.82-0.79,5.34,0.69,7.67,2.09c36.63,22.08,77.63,39.71,120.36,39.61c0.98,0,1.86,0.58,2.24,1.49l0,0
					c0.64,1.55-0.46,3.25-2.13,3.32c-45.55,2.06-91.69-12.06-128.26-39.32c-1.38-1.03-2.86-2.25-2.63-4.17
					C97.05,98.05,98.2,96.9,99.63,96.49z"/>
			</g>
		</g>
	</g>
</g>
<g id="Location">
	<g>
		<g>
			<g>
				<g>
					<path class="st12" d="M165.14,204.86c0-6.07-5.49-10.87-11.78-9.69c-3.96,0.74-7.11,3.97-7.8,7.94
						c-0.43,2.48,0.08,4.81,1.21,6.73h-0.01l0.03,0.04c0.38,0.64,0.85,1.09,1.33,1.76l5.73,7.59c0.71,0.94,2.13,0.94,2.84,0
						l5.63-7.46c0,0,1.05-1.25,1.43-1.9l0.02-0.03h0C164.64,208.38,165.14,206.68,165.14,204.86z M155.27,209.15
						c-2.4,0-4.34-1.94-4.34-4.34c0-2.4,1.94-4.34,4.34-4.34c2.4,0,4.34,1.94,4.34,4.34C159.61,207.21,157.67,209.15,155.27,209.15z
						"/>
				</g>
			</g>
		</g>
	</g>
	<g>
		<g>
			<g>
				<g>
					<path class="st9" d="M387.5,118.12c0-13.49-12.19-24.14-26.16-21.52c-8.79,1.65-15.79,8.82-17.33,17.63
						c-0.96,5.5,0.17,10.68,2.69,14.96h-0.01l0.06,0.08c0.84,1.42,1.89,2.43,2.96,3.92l12.72,16.86c1.58,2.1,4.73,2.1,6.32,0
						l12.51-16.58c0,0,2.34-2.78,3.18-4.22l0.05-0.06h-0.01C386.39,125.94,387.5,122.16,387.5,118.12z M365.59,127.66
						c-5.33,0-9.64-4.32-9.64-9.64c0-5.33,4.32-9.64,9.64-9.64c5.33,0,9.64,4.32,9.64,9.64
						C375.23,123.34,370.91,127.66,365.59,127.66z"/>
				</g>
			</g>
		</g>
	</g>
</g>
<g id="Pencil">
	<g>
		<g>
			<g>
				<g>
					<polygon class="st13" points="89.14,291.16 101.66,316.19 157.11,362.79 170.74,345.04 116.3,299.6 					"/>
				</g>
				<g class="st14">
					<g class="st4">
						<path class="st10" d="M116.3,299.6c-0.11,1.11-1.02,1.93-2.08,1.6c1.22,1.67,1.24,4.12,0.05,5.81
							c-1.19,1.69-3.5,2.49-5.49,1.91c0.53,1.98-0.08,4.21-1.54,5.65c-1.46,1.43-3.71,2-5.67,1.44l-12.43-24.84L116.3,299.6z"/>
					</g>
				</g>
				<g>
					<path class="st13" d="M94.18,301.23c0,0,5.28,0.91,6.09-6.61l-11.13-3.46L94.18,301.23z"/>
				</g>
			</g>
		</g>
		<g class="st15">
			<path class="st13" d="M108.78,308.91l54.59,45.19l-6.27,8.69l-55.44-46.6l-0.09-0.19c0,0,1.14,0.39,2.55,0.14
				c0.95-0.17,2.07-0.61,3-1.47c1.2-1.1,1.7-2.46,1.82-3.59C109.08,309.86,108.78,308.91,108.78,308.91z"/>
		</g>
		<g class="st15">
			<path d="M114.22,301.2l54.77,46.12l1.75-2.28L116.3,299.6c0,0-0.09,1.62-1.68,1.68C114.5,301.28,114.36,301.22,114.22,301.2z"/>
		</g>
		<g>
			<g>
				<path class="st10" d="M102.75,307.66c0.01-0.01,0.05,0.12,0.25,0.17c0.19,0.05,0.57-0.02,0.7-0.4c0.13-0.36,0.1-0.88-0.06-1.41
					c-0.09-0.26-0.24-0.53-0.5-0.71c-0.25-0.18-0.6-0.28-0.91-0.15c-0.32,0.12-0.54,0.45-0.67,0.8c-0.13,0.36-0.18,0.76-0.21,1.18
					c-0.04,0.83,0.04,1.74,0.37,2.61c0.17,0.42,0.47,0.84,0.92,0.99c0.44,0.15,0.97,0.01,1.35-0.3c0.76-0.66,1.02-1.79,1.05-2.84
					c0.03-2.16-1.21-4.18-2.88-4.99c-0.42-0.19-0.9-0.18-1.28,0.03c-0.38,0.2-0.68,0.53-0.91,0.87c-0.46,0.69-0.76,1.42-0.96,2.1
					c-0.4,1.37-0.36,2.55-0.27,3.34c0.05,0.4,0.11,0.7,0.16,0.91c0.05,0.2,0.07,0.31,0.07,0.31s-0.16-0.42-0.29-1.21
					c-0.11-0.79-0.16-1.98,0.23-3.38c0.2-0.69,0.49-1.43,0.96-2.15c0.24-0.35,0.54-0.7,0.96-0.92c0.41-0.23,0.95-0.24,1.39-0.04
					c1.75,0.84,3.01,2.91,2.98,5.13c-0.01,0.55-0.1,1.1-0.26,1.61c-0.17,0.51-0.43,1.01-0.85,1.35c-0.41,0.33-0.98,0.5-1.49,0.32
					c-0.51-0.18-0.82-0.64-1-1.08c-0.34-0.91-0.42-1.83-0.37-2.67c0.03-0.42,0.08-0.84,0.22-1.21c0.14-0.37,0.38-0.72,0.74-0.86
					c0.36-0.14,0.75-0.02,1.01,0.18c0.27,0.2,0.43,0.49,0.52,0.76c0.16,0.55,0.19,1.07,0.04,1.46c-0.16,0.41-0.58,0.48-0.77,0.41
					C102.78,307.79,102.75,307.65,102.75,307.66z"/>
			</g>
		</g>
		<g>
			<g>
				<path class="st10" d="M105,296.34c0.02,0.01-0.12,0.3-0.23,0.85c-0.11,0.56-0.14,1.39,0.08,2.39c0.2,1,0.67,2.12,1.25,3.34
					c0.56,1.22,1.24,2.59,1.4,4.17c0.17,1.57-0.2,3.1-0.83,4.3c-0.64,1.22-1.55,2.09-2.4,2.66c-0.86,0.57-1.66,0.86-2.21,1
					c-0.56,0.14-0.87,0.16-0.87,0.16c0-0.01,0.08-0.02,0.22-0.06c0.15-0.03,0.36-0.08,0.64-0.16c0.54-0.16,1.32-0.46,2.16-1.04
					c0.83-0.58,1.72-1.44,2.34-2.64c0.62-1.18,0.97-2.68,0.81-4.22c-0.16-1.54-0.83-2.9-1.38-4.13c-0.57-1.22-1.04-2.37-1.23-3.38
					c-0.2-1.01-0.16-1.86-0.03-2.42C104.84,296.62,105,296.34,105,296.34z"/>
			</g>
		</g>
		<g>
			<g>
				<path class="st10" d="M111.28,297.94c0.04,0.02-0.68,0.27-1.02,1.27c-0.34,0.98-0.38,2.45-0.35,4.04
					c0.05,1.59,0.28,3.03,0.51,4.05c0.11,0.51,0.22,0.92,0.29,1.2c0.08,0.28,0.11,0.44,0.1,0.44c-0.01,0-0.07-0.15-0.16-0.43
					c-0.09-0.28-0.22-0.69-0.34-1.2c-0.26-1.02-0.51-2.46-0.56-4.07c-0.03-0.8,0-1.57,0.05-2.26c0.05-0.69,0.15-1.32,0.35-1.82
					c0.19-0.5,0.49-0.84,0.72-1.02C111.12,297.98,111.28,297.94,111.28,297.94z"/>
			</g>
		</g>
		<g>
			<g>
				<path class="st10" d="M113.67,307.67c-0.02,0.01-0.18-0.3-0.4-0.83c-0.21-0.53-0.48-1.3-0.42-2.19c0.04-0.9,0.52-1.64,1-1.97
					c0.24-0.17,0.46-0.26,0.62-0.3c0.16-0.04,0.25-0.04,0.25-0.03c0.01,0.03-0.36,0.06-0.8,0.41c-0.44,0.33-0.87,1.03-0.91,1.89
					c-0.05,0.85,0.19,1.61,0.37,2.14C113.56,307.33,113.69,307.66,113.67,307.67z"/>
			</g>
		</g>
		<g>
			<g>
				<path class="st10" d="M101.38,294.91c0.01,0,0.03,0.04,0.06,0.12c0.03,0.08,0.08,0.2,0.14,0.36c0.05,0.16,0.12,0.36,0.11,0.6
					c0,0.25-0.1,0.51-0.23,0.78c-0.26,0.54-0.7,1.11-1.11,1.76c-0.42,0.66-0.81,1.42-1.16,2.25c-0.69,1.66-1.07,3.26-1.35,4.41
					c-0.12,0.5-0.22,0.95-0.32,1.36c-0.08,0.32-0.12,0.5-0.14,0.5c-0.01,0,0.02-0.18,0.08-0.51c0.06-0.33,0.15-0.8,0.27-1.38
					c0.25-1.16,0.62-2.76,1.32-4.44c0.35-0.84,0.75-1.61,1.18-2.27c0.43-0.66,0.87-1.21,1.13-1.73c0.32-0.51,0.27-1,0.16-1.31
					C101.43,295.09,101.37,294.92,101.38,294.91z"/>
			</g>
		</g>
	</g>
</g>
<g id="Passport">
	<g>
		<g>
			<g>
				<g>
					<g>
						<path class="st16" d="M216.21,304.5l-48.01,24.47l-39.28-77.08l48.01-24.46c4.17-2.12,9.26-0.47,11.39,3.7l31.59,62
							C222.03,297.28,220.38,302.37,216.21,304.5z"/>
					</g>
				</g>
				<g>
					<g>
						<g>
							<g>
								<path class="st10" d="M189.3,288.44c-0.82,0.73-1.74,1.36-2.74,1.87c-3.15,1.6-6.76,1.84-10.16,0.65
									c-3.4-1.18-6.19-3.63-7.85-6.9c-3.44-6.75-0.95-14.94,5.54-18.25c3.15-1.6,6.76-1.84,10.17-0.65
									c3.4,1.18,6.19,3.63,7.85,6.9c1.66,3.27,2.01,6.96,0.97,10.41C192.35,284.82,191.05,286.87,189.3,288.44z M172,268.39
									c-4.09,3.66-5.32,9.93-2.61,15.25c1.55,3.05,4.15,5.33,7.32,6.43c3.16,1.1,6.51,0.88,9.42-0.6
									c2.92-1.49,5.06-4.07,6.03-7.27c0.97-3.21,0.65-6.65-0.9-9.7l0,0c-1.55-3.05-4.15-5.33-7.32-6.43
									c-3.16-1.1-6.51-0.88-9.42,0.6C173.59,267.14,172.75,267.72,172,268.39z"/>
							</g>
						</g>
						<g>
							<g>
								
									<rect x="167.25" y="277.33" transform="matrix(0.891 -0.454 0.454 0.891 -106.4976 112.0382)" class="st10" width="25.66" height="0.95"/>
							</g>
						</g>
						<g>
							<g>
								
									<rect x="179.54" y="264.98" transform="matrix(0.8911 -0.4539 0.4539 0.8911 -106.6686 112.0037)" class="st10" width="0.95" height="26.51"/>
							</g>
						</g>
						<g>
							<g>
								<path class="st10" d="M186.41,290.17l-0.9-0.32c1.35-3.8,1.9-6.88,1.73-9.7c-0.21-3.38-1.94-7.15-4.32-9.38
									c-2.42-2.27-5.84-3.23-8.85-4.07l0.26-0.92c3.12,0.87,6.66,1.86,9.25,4.3c2.58,2.43,4.39,6.36,4.62,10.02
									C188.44,283.97,187.29,287.7,186.41,290.17z"/>
							</g>
						</g>
						<g>
							<g>
								<path class="st10" d="M185.92,290.51c-3.18-0.74-6.51-1.76-9.37-4.11c-2.83-2.33-4.94-6.11-5.39-9.62
									c-0.45-3.51,0.97-7.32,2.1-10.37l0.89,0.33c-1.1,2.96-2.47,6.64-2.05,9.92c0.41,3.24,2.44,6.86,5.05,9.01
									c2.7,2.23,5.91,3.2,8.98,3.92L185.92,290.51z"/>
							</g>
						</g>
						<g>
							<g>
								<path class="st10" d="M183.4,269.32c-4.4,3.94-10.03,6.45-15.93,7.04l-0.09-0.95c6.95-0.69,13.51-4.15,18-9.5l0.73,0.61
									C185.27,267.53,184.36,268.46,183.4,269.32z"/>
							</g>
						</g>
						<g>
							<g>
								<path class="st10" d="M193.1,280.77c-7.75,0.77-14.55,4.01-18.65,8.89l-0.73-0.61c4.26-5.07,11.29-8.44,19.29-9.23
									L193.1,280.77z"/>
							</g>
						</g>
					</g>
				</g>
				<g>
					<g>
						<g>
							<path class="st5" d="M172.37,326.98c-0.06,0.03-8.87-17.14-19.68-38.35c-10.81-21.22-19.52-38.44-19.46-38.47
								c0.06-0.03,8.87,17.14,19.68,38.36C163.72,309.72,172.43,326.95,172.37,326.98z"/>
						</g>
					</g>
				</g>
				<g>
					<g>
						<g>
							<path class="st10" d="M208.85,297.1c0.03,0.06-6.62,3.51-14.84,7.7c-8.23,4.19-14.93,7.54-14.96,7.48
								c-0.03-0.06,6.61-3.51,14.85-7.7C202.12,300.39,208.81,297.04,208.85,297.1z"/>
						</g>
					</g>
				</g>
				<g>
					<g>
						<g>
							<path class="st10" d="M206.61,301.8c0.03,0.06-4.9,2.63-11,5.74c-6.11,3.11-11.08,5.59-11.12,5.52
								c-0.03-0.06,4.89-2.63,11-5.75C201.6,304.22,206.58,301.74,206.61,301.8z"/>
						</g>
					</g>
				</g>
				<g>
					<g>
						<g>
							<path class="st10" d="M155.07,257.77c0.47,0.93,0.14,1.83-0.86,2.34l-0.64,0.33l0.55,1.07l-1.04,0.53l-2.09-4.1l1.68-0.85
								C153.66,256.57,154.59,256.83,155.07,257.77z M154.02,258.3c-0.19-0.38-0.52-0.49-0.95-0.28l-0.58,0.29l0.61,1.2l0.58-0.29
								C154.11,259.01,154.21,258.68,154.02,258.3z"/>
						</g>
						<g>
							<path class="st10" d="M158.76,258.14l-1.55,0.79l0.12,0.94l-1.06,0.54l-0.47-4.93l1.02-0.52l3.71,3.27l-1.08,0.55
								L158.76,258.14z M158.02,257.44l-1.14-1.07l0.2,1.55L158.02,257.44z"/>
						</g>
						<g>
							<path class="st10" d="M160.38,257.85l-0.1-1.03c0.45,0.07,0.99,0,1.42-0.21c0.43-0.22,0.53-0.44,0.43-0.64
								c-0.33-0.65-2.18,0.89-2.95-0.64c-0.37-0.73-0.14-1.6,0.95-2.16c0.48-0.24,1.03-0.37,1.51-0.32l0.12,1.02
								c-0.46-0.03-0.86,0.04-1.18,0.2c-0.43,0.22-0.51,0.47-0.4,0.67c0.32,0.63,2.16-0.9,2.93,0.61c0.36,0.71,0.14,1.6-0.95,2.15
								C161.55,257.82,160.86,257.94,160.38,257.85z"/>
						</g>
						<g>
							<path class="st10" d="M163.77,256.12l-0.1-1.03c0.45,0.07,0.99,0,1.42-0.21c0.43-0.22,0.53-0.44,0.43-0.64
								c-0.33-0.65-2.17,0.89-2.95-0.64c-0.37-0.73-0.14-1.6,0.95-2.16c0.48-0.24,1.03-0.37,1.51-0.32l0.12,1.02
								c-0.46-0.03-0.86,0.04-1.18,0.2c-0.43,0.22-0.51,0.47-0.4,0.67c0.32,0.63,2.16-0.9,2.93,0.61c0.36,0.71,0.14,1.6-0.95,2.15
								C164.95,256.09,164.26,256.21,163.77,256.12z"/>
						</g>
						<g>
							<path class="st10" d="M169.6,250.36c0.47,0.93,0.14,1.83-0.86,2.34l-0.64,0.33l0.55,1.07l-1.04,0.53l-2.09-4.1l1.68-0.85
								C168.2,249.16,169.12,249.42,169.6,250.36z M168.55,250.9c-0.19-0.38-0.52-0.49-0.95-0.28l-0.58,0.29l0.61,1.2l0.58-0.29
								C168.64,251.6,168.74,251.27,168.55,250.9z"/>
						</g>
						<g>
							<path class="st10" d="M170.24,250.71c-0.63-1.23-0.22-2.57,0.95-3.17s2.5-0.14,3.13,1.09c0.63,1.23,0.22,2.57-0.95,3.17
								C172.19,252.4,170.87,251.94,170.24,250.71z M173.27,249.16c-0.36-0.71-1.03-0.95-1.59-0.67c-0.56,0.28-0.75,0.97-0.39,1.68
								c0.36,0.71,1.03,0.95,1.59,0.67C173.43,250.56,173.63,249.87,173.27,249.16z"/>
						</g>
						<g>
							<path class="st10" d="M176.96,248.49l-0.57,0.29l0.56,1.09l-1.04,0.53l-2.09-4.1l1.68-0.85c1-0.51,1.93-0.25,2.4,0.69
								c0.31,0.6,0.27,1.18-0.06,1.66l1.45,0.89l-1.11,0.57L176.96,248.49z M175.9,246.39l-0.58,0.29l0.61,1.2l0.58-0.29
								c0.43-0.22,0.53-0.55,0.34-0.93C176.66,246.29,176.33,246.17,175.9,246.39z"/>
						</g>
						<g>
							<path class="st10" d="M178.89,244.87l-1.13,0.57l-0.47-0.92l3.29-1.67l0.47,0.92l-1.12,0.57l1.62,3.18l-1.04,0.53
								L178.89,244.87z"/>
						</g>
					</g>
				</g>
				<g>
					<g>
						<g>
							<g>
								<g>
									<path class="st10" d="M202,269.15c0,0,0.85,3.62-3.04,4.68C198.96,273.83,198.32,270.05,202,269.15z"/>
								</g>
							</g>
						</g>
						<g>
							<g>
								<g>
									<path class="st10" d="M202.79,274.9c0,0-0.39,3.23-3.91,2.93C198.88,277.82,199.49,274.52,202.79,274.9z"/>
								</g>
							</g>
						</g>
						<g>
							<g>
								<g>
									<path class="st10" d="M202.09,279.89c0,0-1.34,3.21-4.86,1.87C197.23,281.76,198.81,278.55,202.09,279.89z"/>
								</g>
							</g>
						</g>
						<g>
							<g>
								<g>
									<path class="st10" d="M195.62,273.36c0,0,3.26-0.08,3.45,3.45C199.07,276.81,195.72,276.68,195.62,273.36z"/>
								</g>
							</g>
						</g>
						<g>
							<g>
								<g>
									<path class="st10" d="M196.82,277.13c0,0,2.2,1.1,1.03,3.6C197.85,280.72,195.66,279.45,196.82,277.13z"/>
								</g>
							</g>
						</g>
						<g>
							<g>
								<g>
									<path class="st10" d="M198.79,266.04c0,0,1.63,2.46-0.98,4.31C197.82,270.36,196.3,267.72,198.79,266.04z"/>
								</g>
							</g>
						</g>
						<g>
							<g>
								<g>
									<path class="st10" d="M193.4,265.46c0,0,2.77-0.21,3.14,2.97C196.54,268.43,193.67,268.45,193.4,265.46z"/>
								</g>
							</g>
						</g>
						<g>
							<g>
								<g>
									<path class="st10" d="M193.97,269.98c0,0,3.2-1.19,4.6,2.23C198.57,272.21,195.21,273.23,193.97,269.98z"/>
								</g>
							</g>
						</g>
						<g>
							<g>
								<g>
									<path class="st10" d="M195.52,283.64c0,0,0.01-0.01,0.03-0.03c0.02-0.02,0.06-0.05,0.1-0.09c0.09-0.08,0.22-0.19,0.37-0.34
										c0.31-0.3,0.75-0.77,1.19-1.41c0.45-0.64,0.89-1.47,1.23-2.45c0.17-0.49,0.32-1.01,0.43-1.56
										c0.02-0.14,0.05-0.28,0.07-0.42c0.01-0.07,0.02-0.14,0.04-0.21c0.01-0.07,0.02-0.14,0.02-0.22
										c0.02-0.14,0.03-0.29,0.05-0.44c0.01-0.15,0.01-0.3,0.02-0.44c0-0.07,0.01-0.15,0.01-0.22c0-0.07,0-0.15,0-0.22
										c0-0.15,0-0.29-0.01-0.44c-0.01-0.15-0.02-0.29-0.03-0.43c-0.01-0.07-0.01-0.14-0.02-0.21c-0.01-0.07-0.02-0.14-0.03-0.21
										c-0.02-0.14-0.04-0.28-0.05-0.42c-0.03-0.14-0.05-0.27-0.08-0.4c-0.01-0.07-0.02-0.13-0.04-0.2
										c-0.01-0.07-0.03-0.13-0.05-0.19c-0.03-0.13-0.06-0.26-0.09-0.38c-0.26-1-0.64-1.86-1.02-2.55
										c-0.37-0.69-0.76-1.2-1.02-1.55c-0.14-0.17-0.25-0.3-0.32-0.39c-0.04-0.04-0.06-0.08-0.08-0.1
										c-0.02-0.02-0.03-0.04-0.03-0.04s0.01,0.01,0.03,0.03c0.02,0.02,0.05,0.06,0.09,0.1c0.08,0.09,0.19,0.21,0.33,0.38
										c0.27,0.35,0.66,0.85,1.03,1.54c0.38,0.69,0.76,1.55,1.03,2.55c0.03,0.13,0.06,0.25,0.09,0.38
										c0.01,0.06,0.03,0.13,0.05,0.2c0.01,0.07,0.02,0.13,0.04,0.2c0.02,0.13,0.05,0.27,0.08,0.4c0.02,0.14,0.04,0.28,0.05,0.42
										c0.01,0.07,0.02,0.14,0.03,0.21c0.01,0.07,0.01,0.14,0.02,0.21c0.01,0.14,0.02,0.29,0.03,0.43c0,0.15,0,0.29,0.01,0.44
										c0,0.07,0,0.15,0,0.22c0,0.07-0.01,0.15-0.01,0.22c-0.01,0.15-0.01,0.3-0.02,0.45c-0.02,0.15-0.03,0.29-0.05,0.44
										c-0.01,0.07-0.01,0.14-0.02,0.22c-0.01,0.07-0.02,0.14-0.04,0.21c-0.02,0.14-0.05,0.28-0.07,0.42
										c-0.11,0.55-0.26,1.08-0.43,1.57c-0.35,0.98-0.79,1.81-1.25,2.45c-0.45,0.64-0.89,1.11-1.21,1.41
										c-0.16,0.15-0.29,0.26-0.38,0.34c-0.04,0.04-0.08,0.06-0.1,0.08C195.53,283.63,195.52,283.64,195.52,283.64z"/>
								</g>
							</g>
						</g>
					</g>
				</g>
				<g>
					<g>
						<g>
							<g>
								<g>
									<path class="st10" d="M160.45,290.33c0,0,2.43,2.82,5.57,0.29C166.02,290.61,163.34,287.87,160.45,290.33z"/>
								</g>
							</g>
						</g>
						<g>
							<g>
								<g>
									<path class="st10" d="M164.64,294.34c0,0,2.84,1.59,4.66-1.44C169.3,292.9,166.27,291.45,164.64,294.34z"/>
								</g>
							</g>
						</g>
						<g>
							<g>
								<g>
									<path class="st10" d="M169.08,296.7c0,0,3.38,0.8,4.37-2.83C173.46,293.87,169.93,293.26,169.08,296.7z"/>
								</g>
							</g>
						</g>
						<g>
							<g>
								<g>
									<path class="st10" d="M167.61,287.64c0,0-1.97,2.59,0.76,4.82C168.37,292.46,170.23,289.66,167.61,287.64z"/>
								</g>
							</g>
						</g>
						<g>
							<g>
								<g>
									<path class="st10" d="M169.95,290.82c0,0-0.41,2.43,2.31,2.95C172.25,293.77,172.51,291.24,169.95,290.82z"/>
								</g>
							</g>
						</g>
						<g>
							<g>
								<g>
									<path class="st10" d="M159.82,285.9c0,0,1.03,2.76,4.06,1.75C163.89,287.65,162.64,284.87,159.82,285.9z"/>
								</g>
							</g>
						</g>
						<g>
							<g>
								<g>
									<path class="st10" d="M162.52,281.2c0,0-1.8,2.12,0.56,4.28C163.08,285.48,164.78,283.18,162.52,281.2z"/>
								</g>
							</g>
						</g>
						<g>
							<g>
								<g>
									<path class="st10" d="M165.84,284.31c0,0-2.84,1.88-0.9,5.03C164.94,289.35,167.74,287.22,165.84,284.31z"/>
								</g>
							</g>
						</g>
						<g>
							<g>
								<g>
									<path class="st10" d="M175.99,293.59c0,0-0.02,0-0.04,0.01c-0.03,0.01-0.07,0.02-0.13,0.03c-0.11,0.02-0.28,0.07-0.49,0.1
										c-0.43,0.08-1.06,0.15-1.85,0.13c-0.78-0.02-1.71-0.15-2.71-0.44c-0.5-0.15-1.01-0.34-1.52-0.57
										c-0.13-0.06-0.25-0.13-0.38-0.19c-0.06-0.03-0.13-0.06-0.19-0.1c-0.06-0.03-0.13-0.07-0.19-0.11
										c-0.13-0.07-0.25-0.15-0.38-0.22c-0.12-0.08-0.25-0.16-0.37-0.24c-0.06-0.04-0.12-0.08-0.19-0.12
										c-0.06-0.04-0.12-0.09-0.18-0.13c-0.12-0.09-0.24-0.17-0.35-0.26c-0.11-0.09-0.22-0.19-0.33-0.28
										c-0.05-0.05-0.11-0.09-0.16-0.14c-0.05-0.05-0.1-0.1-0.15-0.15c-0.1-0.1-0.2-0.19-0.3-0.29c-0.1-0.1-0.19-0.2-0.28-0.3
										c-0.05-0.05-0.09-0.1-0.14-0.15c-0.05-0.05-0.09-0.1-0.13-0.15c-0.09-0.1-0.17-0.2-0.25-0.3c-0.66-0.8-1.13-1.61-1.46-2.32
										c-0.34-0.71-0.52-1.32-0.65-1.73c-0.06-0.21-0.09-0.38-0.12-0.49c-0.01-0.05-0.02-0.1-0.03-0.13
										c-0.01-0.03-0.01-0.04-0.01-0.04s0,0.01,0.01,0.04c0.01,0.03,0.02,0.07,0.03,0.13c0.03,0.11,0.06,0.28,0.12,0.49
										c0.13,0.42,0.3,1.03,0.64,1.74c0.34,0.71,0.8,1.53,1.46,2.33c0.08,0.1,0.17,0.2,0.25,0.3c0.04,0.05,0.08,0.1,0.13,0.15
										c0.05,0.05,0.09,0.1,0.14,0.15c0.09,0.1,0.19,0.2,0.28,0.3c0.1,0.1,0.2,0.19,0.31,0.29c0.05,0.05,0.1,0.1,0.15,0.15
										c0.05,0.05,0.11,0.09,0.16,0.14c0.11,0.09,0.22,0.19,0.33,0.28c0.12,0.09,0.23,0.18,0.35,0.26
										c0.06,0.04,0.12,0.09,0.18,0.13c0.06,0.04,0.12,0.08,0.19,0.12c0.13,0.08,0.25,0.16,0.37,0.24
										c0.13,0.07,0.26,0.15,0.38,0.22c0.06,0.04,0.13,0.07,0.19,0.11c0.06,0.03,0.13,0.06,0.19,0.1
										c0.13,0.06,0.26,0.13,0.38,0.19c0.51,0.23,1.03,0.43,1.52,0.57c1,0.29,1.93,0.42,2.72,0.43c0.79,0.02,1.42-0.07,1.85-0.15
										c0.22-0.04,0.38-0.08,0.49-0.11c0.06-0.01,0.1-0.02,0.13-0.03C175.97,293.6,175.99,293.59,175.99,293.59z"/>
								</g>
							</g>
						</g>
					</g>
				</g>
			</g>
		</g>
	</g>
</g>
<g id="Book">
	<g>
		<g>
			<g>
				<path class="st8" d="M409.4,353.5l-2.27,5.7c0,0-33.09-25.25-58.61-23.1l0,0c-1.16,0.92-2.85,1.23-4.5,0.82l-9.5-2.35
					c-2.04-0.55-3.62-2.09-3.97-3.88l0,0c0,0-19.26-15.92-45.37-13.44l-9.73,0.41l41.16-68.19l112.34,18.11L409.4,353.5z"/>
			</g>
		</g>
		<g>
			<g>
				<path class="st2" d="M418.08,347.3l-3.78,10.36c0,0-30.99-30.43-74.26-23.72l25.93-47.17
					C365.96,286.77,418.75,335.73,418.08,347.3z"/>
			</g>
		</g>
		<g>
			<g>
				<g>
					<path class="st10" d="M449.92,273.86c0,0-35.12-42.79-81.6-14.39l-28.28,74.46c0,0,51.75-20.76,81.43,16.97L449.92,273.86z"/>
				</g>
				<g>
					<g>
						<path class="st5" d="M449.92,273.86c0,0-0.15,0.48-0.49,1.41c-0.34,0.94-0.84,2.32-1.49,4.11c-1.32,3.62-3.25,8.9-5.71,15.63
							c-4.96,13.5-12.05,32.79-20.57,55.98l-0.14,0.37l-0.25-0.31c-3.95-5-8.89-9.62-14.75-13.34c-5.87-3.68-12.67-6.37-19.94-7.81
							c-7.27-1.43-14.98-1.75-22.76-1c-3.89,0.36-7.8,0.97-11.7,1.83c-3.89,0.85-7.8,1.91-11.6,3.31c-0.14,0.05-0.28,0.11-0.41,0.16
							l-0.55,0.21l0.21-0.54c10.29-27.06,19.98-52.54,28.31-74.45l0.03-0.07l0.07-0.04c5.79-3.54,11.82-6.18,17.82-7.77
							c5.99-1.6,11.93-2.15,17.45-1.86c5.54,0.27,10.65,1.42,15.18,2.96c4.55,1.54,8.53,3.46,11.98,5.44
							c6.9,3.99,11.68,8.13,14.79,11.05c1.55,1.47,2.68,2.67,3.41,3.49c0.37,0.41,0.64,0.73,0.82,0.95
							C449.84,273.74,449.92,273.86,449.92,273.86s-0.1-0.1-0.29-0.31c-0.2-0.22-0.48-0.52-0.85-0.92c-0.76-0.8-1.89-1.98-3.46-3.43
							c-3.13-2.88-7.93-6.97-14.82-10.92c-3.45-1.96-7.43-3.85-11.95-5.37c-4.52-1.51-9.6-2.64-15.1-2.89
							c-5.49-0.27-11.38,0.29-17.32,1.89c-5.95,1.59-11.93,4.22-17.69,7.75l0.09-0.11c-8.32,21.92-17.98,47.4-28.25,74.48
							l-0.34-0.33c0.14-0.05,0.28-0.11,0.42-0.16c3.84-1.41,7.76-2.47,11.67-3.33c3.92-0.86,7.85-1.47,11.76-1.83
							c7.82-0.75,15.58-0.42,22.91,1.03c7.32,1.46,14.18,4.18,20.1,7.9c5.9,3.76,10.87,8.42,14.84,13.47l-0.38,0.06
							c8.58-23.12,15.72-42.35,20.72-55.82c2.51-6.72,4.48-12.01,5.83-15.62c0.68-1.79,1.2-3.17,1.55-4.12
							C449.72,274.35,449.92,273.86,449.92,273.86z"/>
					</g>
				</g>
			</g>
		</g>
		<g>
			<g>
				<path class="st1" d="M339.6,333.8c0,0-31.21-32.6-65.86-20.29l30.64-66.42l62.97,14.94L339.6,333.8z"/>
				<path class="st5" d="M339.78,334.72l-0.54-0.57c-0.31-0.32-31.38-32.23-65.33-20.17l-1.12,0.4l31.31-67.86l0.4,0.09l63.52,15.08
					l-0.21,0.54L339.78,334.72z M289.74,310.26c25.25,0,46.06,19.13,49.67,22.65l27.26-70.51l-62.01-14.72l-29.98,64.98
					C279.8,310.98,284.86,310.26,289.74,310.26z"/>
			</g>
		</g>
		<g>
			<g>
				<g>
					<path class="st10" d="M368.32,259.47c0,0-6.32-29.08-35.13-35.92l-18.61-3.88l-32.37,66.22c0,0,46.51,10.09,57.89,47.58
						L368.32,259.47z"/>
				</g>
				<g>
					<g>
						<path class="st5" d="M368.32,259.47c0,0-0.03,0.12-0.11,0.35c-0.09,0.24-0.21,0.58-0.37,1.02c-0.34,0.92-0.84,2.25-1.48,3.98
							c-1.32,3.5-3.24,8.6-5.69,15.09c-4.93,13-11.96,31.52-20.36,53.66l-0.24,0.62l-0.2-0.64c-1.54-5.05-3.92-10.07-7.08-14.8
							c-0.76-1.2-1.67-2.32-2.51-3.49c-0.94-1.1-1.81-2.27-2.83-3.33c-1.94-2.21-4.13-4.24-6.4-6.23
							c-9.2-7.86-20.7-13.9-33.18-17.93c-1.91-0.6-3.83-1.16-5.73-1.6l-0.32-0.07l0.14-0.29c11.91-24.33,23-46.99,32.41-66.21
							l0.08-0.15l0.17,0.04c5.29,1.11,10.35,2.17,15.17,3.18c4.84,0.85,9.35,2.34,13.29,4.27c7.9,3.96,13.39,9.64,17,14.76
							c3.65,5.14,5.6,9.73,6.77,12.87c0.58,1.58,0.95,2.81,1.17,3.65C368.25,259.03,368.32,259.47,368.32,259.47
							s-0.04-0.11-0.09-0.32c-0.06-0.23-0.15-0.54-0.27-0.94c-0.25-0.83-0.64-2.05-1.23-3.62c-1.21-3.11-3.19-7.67-6.85-12.77
							c-3.61-5.07-9.1-10.68-16.95-14.58c-3.93-1.91-8.36-3.36-13.21-4.2c-4.82-1-9.88-2.05-15.17-3.14l0.24-0.12
							c-9.38,19.22-20.45,41.89-32.34,66.24l-0.18-0.37c1.93,0.45,3.85,1.01,5.77,1.61c6.28,2.02,12.29,4.56,17.9,7.57
							c5.62,3,10.82,6.51,15.45,10.47c2.29,2,4.49,4.06,6.44,6.29c1.02,1.07,1.9,2.25,2.84,3.36c0.85,1.18,1.76,2.31,2.53,3.52
							c3.18,4.77,5.56,9.84,7.11,14.93l-0.43-0.02c8.47-22.09,15.55-40.57,20.52-53.54c2.5-6.47,4.46-11.56,5.81-15.06
							c0.68-1.73,1.19-3.06,1.55-3.97c0.18-0.44,0.31-0.78,0.41-1.02C368.26,259.59,368.32,259.47,368.32,259.47z"/>
					</g>
				</g>
			</g>
		</g>
		<g>
			<g>
				<g>
					<path class="st0" d="M321.52,234.65c-0.02,0.24,2.93,0.73,7.46,2.28c4.52,1.54,10.56,4.37,16.23,8.69
						c5.64,4.34,9.65,9.2,11.98,12.91c2.35,3.71,3.29,6.21,3.56,6.15c0.1-0.02-0.06-0.65-0.44-1.79c-0.35-1.14-1.08-2.77-2.16-4.72
						c-2.14-3.9-6.15-9.02-11.98-13.5c-5.85-4.47-12.2-7.27-16.9-8.62c-2.35-0.68-4.3-1.1-5.64-1.26
						C322.27,234.61,321.53,234.56,321.52,234.65z"/>
				</g>
			</g>
		</g>
		<g>
			<g>
				<g>
					<path class="st0" d="M316.6,241.74c-0.02,0.24,2.93,0.73,7.46,2.28c4.52,1.54,10.56,4.37,16.23,8.69
						c5.64,4.34,9.65,9.2,11.98,12.91c2.35,3.71,3.29,6.21,3.56,6.15c0.1-0.02-0.06-0.65-0.44-1.79c-0.35-1.14-1.08-2.77-2.16-4.72
						c-2.14-3.9-6.15-9.02-11.98-13.5c-5.85-4.47-12.2-7.27-16.9-8.62c-2.35-0.68-4.3-1.1-5.64-1.26
						C317.35,241.7,316.61,241.65,316.6,241.74z"/>
				</g>
			</g>
		</g>
		<g>
			<g>
				<g>
					<path class="st0" d="M313.22,250.13c-0.03,0.24,2.93,0.73,7.46,2.28c4.52,1.54,10.56,4.37,16.23,8.69
						c5.64,4.34,9.65,9.2,11.98,12.91c2.35,3.71,3.29,6.21,3.56,6.15c0.1-0.02-0.06-0.65-0.44-1.79c-0.35-1.14-1.08-2.77-2.16-4.72
						c-2.14-3.9-6.15-9.02-11.98-13.5c-5.85-4.47-12.2-7.27-16.9-8.62c-2.35-0.68-4.3-1.1-5.64-1.26
						C313.97,250.1,313.23,250.04,313.22,250.13z"/>
				</g>
			</g>
		</g>
		<g>
			<g>
				<g>
					<path class="st0" d="M308.63,257.45c-0.03,0.23,2.93,0.73,7.46,2.28c4.52,1.54,10.56,4.37,16.23,8.69
						c5.64,4.34,9.65,9.2,11.98,12.91c2.35,3.71,3.29,6.21,3.56,6.15c0.1-0.02-0.06-0.65-0.44-1.79c-0.35-1.14-1.08-2.77-2.16-4.72
						c-2.14-3.9-6.15-9.02-11.98-13.5c-5.85-4.47-12.2-7.27-16.9-8.62c-2.35-0.68-4.3-1.1-5.64-1.26
						C309.38,257.42,308.64,257.36,308.63,257.45z"/>
				</g>
			</g>
		</g>
		<g>
			<g>
				<g>
					<path class="st0" d="M303.61,265.11c-0.03,0.24,2.93,0.73,7.46,2.28c4.52,1.54,10.56,4.37,16.23,8.69
						c5.64,4.34,9.65,9.2,11.98,12.91c2.35,3.71,3.29,6.21,3.56,6.15c0.1-0.02-0.06-0.65-0.44-1.79c-0.35-1.14-1.08-2.77-2.16-4.72
						c-2.14-3.9-6.15-9.02-11.98-13.5c-5.85-4.47-12.2-7.27-16.9-8.62c-2.35-0.68-4.3-1.1-5.64-1.26
						C304.36,265.07,303.62,265.02,303.61,265.11z"/>
				</g>
			</g>
		</g>
		<g>
			<g>
				<g>
					<path class="st0" d="M297.57,273.54c-0.03,0.24,3.19,0.76,8.1,2.53c2.47,0.83,5.29,2.13,8.36,3.64
						c3.02,1.61,6.24,3.52,9.41,5.78c3.14,2.29,5.92,4.68,8.27,6.99c2.26,2.36,4.22,4.56,5.55,6.55c2.79,3.94,3.77,6.66,4.05,6.61
						c0.1-0.02-0.09-0.7-0.53-1.94c-0.19-0.63-0.53-1.37-0.98-2.22c-0.41-0.86-0.92-1.83-1.62-2.85c-1.25-2.1-3.17-4.41-5.44-6.88
						c-2.36-2.41-5.18-4.89-8.4-7.24c-3.25-2.32-6.58-4.25-9.71-5.84c-3.18-1.5-6.11-2.74-8.68-3.48c-1.26-0.43-2.43-0.71-3.46-0.95
						c-1.02-0.26-1.91-0.44-2.65-0.52C298.38,273.52,297.58,273.45,297.57,273.54z"/>
				</g>
			</g>
		</g>
		<g>
			<g>
				<g>
					<path class="st0" d="M294.66,280.93c-0.03,0.24,3.21,0.76,8.1,2.61c2.47,0.87,5.26,2.24,8.3,3.83c2.98,1.68,6.15,3.7,9.26,6.05
						c3.07,2.39,5.77,4.86,8.07,7.22c2.2,2.42,4.11,4.66,5.42,6.68c2.74,3.99,3.74,6.72,4.01,6.67c0.1-0.02-0.09-0.71-0.52-1.95
						c-0.19-0.63-0.53-1.37-0.96-2.23c-0.41-0.86-0.9-1.84-1.58-2.87c-1.22-2.12-3.09-4.47-5.29-6.99c-2.3-2.46-5.04-5.03-8.19-7.47
						c-3.19-2.41-6.46-4.45-9.56-6.12c-3.15-1.58-6.07-2.89-8.64-3.67c-1.26-0.45-2.43-0.76-3.47-1c-1.03-0.27-1.92-0.46-2.66-0.55
						C295.48,280.91,294.67,280.84,294.66,280.93z"/>
				</g>
			</g>
		</g>
		<g>
			<g>
				<g>
					<path class="st0" d="M359.32,318.73c0.16,0.2,2.78-1.32,7.6-2.75c4.78-1.44,11.96-2.56,20.03-1.52
						c8.07,1.05,15.07,4.01,19.66,6.67c4.64,2.65,7.08,4.84,7.26,4.68c0.07-0.05-0.47-0.66-1.58-1.64
						c-1.11-0.99-2.83-2.33-5.13-3.79c-4.56-2.92-11.77-6.14-20.15-7.23c-8.38-1.09-15.8,0.24-20.57,1.94
						c-2.41,0.84-4.23,1.73-5.41,2.42C359.84,318.2,359.26,318.66,359.32,318.73z"/>
				</g>
			</g>
		</g>
		<g>
			<g>
				<g>
					<path class="st0" d="M363.23,309.26c0.16,0.2,2.78-1.32,7.6-2.75c4.78-1.44,11.96-2.56,20.03-1.52
						c8.07,1.05,15.07,4.01,19.66,6.67c4.64,2.65,7.08,4.84,7.26,4.68c0.07-0.05-0.47-0.66-1.58-1.64
						c-1.11-0.99-2.82-2.33-5.13-3.79c-4.56-2.92-11.77-6.14-20.15-7.23c-8.38-1.09-15.8,0.24-20.57,1.94
						c-2.41,0.84-4.23,1.73-5.41,2.42C363.75,308.73,363.17,309.19,363.23,309.26z"/>
				</g>
			</g>
		</g>
		<g>
			<g>
				<g>
					<path class="st0" d="M367.13,299.79c0.16,0.2,2.78-1.32,7.6-2.75c4.78-1.44,11.96-2.56,20.03-1.52
						c8.07,1.05,15.07,4.01,19.65,6.67c4.64,2.65,7.08,4.84,7.26,4.68c0.07-0.05-0.47-0.66-1.58-1.64
						c-1.11-0.99-2.83-2.33-5.13-3.79c-4.56-2.92-11.77-6.14-20.15-7.23c-8.38-1.09-15.8,0.24-20.57,1.94
						c-2.41,0.84-4.23,1.73-5.41,2.42C367.66,299.26,367.07,299.71,367.13,299.79z"/>
				</g>
			</g>
		</g>
		<g>
			<g>
				<g>
					<path class="st0" d="M371.04,290.31c0.16,0.2,2.78-1.32,7.6-2.75c4.78-1.44,11.96-2.56,20.03-1.52
						c8.07,1.05,15.07,4.01,19.66,6.67c4.64,2.65,7.08,4.84,7.26,4.68c0.07-0.05-0.47-0.66-1.58-1.64
						c-1.11-0.99-2.83-2.33-5.13-3.79c-4.56-2.92-11.77-6.14-20.15-7.23c-8.38-1.09-15.8,0.24-20.57,1.95
						c-2.41,0.84-4.23,1.73-5.41,2.42C371.57,289.79,370.98,290.24,371.04,290.31z"/>
				</g>
			</g>
		</g>
		<g>
			<g>
				<g>
					<path class="st0" d="M374.95,280.84c0.16,0.2,2.78-1.32,7.6-2.75c4.78-1.44,11.96-2.56,20.03-1.52
						c8.07,1.05,15.07,4.01,19.66,6.67c4.64,2.65,7.08,4.84,7.26,4.68c0.07-0.05-0.47-0.66-1.58-1.64
						c-1.11-0.99-2.83-2.33-5.13-3.79c-4.56-2.92-11.77-6.14-20.15-7.23c-8.38-1.09-15.8,0.24-20.57,1.94
						c-2.41,0.84-4.23,1.73-5.41,2.42C375.48,280.31,374.89,280.77,374.95,280.84z"/>
				</g>
			</g>
		</g>
		<g>
			<g>
				<g>
					<path class="st0" d="M378.86,271.37c0.16,0.2,2.78-1.32,7.6-2.75c4.78-1.44,11.96-2.56,20.03-1.52
						c8.07,1.05,15.07,4.01,19.65,6.67c4.64,2.65,7.08,4.84,7.26,4.68c0.07-0.05-0.47-0.66-1.58-1.64
						c-1.11-0.99-2.83-2.33-5.13-3.79c-4.56-2.92-11.77-6.14-20.15-7.23c-8.38-1.09-15.8,0.24-20.57,1.95
						c-2.41,0.84-4.23,1.73-5.41,2.42C379.38,270.84,378.8,271.3,378.86,271.37z"/>
				</g>
			</g>
		</g>
	</g>
</g>
<g id="Character_00000117643974164102315750000009602833775446383522_">
	<g>
		<g>
			<g>
				<path class="st5" d="M134.7,472.75h-0.85c-3.98,0-7.2-3.22-7.2-7.2V425.2c0-3.98,3.22-7.2,7.2-7.2h0.85c3.98,0,7.2,3.22,7.2,7.2
					v40.35C141.9,469.52,138.68,472.75,134.7,472.75z"/>
			</g>
			<g>
				<path class="st5" d="M187.81,484.12c0,0-19.88-0.02-28.65,0c-8.77,0.02-18.2,1-22.01-4.17c-2.98-4.05-2.46-9.39-2.24-14.23
					c0.64-13.62,1.29-27.24,1.93-40.86c0.17-3.69,0.37-7.46,1.91-10.91c1.54-3.45,8.49-51.18,12.67-51.98h35.42L187.81,484.12z"/>
			</g>
			<g>
				<g>
					<path class="st8" d="M180.36,462.29c0,0.14-9.49,0.26-21.2,0.26c-11.71,0-21.2-0.12-21.2-0.26s9.49-0.26,21.2-0.26
						C170.87,462.02,180.36,462.14,180.36,462.29z"/>
				</g>
			</g>
			<g>
				<g>
					<path class="st8" d="M163.47,406.96c0.14,0,0.26,12.37,0.26,27.61c0,15.25-0.12,27.62-0.26,27.62s-0.26-12.36-0.26-27.62
						C163.21,419.32,163.33,406.96,163.47,406.96z"/>
				</g>
			</g>
			<g>
				<g>
					<path class="st8" d="M136.96,469.52c-0.02,0-0.04-0.17-0.06-0.51c-0.02-0.39-0.04-0.87-0.07-1.46
						c-0.05-1.26-0.11-3.09-0.16-5.36c-0.1-4.52-0.16-10.77-0.1-17.68c0.06-6.91,0.22-13.16,0.4-17.68
						c0.09-2.26,0.17-4.09,0.25-5.35c0.04-0.58,0.07-1.06,0.1-1.45c0.03-0.33,0.05-0.51,0.07-0.51c0.02,0,0.03,0.18,0.04,0.51
						c0,0.39,0,0.87,0,1.46c-0.02,1.34-0.05,3.15-0.08,5.36c-0.06,4.59-0.15,10.81-0.24,17.67c-0.02,6.86-0.04,13.07-0.05,17.67
						c0,2.2-0.01,4.01-0.01,5.36c-0.01,0.58-0.02,1.06-0.02,1.46C136.99,469.35,136.98,469.52,136.96,469.52z"/>
				</g>
			</g>
		</g>
		<g>
			<g>
				<path class="st12" d="M332.89,292.88c0,0,15.55,2.96,23.46,28.07c9.05,28.71,24.32,87.57,24.2,94.36s-17.44,17.67-17.44,17.67
					l-24.81-8.27l-13.02-48.98L332.89,292.88z"/>
			</g>
			<g>
				<path class="st17" d="M332.89,292.88l-38.27-14.19l-2.62-3.36l-49.34,1.53l-3.72,2.36c0,0-37.08,8.14-40.93,8.63
					c-8.99,1.15-18.43,13.53-18.43,13.53c-0.95,1.16-47.56,68.94-47.56,68.94l10.9,42.65c0,0,5.13,1.81,19.87-7.86
					c11.68-7.67,20.77-19.81,24.04-24.52l-0.06,103.54h144.54l-7.87-65.67L332.89,292.88z"/>
			</g>
			<g class="st3">
				<g class="st4">
					<path class="st18" d="M325.55,361.1c-0.02,0,0-0.18,0.06-0.51c0.07-0.39,0.17-0.87,0.28-1.45c0.27-1.33,0.63-3.13,1.07-5.32
						c0.89-4.49,2.04-10.71,3.08-17.62c1.04-6.91,1.77-13.19,2.24-17.75c0.22-2.22,0.41-4.04,0.55-5.4
						c0.06-0.59,0.12-1.07,0.16-1.47c0.04-0.33,0.07-0.51,0.09-0.51c0.02,0,0.02,0.18,0.01,0.52c-0.02,0.4-0.04,0.88-0.06,1.47
						c-0.06,1.28-0.19,3.13-0.38,5.42c-0.38,4.57-1.06,10.87-2.1,17.79c-1.04,6.92-2.25,13.14-3.23,17.62
						c-0.49,2.24-0.91,4.05-1.23,5.29c-0.15,0.57-0.27,1.04-0.37,1.43C325.62,360.93,325.57,361.1,325.55,361.1z"/>
				</g>
			</g>
			<g class="st3">
				<g class="st4">
					<path class="st18" d="M182.25,333.38c0.02,0,0.06,0.21,0.13,0.62c0.07,0.47,0.16,1.06,0.28,1.8c0.23,1.56,0.54,3.83,0.88,6.63
						c0.69,5.61,1.5,13.38,2.13,21.98c0.63,8.6,0.95,16.41,1.08,22.06c0.07,2.82,0.1,5.11,0.09,6.69c-0.01,0.75-0.01,1.35-0.01,1.82
						c-0.01,0.42-0.02,0.63-0.04,0.63c-0.02,0-0.04-0.22-0.06-0.63c-0.02-0.47-0.05-1.07-0.08-1.82c-0.06-1.64-0.15-3.91-0.26-6.68
						c-0.23-5.64-0.61-13.44-1.23-22.03c-0.63-8.59-1.38-16.36-1.98-21.97c-0.3-2.76-0.54-5.01-0.71-6.65
						c-0.07-0.74-0.13-1.34-0.18-1.81C182.24,333.61,182.23,333.39,182.25,333.38z"/>
				</g>
			</g>
			<g class="st3">
				<g class="st4">
					<path class="st18" d="M294.61,283.82c0.01,0.01-0.16,0.19-0.51,0.5c-0.35,0.32-0.86,0.77-1.54,1.35
						c-1.35,1.15-3.34,2.79-5.88,4.7c-2.56,1.88-5.63,4.14-9.44,5.99c-3.85,1.77-8.44,2.88-13.3,3.14
						c-4.86,0.25-9.58-0.3-13.54-1.86c-3.95-1.57-7.02-4.04-9.05-6.5c-2.04-2.48-3.1-4.9-3.58-6.62c-0.23-0.86-0.38-1.54-0.42-2.01
						c-0.06-0.46-0.09-0.71-0.07-0.71c0.02,0,0.08,0.24,0.17,0.69c0.08,0.46,0.26,1.12,0.51,1.97c0.53,1.68,1.62,4.04,3.66,6.44
						c2.03,2.39,5.07,4.78,8.94,6.29c3.88,1.5,8.54,2.03,13.33,1.78c4.8-0.26,9.34-1.34,13.13-3.06c3.76-1.8,6.85-4.02,9.42-5.85
						c2.56-1.86,4.58-3.46,5.97-4.56c0.66-0.53,1.19-0.95,1.6-1.27C294.41,283.96,294.6,283.81,294.61,283.82z"/>
				</g>
			</g>
		</g>
		<g>
			<g class="st15">
				<g>
					<path d="M220.8,331.75c-5.76,3.99-6.46,12.07-6.79,19.07c-1.35,28.74-19.69,83.61-27.23,111.37
						C210.53,425.51,225.09,375.24,220.8,331.75z"/>
				</g>
			</g>
			<g>
				<path class="st5" d="M222.37,282.82c0,0-1.92,61.84-7.22,98.96c-5.3,37.11-31.02,86.51-31.02,86.51l-4.14-8.09
					c0,0,14.22-41.23,20.65-75.76c4.55-24.42,0-97.98,0-97.98S210.03,279.94,222.37,282.82z"/>
			</g>
			<g class="st3">
				<g class="st4">
					<path class="st8" d="M208.72,344.06c-0.14-0.01,0.19-12.88,0.75-28.76c0.56-15.88,1.13-28.75,1.27-28.75
						c0.14,0.01-0.19,12.88-0.75,28.76C209.43,331.2,208.86,344.07,208.72,344.06z"/>
				</g>
			</g>
		</g>
		<g>
			<g>
				<g>
					<path class="st19" d="M128.6,347.61l-4.93,12.74c0,0-6.54,13.33-6.04,22.38c0.5,9.05,11.92,42.16,34.99,31.43
						c23.07-10.73,11.56-28.16,11.56-28.16l-10.84-29.68l-17.01-11.19C133.56,343.31,129.81,344.51,128.6,347.61z"/>
				</g>
				<g>
					<path class="st20" d="M155.84,312.21c1.51,2.01,10.22-0.3,12.2,3.77c1.98,4.07,0,7.14,0,7.14s3.4,3.93,0.88,8.96
						c0,0,1.36,2.77,0.93,6.04c-0.43,3.27-2.93,5.28-2.93,5.28s0.73,3.52-2.28,5.53c-3.02,2.01-10.94,3.54-10.94,3.54l-3.27,6.02
						c0,0-4.51,5.03-10.12,2.77c-5.61-2.26-9.38-13.41-9.38-13.41c0.25-1.43,6.54-11.84,6.54-11.84s1.26-15.49,4.02-19.27
						s4.02-4.53,4.02-4.53s2.41-5.17,2.41-7.39c0-2.22-2.06-9.32-0.83-10.76c1.24-1.45,6.31-0.44,8.53,5.43
						C157.86,305.36,155.84,312.21,155.84,312.21z"/>
				</g>
				<g>
					<g>
						<path class="st21" d="M167.75,322.65c-0.03,0.16-3-0.37-6.69-0.38c-3.69-0.03-6.67,0.45-6.69,0.3
							c-0.01-0.07,0.72-0.27,1.93-0.47c1.21-0.2,2.9-0.36,4.77-0.35c1.87,0.01,3.56,0.2,4.76,0.41
							C167.04,322.37,167.77,322.59,167.75,322.65z"/>
					</g>
				</g>
				<g>
					<g>
						<path class="st21" d="M168.44,332.88c-0.03,0.16-2.82-0.41-6.31-0.41c-3.48-0.02-6.28,0.52-6.31,0.37
							c-0.04-0.12,2.76-0.91,6.31-0.89C165.69,331.95,168.48,332.76,168.44,332.88z"/>
					</g>
				</g>
				<g>
					<g>
						<path class="st21" d="M167.74,343.21c0.04,0.12-2.37,0.95-5.47,1.17c-3.11,0.24-5.61-0.22-5.59-0.35
							c0.02-0.16,2.5,0.07,5.55-0.17C165.28,343.65,167.7,343.06,167.74,343.21z"/>
					</g>
				</g>
				<g>
					<g>
						<path class="st21" d="M160.1,350.64c0.02,0.05-0.82,0.54-2.31,1.02c-1.49,0.49-3.65,0.89-6.05,0.81
							c-2.4-0.09-4.53-0.66-5.98-1.26c-1.45-0.59-2.26-1.15-2.23-1.19c0.06-0.17,3.5,1.79,8.22,1.93
							C156.48,352.16,160.06,350.46,160.1,350.64z"/>
					</g>
				</g>
				<g>
					<g>
						<path class="st21" d="M160.19,313.49c-0.03,0.16-3.23-0.52-7.22-0.38c-3.99,0.11-7.15,1-7.19,0.84
							c-0.02-0.06,0.75-0.36,2.04-0.68c1.29-0.32,3.11-0.61,5.13-0.68c2.03-0.06,3.86,0.12,5.17,0.35
							C159.42,313.18,160.2,313.43,160.19,313.49z"/>
					</g>
				</g>
				<g class="st3">
					<g class="st4">
						<path class="st5" d="M161.93,400.88c-0.05-0.02,0.26-0.63,0.7-1.77c0.45-1.13,1-2.82,1.32-4.98c0.3-2.15,0.42-4.77-0.09-7.6
							c-0.47-2.84-1.59-5.84-3.41-8.62c-1.82-2.77-3.84-5.32-4.96-8.06c-1.17-2.69-1.72-5.29-2.1-7.45
							c-0.36-2.17-0.53-3.94-0.65-5.17c-0.04-0.56-0.08-1.03-0.11-1.41c-0.02-0.32-0.02-0.49,0-0.5c0.02,0,0.05,0.16,0.11,0.48
							c0.06,0.38,0.12,0.84,0.2,1.4c0.17,1.21,0.4,2.98,0.81,5.12c0.42,2.14,1.01,4.69,2.18,7.32c1.12,2.66,3.11,5.15,4.96,7.97
							c1.86,2.83,3,5.92,3.45,8.82c0.5,2.89,0.34,5.57-0.02,7.74c-0.37,2.18-0.99,3.88-1.5,5c-0.23,0.57-0.48,0.98-0.63,1.27
							C162.03,400.74,161.95,400.89,161.93,400.88z"/>
					</g>
				</g>
			</g>
			<g>
				<g class="st15">
					<g>
						<path d="M152.94,355.04c0.13,0.54,0.29,1.06,0.46,1.59c0-0.55,0-1.1,0-1.64L152.94,355.04z"/>
					</g>
				</g>
				<g class="st15">
					<g>
						<path d="M162.86,372.89c-3.42-5.28-7.52-10.33-9.45-16.26c0.01,5.05,0.24,10.19,2.35,14.74c1.38,2.99,3.51,5.57,5.28,8.35
							c1.77,2.78,3.22,5.96,3,9.25c-0.08,1.17-0.37,2.36-0.08,3.49s1.45,2.18,2.55,1.78c0.83-0.3,1.23-1.23,1.45-2.08
							C169.67,385.53,166.58,378.63,162.86,372.89z"/>
					</g>
				</g>
			</g>
		</g>
		<g>
			<g>
				<g>
					<g>
						<path class="st5" d="M318.83,224.94c-2.29,1.28-5.36-0.38-6.4-2.79c-1.04-2.41-0.56-5.19,0.23-7.69
							c0.79-2.5,1.89-4.96,2.04-7.57c0.29-4.76-2.96-9.51-7.5-10.97c4.45-3.53,4.82-11.1,0.73-15.04c-1.91-1.84-4.46-2.85-6.69-4.3
							c-1.27-0.83-2.43-1.81-3.52-2.87c2.02,0.43,4.04,0.63,6.07,0.19c3.23-0.7,6.06-3.12,7.13-6.24c1.06-3.13,0.24-6.85-2.15-9.13
							c-2.39-2.28-6.25-2.9-9.17-1.36c-2.88,1.52-4.45,4.65-5.85,7.58c-0.43,0.91-0.87,1.82-1.3,2.73
							c-4.05-5.37-7.86-10.91-14.1-12.79c-5.66-1.71-11.75,0.2-17.65-0.23c-4.3-0.31-8.42-1.86-12.71-2.33
							c-4.29-0.47-9.16,0.45-11.69,3.94c-1.48,2.05-1.95,4.7-3.46,6.73c-3.1,4.2-9.79,4.77-12.34,9.33
							c-2.07,3.71-0.48,8.38-1.37,12.53c-0.97,4.52-4.69,7.81-7.74,11.28c-3.05,3.47-5.7,8.23-3.99,12.52
							c1.5,3.77,5.91,5.8,7.34,9.6c1.05,2.77,0.28,5.85,0.23,8.81c-0.05,2.96,1.13,6.48,4.02,7.15l32.85,8.68
							c11.31,4.6,22.99,9.28,35.2,9.26c12.21-0.02,25.25-5.88,30.07-17.1c-1.76-0.07-3.49-0.84-4.72-2.11
							C315.58,231.3,318.02,228.34,318.83,224.94z"/>
					</g>
				</g>
				<g>
					<g>
						<g>
							<g>
								<g>
									<g>
										<g>
											<g>
												<g>
													<path class="st5" d="M291.91,235.25c2.71-8.33,5.38-16.73,6.62-25.4c1.23-8.67,0.97-17.72-2.08-25.93
														c-0.46-1.25-4.41-9.6-5.73-9.47c-0.94,0.09,1.49,7.89,1.01,8.71c-4.56,7.83-5.8,17.25-5.07,26.28
														C287.38,218.46,289.26,226.59,291.91,235.25"/>
												</g>
											</g>
										</g>
									</g>
								</g>
								<g>
									<path class="st20" d="M259.32,161.03l-2.03,0.11c-20.44,1.1-36.62,17.7-37.17,38.16c-0.51,19.04-1.21,37.32-0.54,47.48
										c1.39,21.04,23,23.23,23,23.23v10.86c0.93,11.08,15.28,13.07,20.72,12.59c18.79,0,28.59-15.38,28.59-15.38l0.88-76.27
										C293.49,179.86,281.3,161.14,259.32,161.03z"/>
								</g>
								<g>
									<g>
										<g>
											<g>
												<g>
													<g>
														<g>
															<path class="st21" d="M242.58,269.97c0,0,13.31,0.07,26.98-9.57c0,0-5.86,15.67-26.97,14.9L242.58,269.97z"/>
														</g>
													</g>
												</g>
											</g>
										</g>
									</g>
								</g>
								<g>
									<g>
										<g>
											<g>
												<g>
													<g>
														<g>
															<g>
																<g>
																	<g>
																		<g>
																			<g>
																				<g>
																					<path class="st5" d="M229.81,216.57c0.03,1.59,1.4,2.88,3.06,2.88c1.66,0,2.98-1.29,2.95-2.88
																						c-0.03-1.59-1.4-2.88-3.06-2.88C231.11,213.69,229.78,214.98,229.81,216.57z"/>
																				</g>
																			</g>
																		</g>
																	</g>
																</g>
															</g>
														</g>
													</g>
												</g>
											</g>
										</g>
									</g>
								</g>
								<g>
									<g>
										<g>
											<g>
												<g>
													<g>
														<g>
															<g>
																<g>
																	<g>
																		<g>
																			<g>
																				<g>
																					<g>
																						<path class="st5" d="M225.09,207.8c0.39,0.37,2.58-1.44,5.82-1.6c3.23-0.21,5.69,1.33,6.02,0.91
																							c0.16-0.18-0.25-0.87-1.33-1.57c-1.06-0.69-2.83-1.33-4.85-1.21c-2.01,0.12-3.67,0.95-4.6,1.76
																							C225.19,206.91,224.89,207.64,225.09,207.8z"/>
																					</g>
																				</g>
																			</g>
																		</g>
																	</g>
																</g>
															</g>
														</g>
													</g>
												</g>
											</g>
										</g>
									</g>
								</g>
								<g>
									<g>
										<g>
											<g>
												<g>
													<g>
														<g>
															<g>
																<g>
																	<g>
																		<g>
																			<g>
																				<g>
																					<path class="st5" d="M259.09,216.64c0.03,1.59,1.4,2.88,3.06,2.88c1.66,0,2.98-1.29,2.95-2.88
																						c-0.03-1.59-1.4-2.88-3.06-2.88C260.38,213.76,259.06,215.05,259.09,216.64z"/>
																				</g>
																			</g>
																		</g>
																	</g>
																</g>
															</g>
														</g>
													</g>
												</g>
											</g>
										</g>
									</g>
								</g>
								<g>
									<g>
										<g>
											<g>
												<g>
													<g>
														<g>
															<g>
																<g>
																	<g>
																		<g>
																			<g>
																				<g>
																					<g>
																						<path class="st5" d="M256.85,207.41c0.39,0.37,2.59-1.44,5.82-1.6c3.23-0.21,5.69,1.33,6.02,0.91
																							c0.16-0.18-0.25-0.87-1.33-1.57c-1.06-0.7-2.83-1.33-4.85-1.22c-2.01,0.12-3.67,0.95-4.6,1.76
																							C256.96,206.52,256.66,207.25,256.85,207.41z"/>
																					</g>
																				</g>
																			</g>
																		</g>
																	</g>
																</g>
															</g>
														</g>
													</g>
												</g>
											</g>
										</g>
									</g>
								</g>
								<g>
									<g>
										<g>
											<g>
												<g>
													<g>
														<g>
															<g>
																<g>
																	<g>
																		<g>
																			<g>
																				<g>
																					<path class="st5" d="M246.58,232.9c0.01-0.18-2.02-0.42-5.31-0.67c-0.83-0.04-1.62-0.16-1.79-0.72
																						c-0.23-0.59,0.07-1.5,0.42-2.48c0.67-2.04,1.37-4.18,2.11-6.42c2.91-9.14,4.97-16.64,4.61-16.75
																						c-0.37-0.11-3.03,7.2-5.94,16.34c-0.7,2.25-1.37,4.4-2,6.45c-0.26,0.96-0.74,2.05-0.25,3.27
																						c0.26,0.61,0.89,1.02,1.42,1.14c0.54,0.13,1,0.12,1.41,0.12C244.54,233.18,246.57,233.08,246.58,232.9z"/>
																				</g>
																			</g>
																		</g>
																	</g>
																</g>
															</g>
														</g>
													</g>
												</g>
											</g>
										</g>
									</g>
								</g>
								<g>
									<g>
										<g>
											<g>
												<g>
													<g>
														<g>
															<g>
																<g>
																	<g>
																		<g>
																			<g>
																				<g>
																					<path class="st5" d="M256.22,234.63c-0.53,0-0.35,3.51-3.22,6.16c-2.87,2.66-6.63,2.47-6.63,2.96
																						c-0.04,0.22,0.87,0.64,2.45,0.6c1.55-0.03,3.79-0.65,5.55-2.27c1.75-1.63,2.43-3.71,2.47-5.16
																						C256.9,235.44,256.46,234.59,256.22,234.63z"/>
																				</g>
																			</g>
																		</g>
																	</g>
																</g>
															</g>
														</g>
													</g>
												</g>
											</g>
										</g>
									</g>
								</g>
								<g>
									<g>
										<g>
											<g>
												<g>
													<g>
														<g>
															<g>
																<g>
																	<path class="st5" d="M256.33,194.27c0.37,0.86,3.57,0.27,7.39,0.53c3.83,0.18,6.95,1.12,7.41,0.31
																		c0.2-0.39-0.37-1.19-1.66-1.97c-1.27-0.78-3.27-1.49-5.57-1.62c-2.29-0.13-4.36,0.35-5.71,0.98
																		C256.83,193.13,256.17,193.86,256.33,194.27z"/>
																</g>
															</g>
														</g>
													</g>
												</g>
											</g>
										</g>
									</g>
								</g>
								<g>
									<g>
										<g>
											<g>
												<g>
													<g>
														<g>
															<g>
																<g>
																	<path class="st5" d="M225.85,196.98c0.61,0.7,2.8-0.18,5.48-0.36c2.67-0.27,4.98,0.23,5.46-0.57
																		c0.21-0.39-0.19-1.1-1.22-1.74c-1.01-0.64-2.68-1.12-4.52-0.97c-1.84,0.16-3.4,0.91-4.29,1.71
																		C225.85,195.86,225.58,196.63,225.85,196.98z"/>
																</g>
															</g>
														</g>
													</g>
												</g>
											</g>
										</g>
									</g>
								</g>
								<g>
									<g>
										<g>
											<g>
												<g>
													<path class="st20" d="M291.89,217.51c0.35-0.17,14.24-5.05,14.55,9.36c0.31,14.42-14.23,11.76-14.26,11.35
														C292.14,237.8,291.89,217.51,291.89,217.51z"/>
												</g>
											</g>
										</g>
									</g>
								</g>
								<g>
									<g>
										<g>
											<g>
												<g>
													<g>
														<path class="st21" d="M296.46,232.66c0.06-0.05,0.26,0.17,0.68,0.36c0.42,0.18,1.13,0.3,1.88,0
															c1.51-0.59,2.74-3.04,2.76-5.64c0.01-1.31-0.29-2.56-0.78-3.58c-0.46-1.05-1.16-1.77-1.93-1.89
															c-0.77-0.16-1.3,0.31-1.47,0.72c-0.18,0.41-0.09,0.69-0.16,0.72c-0.04,0.04-0.31-0.23-0.21-0.83
															c0.05-0.29,0.22-0.63,0.55-0.92c0.34-0.29,0.85-0.44,1.38-0.4c1.11,0.05,2.14,1.05,2.67,2.18
															c0.6,1.13,0.97,2.53,0.96,4c-0.03,2.91-1.46,5.66-3.53,6.31c-1.01,0.29-1.86,0-2.31-0.33
															C296.5,233,296.41,232.68,296.46,232.66z"/>
													</g>
												</g>
											</g>
										</g>
									</g>
								</g>
								<g>
									<g>
										<g>
											<g>
												<g>
													<path class="st5" d="M229.14,175.3c-2.35-1.26,4.56-8.91,10.26-11.58c8.62-4.04,21.82-6.64,29.85-4.47
														c9.66,2.61,17.71,7.29,22.66,15.99c4.94,8.7,6.89,18.88,6.74,28.88c-0.05,3.05-0.32,6.24-1.92,8.84
														c-1.97,3.21-5.81,5.27-5.59,9.67c0.08,1.61-0.36,3.24-1.44,4.42c-2.6,2.84-5.86,0.24-7.38-2.38
														c-3.24-5.61-3.68-12.35-4.04-18.81c-0.26-4.6-0.5-9.29,0.74-13.73c0.67-2.41,1.78-4.7,2.32-7.15s0.43-5.21-1.11-7.19
														c-0.25-0.32-0.66-0.72-1.19-1.17c-4.13-3.53-9.86-4.53-14.96-2.65c-8.08,2.98-21.9,7.45-25.56,4.74
														c-5.26-3.9-6.54-6.47-6.54-6.47L229.14,175.3z"/>
												</g>
											</g>
										</g>
									</g>
								</g>
							</g>
						</g>
						<g>
							<g>
								<g>
									<g>
										<g>
											<path class="st5" d="M268.47,157.29c-7.96-2.55-16.98-2.29-24.35,1.65c-3.91,2.09-7.43,5.4-8.57,9.69
												c-1.15,4.29,0.74,9.52,4.87,11.14l0.28,0.17c6.18,1.99,10.17,1.12,16.28-1.09c5.14-1.85,9.69-5.1,14.84-6.93
												c5.47-1.94,11.53-2.2,17.15-0.72C283.37,165.01,276.43,159.84,268.47,157.29z"/>
										</g>
									</g>
								</g>
							</g>
						</g>
					</g>
				</g>
				<g>
					<g>
						<g>
							<path class="st8" d="M295.89,171.55c-0.12,0.11-1.28-1.27-3.63-2.9c-1.17-0.8-2.63-1.68-4.38-2.34
								c-1.73-0.66-3.76-1.15-5.86-0.98c-4.28,0.41-7.85,2.4-10.05,4.15c-2.23,1.77-3.27,3.25-3.4,3.15
								c-0.05-0.03,0.15-0.44,0.63-1.11c0.47-0.67,1.24-1.58,2.34-2.56c2.17-1.94,5.84-4.15,10.41-4.58
								c2.31-0.19,4.47,0.38,6.27,1.12c1.81,0.74,3.29,1.72,4.45,2.62C294.99,169.93,295.98,171.5,295.89,171.55z"/>
						</g>
					</g>
				</g>
				<g>
					<g>
						<g>
							<path class="st8" d="M297.33,176.66c0.1,0.02-0.14,1.65-1.1,4.12c-0.95,2.46-2.72,5.72-5.41,8.76
								c-2.7,3.03-5.72,5.18-8.05,6.41c-2.34,1.24-3.92,1.68-3.96,1.58c-0.17-0.28,6.05-2.64,11.29-8.63
								C295.43,182.99,297.04,176.53,297.33,176.66z"/>
						</g>
					</g>
				</g>
				<g>
					<g>
						<g>
							<path class="st8" d="M303.2,179c0.06,0,0.1,0.59,0.06,1.64c-0.04,1.05-0.21,2.58-0.63,4.43c-0.8,3.68-2.83,8.7-6.66,13.11
								c-3.84,4.4-8.54,7.09-12.08,8.39c-1.78,0.66-3.26,1.04-4.3,1.23c-1.04,0.19-1.62,0.23-1.63,0.17
								c-0.04-0.17,2.27-0.57,5.68-2.03c3.4-1.43,7.89-4.13,11.6-8.39c3.71-4.26,5.77-9.08,6.73-12.64
								C302.95,181.32,303.03,178.98,303.2,179z"/>
						</g>
					</g>
				</g>
				<g>
					<g>
						<g>
							<path class="st8" d="M251.95,155.98c0.03,0.16-1.5,0.51-3.82,1.44c-2.32,0.92-5.41,2.52-8.35,4.94
								c-2.93,2.43-5.1,5.15-6.44,7.25c-1.35,2.1-1.99,3.54-2.14,3.47c-0.1-0.04,0.32-1.57,1.56-3.82c1.22-2.25,3.38-5.14,6.42-7.65
								c3.04-2.5,6.29-4.06,8.73-4.83C250.35,155.99,251.94,155.88,251.95,155.98z"/>
						</g>
					</g>
				</g>
				<g>
					<g>
						<g>
							<path class="st8" d="M307.72,157.79c0.24-0.01-0.39,4.18-3.66,8.02c-3.22,3.88-7.24,5.23-7.27,4.99
								c-0.14-0.26,3.49-1.93,6.53-5.61C306.43,161.56,307.44,157.69,307.72,157.79z"/>
						</g>
					</g>
				</g>
			</g>
			<g>
				<path class="st21" d="M262.1,225.41c0,0.3-0.24,0.54-0.54,0.54c-0.3,0-0.54-0.24-0.54-0.54c0-0.3,0.24-0.54,0.54-0.54
					C261.86,224.87,262.1,225.11,262.1,225.41z"/>
			</g>
			<g>
				<circle class="st21" cx="265.53" cy="225.41" r="0.54"/>
			</g>
		</g>
		<g>
			<g>
				<g>
					<path class="st19" d="M301.95,416l-62.08-18.54c-1.06-0.32-1.66-1.43-1.34-2.48l25.59-85.7c0.32-1.06,1.43-1.66,2.48-1.34
						l62.08,18.54c1.06,0.32,1.66,1.43,1.34,2.48l-25.59,85.7C304.12,415.71,303.01,416.31,301.95,416z"/>
				</g>
				<g>
					<path class="st5" d="M241.74,384.8c-2.64-0.51-4.48-2.84-4.38-5.52c0.11-2.99,2.65-5.33,5.62-5.23
						c2.99,0.11,5.34,2.63,5.23,5.62l-1-0.04c0.09-2.44-1.83-4.5-4.27-4.58c-2.43-0.08-4.5,1.83-4.58,4.27
						c-0.08,2.19,1.42,4.09,3.57,4.5L241.74,384.8z"/>
				</g>
				<g>
					<path class="st5" d="M243.98,377.44c-2.64-0.51-4.48-2.84-4.38-5.52c0.11-2.99,2.6-5.33,5.62-5.23
						c2.99,0.11,5.34,2.63,5.23,5.62l-1-0.04c0.09-2.44-1.83-4.5-4.27-4.58c-2.44-0.08-4.5,1.83-4.58,4.27
						c-0.08,2.19,1.42,4.09,3.57,4.5L243.98,377.44z"/>
				</g>
				<g>
					<path class="st5" d="M246.22,370.07c-2.64-0.51-4.48-2.83-4.38-5.52c0.05-1.45,0.66-2.79,1.73-3.78
						c1.06-0.99,2.44-1.49,3.89-1.45c2.99,0.11,5.34,2.63,5.23,5.62l-1-0.04c0.09-2.44-1.83-4.5-4.27-4.58
						c-1.17-0.04-2.31,0.38-3.18,1.18c-0.87,0.81-1.37,1.9-1.41,3.08c-0.08,2.19,1.42,4.09,3.57,4.5L246.22,370.07z"/>
				</g>
				<g>
					<path class="st5" d="M248.46,362.71c-2.64-0.51-4.48-2.84-4.38-5.52c0.11-2.99,2.6-5.32,5.62-5.23
						c1.45,0.05,2.79,0.67,3.78,1.73c0.99,1.06,1.5,2.44,1.45,3.89l-1-0.04c0.04-1.18-0.38-2.31-1.18-3.18
						c-0.81-0.87-1.9-1.37-3.08-1.41c-1.18-0.04-2.31,0.38-3.18,1.18c-0.87,0.81-1.37,1.9-1.41,3.08c-0.08,2.19,1.42,4.09,3.57,4.5
						L248.46,362.71z"/>
				</g>
				<g>
					<path class="st5" d="M250.7,355.35c-2.64-0.51-4.48-2.83-4.38-5.52c0.05-1.45,0.66-2.79,1.73-3.78
						c1.06-0.99,2.45-1.49,3.89-1.45c2.99,0.11,5.34,2.63,5.23,5.62l-1-0.04c0.09-2.44-1.83-4.5-4.27-4.58
						c-1.19-0.04-2.31,0.38-3.18,1.18c-0.87,0.81-1.37,1.9-1.41,3.08c-0.08,2.19,1.42,4.09,3.57,4.5L250.7,355.35z"/>
				</g>
				<g>
					<path class="st5" d="M252.94,347.99c-2.64-0.51-4.48-2.84-4.38-5.52c0.05-1.45,0.66-2.79,1.73-3.78
						c1.06-0.99,2.46-1.49,3.89-1.45c1.45,0.05,2.79,0.67,3.78,1.73c0.99,1.06,1.5,2.44,1.45,3.89l-1-0.04
						c0.09-2.44-1.83-4.5-4.27-4.58c-1.17-0.04-2.31,0.38-3.18,1.18c-0.87,0.81-1.37,1.9-1.41,3.08c-0.08,2.19,1.42,4.09,3.57,4.5
						L252.94,347.99z"/>
				</g>
				<g>
					<path class="st5" d="M255.18,340.63c-2.64-0.51-4.48-2.84-4.38-5.52c0.1-2.93,2.52-5.23,5.42-5.23c0.07,0,0.13,0,0.2,0
						c2.99,0.11,5.34,2.63,5.23,5.62l-1-0.04c0.09-2.44-1.83-4.5-4.27-4.58c-2.43-0.09-4.5,1.83-4.58,4.27
						c-0.08,2.19,1.42,4.09,3.57,4.5L255.18,340.63z"/>
				</g>
				<g>
					<path class="st5" d="M257.42,333.27c-2.64-0.51-4.48-2.84-4.38-5.52c0.11-2.99,2.63-5.34,5.62-5.23
						c1.45,0.05,2.79,0.67,3.78,1.73c0.99,1.06,1.5,2.44,1.45,3.89l-1-0.04c0.04-1.18-0.38-2.31-1.18-3.18
						c-0.81-0.87-1.9-1.37-3.08-1.41c-2.47-0.1-4.5,1.83-4.58,4.27c-0.08,2.19,1.42,4.09,3.57,4.5L257.42,333.27z"/>
				</g>
				<g>
					<path class="st5" d="M259.66,325.9c-2.64-0.51-4.48-2.84-4.38-5.52c0.05-1.45,0.67-2.79,1.73-3.78
						c1.06-0.99,2.45-1.5,3.89-1.45c2.99,0.11,5.34,2.63,5.23,5.62l-1-0.04c0.09-2.44-1.83-4.5-4.27-4.58
						c-1.2-0.04-2.31,0.38-3.18,1.18c-0.87,0.81-1.37,1.9-1.41,3.08c-0.08,2.19,1.42,4.09,3.57,4.5L259.66,325.9z"/>
				</g>
				<g>
					<path class="st5" d="M261.9,318.54c-2.64-0.51-4.48-2.83-4.38-5.52c0.05-1.45,0.67-2.79,1.73-3.78
						c1.06-0.99,2.45-1.49,3.89-1.45c2.99,0.11,5.34,2.63,5.23,5.62l-1-0.04c0.09-2.44-1.83-4.5-4.27-4.58
						c-2.43-0.1-4.5,1.83-4.58,4.27c-0.08,2.19,1.42,4.09,3.57,4.5L261.9,318.54z"/>
				</g>
				<g>
					<path class="st5" d="M239.5,392.16c-2.64-0.51-4.48-2.84-4.38-5.52c0.05-1.45,0.66-2.79,1.73-3.78
						c1.06-0.99,2.45-1.49,3.89-1.45c2.99,0.11,5.34,2.63,5.23,5.62l-1-0.04c0.09-2.44-1.83-4.5-4.27-4.58
						c-1.17-0.04-2.31,0.38-3.18,1.18c-0.87,0.81-1.37,1.9-1.41,3.08c-0.08,2.19,1.42,4.09,3.57,4.5L239.5,392.16z"/>
				</g>
			</g>
			<g>
				<g>
					<path class="st10" d="M247.05,386.44c1.1-2.83,13.07-44.94,18.55-62.23c1.22-3.85,5.71-6.14,9.54-4.88l61.49,18.28
						c3.71,1.21,5.8,5.15,4.72,8.91l-27.18,94.15c-1.1,3.8-5.04,6.03-8.86,4.99l-62.65-16.94c-3.9-1.06-6.19-5.1-5.09-8.99
						l9.35-32.92L247.05,386.44z"/>
				</g>
			</g>
			<g>
				<g>
					<path class="st0" d="M269.01,317.26c-2.48-0.66-5.04,0.75-5.79,3.21c-4.58,14.99-19.35,63.3-20.44,66.31l-10.9,35.69
						c-0.79,2.59,0.74,5.32,3.36,6l67.5,17.55c2.5,0.65,5.06-0.81,5.78-3.29l29.42-101.99c0.74-2.56-0.77-5.23-3.35-5.92
						L269.01,317.26z"/>
				</g>
				<g>
					<g>
						<path class="st5" d="M269.01,317.26c0,0,0.33,0.07,0.96,0.23c0.64,0.17,1.57,0.41,2.79,0.72c2.46,0.65,6.07,1.6,10.72,2.82
							c9.31,2.47,22.77,6.05,39.4,10.47c2.08,0.55,4.21,1.12,6.38,1.7c1.09,0.29,2.19,0.58,3.3,0.88c0.56,0.15,1.11,0.3,1.68,0.45
							c0.55,0.13,1.16,0.33,1.68,0.65c1.05,0.63,1.86,1.67,2.21,2.87c0.18,0.6,0.24,1.23,0.18,1.86c-0.05,0.64-0.27,1.23-0.43,1.81
							c-0.67,2.35-1.36,4.74-2.06,7.17c-2.8,9.73-5.79,20.12-8.93,31.05c-3.15,10.93-6.45,22.41-9.88,34.31
							c-1.71,5.95-3.46,12-5.23,18.14c-0.89,3.07-1.78,6.17-2.68,9.28l-0.34,1.17c-0.13,0.41-0.29,0.81-0.52,1.17
							c-0.43,0.74-1.08,1.35-1.82,1.78c-0.75,0.41-1.61,0.66-2.47,0.65c-0.43,0.01-0.86-0.07-1.28-0.16l-1.19-0.31
							c-12.71-3.31-25.12-6.53-37.1-9.65c-5.99-1.56-11.88-3.09-17.64-4.59c-2.88-0.75-5.73-1.49-8.55-2.23
							c-0.7-0.18-1.41-0.37-2.11-0.55c-0.68-0.18-1.44-0.34-2.1-0.73c-1.33-0.74-2.25-2.11-2.47-3.59c-0.12-0.74-0.06-1.5,0.15-2.21
							c0.21-0.68,0.41-1.35,0.62-2.02c0.41-1.34,0.82-2.68,1.23-4c0.81-2.65,1.61-5.27,2.4-7.84c1.58-5.15,3.11-10.16,4.59-15
							c2.98-9.67,5.77-18.67,8.3-26.9c5.1-16.43,9.23-29.72,12.08-38.93c0.72-2.29,1.35-4.33,1.91-6.1
							c0.28-0.87,0.49-1.73,0.94-2.39c0.43-0.67,0.99-1.14,1.54-1.48c1.11-0.66,2.14-0.72,2.78-0.68
							C268.7,317.14,269.01,317.26,269.01,317.26c0,0.02-0.32-0.09-0.97-0.13c-0.63-0.02-1.64,0.05-2.72,0.72
							c-0.53,0.33-1.07,0.8-1.48,1.46c-0.43,0.64-0.63,1.48-0.91,2.37c-0.54,1.77-1.16,3.82-1.86,6.12
							c-2.82,9.22-6.89,22.53-11.93,38.98c-2.52,8.23-5.28,17.24-8.24,26.92c-1.47,4.84-3,9.85-4.57,15
							c-0.79,2.58-1.58,5.19-2.39,7.84c-0.4,1.33-0.81,2.66-1.22,4c-0.2,0.67-0.41,1.35-0.62,2.02c-0.19,0.64-0.24,1.33-0.14,2
							c0.2,1.34,1.04,2.58,2.24,3.24c0.59,0.35,1.27,0.49,1.98,0.68c0.7,0.18,1.4,0.36,2.11,0.55c2.82,0.73,5.67,1.47,8.56,2.22
							c5.77,1.5,11.65,3.03,17.65,4.58c11.99,3.11,24.4,6.34,37.11,9.64c0.81,0.2,1.57,0.47,2.34,0.45
							c0.77,0.01,1.54-0.21,2.21-0.58c0.66-0.39,1.25-0.93,1.63-1.6c0.41-0.64,0.56-1.43,0.8-2.22c0.9-3.11,1.79-6.21,2.68-9.28
							c1.77-6.14,3.52-12.2,5.24-18.14c3.44-11.89,6.75-23.37,9.91-34.3c3.16-10.93,6.16-21.31,8.98-31.04
							c0.7-2.43,1.39-4.82,2.07-7.16c0.16-0.59,0.37-1.16,0.42-1.73c0.06-0.58,0-1.16-0.16-1.71c-0.32-1.1-1.06-2.06-2.02-2.64
							c-0.49-0.3-1-0.47-1.57-0.61c-0.56-0.15-1.12-0.3-1.67-0.45c-1.11-0.3-2.21-0.59-3.3-0.89c-2.17-0.59-4.3-1.16-6.38-1.72
							c-16.61-4.48-30.05-8.11-39.35-10.63c-4.64-1.26-8.24-2.25-10.69-2.92c-1.21-0.34-2.14-0.59-2.78-0.77
							C269.33,317.37,269.01,317.26,269.01,317.26z"/>
					</g>
				</g>
			</g>
			<g class="st15">
				<g>
					<path d="M273.83,416.28l-39.99-3.08c0.51,2.96,2.83,5.35,5.49,6.71c2.67,1.37,5.68,1.88,8.64,2.37
						c4.53,0.75,9.06,1.51,13.59,2.26c1.73,0.29,3.56,0.63,4.85,1.81c1.4,1.28,1.86,3.27,2.95,4.82c1.78,2.54,4.98,3.59,7.96,4.47
						c11.8,3.47,23.7,6.65,35.8,8.87c3.36,0.61,6.84,1.15,10.16,0.35c3.32-0.81,6.46-3.28,7.02-6.65L273.83,416.28z"/>
				</g>
			</g>
			<g>
				<g>
					<path class="st5" d="M271.81,318.99c0.14,0.04-7.44,24.61-16.91,54.86c-9.48,30.26-17.27,54.75-17.41,54.71
						c-0.14-0.04,7.43-24.6,16.92-54.87C263.87,343.44,271.67,318.94,271.81,318.99z"/>
				</g>
			</g>
			<g>
				
					<rect x="275.89" y="347.17" transform="matrix(0.9582 0.2861 -0.2861 0.9582 114.6212 -69.8101)" class="st10" width="40.64" height="20.34"/>
			</g>
		</g>
		<g>
			<g>
				<g>
					<path class="st20" d="M279.53,387.55c0,0-9.88-13.15-13.45-16.15c-3.57-3-18.37-0.6-18.37-0.6l-6.43,6.76
						c0,0,1.27,5.14,7.26,2.6l1.67-1.26l6.87,0l4.26,4.96l-13.37-0.23c0,0-6.57-4.27-8.07-4.27c-1.5,0-5.1,2.88-2.49,7.96
						c0,0-5,1.61-3.27,8.42c0,0-4.19,1.15-0.36,9.22l0.48,0.92c0,0-4.38,2.08-1.5,6.69c2.88,4.61,10.15,6,12.34,5.88
						c2.19-0.12,41.61,5.69,41.61,5.69l10.66-27.7L279.53,387.55z"/>
				</g>
				<g>
					<g>
						<path class="st21" d="M249.65,394.28c0,0.06-0.82,0.1-2.12-0.1c-1.3-0.2-3.06-0.72-4.83-1.69c-1.76-0.98-3.15-2.2-4.01-3.18
							c-0.87-0.99-1.26-1.7-1.22-1.73c0.13-0.12,2.01,2.58,5.48,4.46C246.4,393.96,249.69,394.11,249.65,394.28z"/>
					</g>
				</g>
				<g>
					<g>
						<path class="st21" d="M243.33,403.14c-0.02,0.06-0.71-0.08-1.78-0.52c-1.06-0.43-2.47-1.18-3.85-2.26
							c-1.38-1.09-2.44-2.28-3.11-3.21c-0.67-0.93-0.97-1.57-0.92-1.6c0.14-0.1,1.64,2.3,4.35,4.4
							C240.7,402.09,243.39,402.99,243.33,403.14z"/>
					</g>
				</g>
				<g>
					<g>
						<path class="st21" d="M243.35,411.17c-0.02,0.13-2.52-0.29-5.22-1.79c-2.71-1.48-4.4-3.37-4.31-3.45
							c0.11-0.12,1.92,1.56,4.56,2.99C241.01,410.38,243.39,411.02,243.35,411.17z"/>
					</g>
				</g>
			</g>
			<g>
				<path class="st19" d="M378.85,405.13l-42.86-6.66l-50.38-9.52l-11.78,39.6c0,0,60.2,17.65,76.69,19.82
					c17.62,2.32,24.46,0,30.04-11.58C384.12,429.4,381.91,414.59,378.85,405.13z"/>
			</g>
			<g class="st3">
				<g class="st4">
					<path class="st5" d="M338.92,446.09c0,0.01-0.11-0.01-0.32-0.06c-0.23-0.06-0.54-0.13-0.94-0.23
						c-0.85-0.22-2.06-0.53-3.63-0.94c-3.18-0.84-7.79-2.06-13.56-3.58c-11.59-3.1-27.86-7.46-46.71-12.5l-0.25-0.07l0.07-0.25
						c2.35-7.91,4.89-16.45,7.52-25.3c1.46-4.9,2.89-9.7,4.26-14.3l0.07-0.22l0.23,0.05c21.95,4.35,41.29,8.18,55.17,10.93
						c6.91,1.39,12.46,2.51,16.3,3.28c1.89,0.39,3.36,0.7,4.39,0.91c0.48,0.1,0.86,0.19,1.13,0.25c0.25,0.06,0.38,0.09,0.38,0.1
						c0,0.01-0.13-0.01-0.39-0.05c-0.28-0.05-0.66-0.12-1.14-0.2c-1.03-0.19-2.5-0.47-4.4-0.82c-3.85-0.74-9.41-1.8-16.33-3.13
						c-13.89-2.71-33.24-6.48-55.21-10.75l0.3-0.18c-1.37,4.59-2.79,9.4-4.25,14.3c-2.64,8.85-5.18,17.39-7.54,25.3l-0.17-0.31
						c18.83,5.12,35.08,9.53,46.66,12.68c5.76,1.58,10.34,2.85,13.52,3.72c1.56,0.44,2.76,0.78,3.61,1.02
						c0.39,0.12,0.7,0.21,0.93,0.27C338.82,446.05,338.92,446.09,338.92,446.09z"/>
				</g>
			</g>
		</g>
	</g>
</g>
</svg>
